<svg width="11" height="22" viewBox="0 0 11 22" version="1.1" xmlns="http://www.w3.org/2000/svg" xmlns:xlink="http://www.w3.org/1999/xlink">
    <g id="Canvas" transform="translate(-2605 82)">
        <g id="Vector">
            <use xlink:href="#path0_fill" transform="translate(2605 -82)" fill="#FFFFFF"/>
        </g>
    </g>
    <defs>
        <path id="path0_fill" d="M 9.5 5L 9.5 16.5C 9.5 18.71 7.71 20.5 5.5 20.5C 3.29 20.5 1.5 18.71 1.5 16.5L 1.5 4C 1.5 2.62 2.62 1.5 4 1.5C 5.38 1.5 6.5 2.62 6.5 4L 6.5 14.5C 6.5 15.05 6.05 15.5 5.5 15.5C 4.95 15.5 4.5 15.05 4.5 14.5L 4.5 5L 3 5L 3 14.5C 3 15.88 4.12 17 5.5 17C 6.88 17 8 15.88 8 14.5L 8 4C 8 1.79 6.21 0 4 0C 1.79 0 0 1.79 0 4L 0 16.5C 0 19.54 2.46 22 5.5 22C 8.54 22 11 19.54 11 16.5L 11 5L 9.5 5Z"/>
    </defs>
</svg>
