<svg width="8" height="15" viewBox="0 0 8 15" version="1.1" xmlns="http://www.w3.org/2000/svg" xmlns:xlink="http://www.w3.org/1999/xlink">
<title>Vector</title>
<desc>Created using Figma</desc>
<g id="Canvas" transform="translate(-4682 -3483)">
<g id="Vector">
<use xlink:href="#path0_fill" transform="translate(4682 3483)"/>
</g>
</g>
<defs>
<path id="path0_fill" d="M 6.33333 3.33333L 6.33333 11C 6.33333 12.4733 5.14 13.6667 3.66667 13.6667C 2.19333 13.6667 1 12.4733 1 11L 1 2.66667C 1 1.74667 1.74667 1 2.66667 1C 3.58667 1 4.33333 1.74667 4.33333 2.66667L 4.33333 9.66667C 4.33333 10.0333 4.03333 10.3333 3.66667 10.3333C 3.3 10.3333 3 10.0333 3 9.66667L 3 3.33333L 2 3.33333L 2 9.66667C 2 10.5867 2.74667 11.3333 3.66667 11.3333C 4.58667 11.3333 5.33333 10.5867 5.33333 9.66667L 5.33333 2.66667C 5.33333 1.19333 4.14 0 2.66667 0C 1.19333 0 0 1.19333 0 2.66667L 0 11C 0 13.0267 1.64 14.6667 3.66667 14.6667C 5.69333 14.6667 7.33333 13.0267 7.33333 11L 7.33333 3.33333L 6.33333 3.33333Z"/>
</defs>
</svg>
