<svg width="251" height="217" viewBox="0 0 251 217" version="1.1" xmlns="http://www.w3.org/2000/svg" xmlns:xlink="http://www.w3.org/1999/xlink">
<title>Vector</title>
<desc>Created using Figma</desc>
<g id="Canvas" transform="translate(-17032 -12428)">
<g id="Vector">
<use xlink:href="#path0_fill" transform="translate(17032 12428)"/>
<use xlink:href="#path0_fill" transform="translate(17032 12428)" fill="url(#paint1_linear)"/>
<use xlink:href="#path1_fill" transform="translate(17032 12428)"/>
<use xlink:href="#path1_fill" transform="translate(17032 12428)" fill="url(#paint3_linear)"/>
</g>
</g>
<defs>
<linearGradient id="paint1_linear" x1="0" y1="0" x2="1" y2="0" gradientUnits="userSpaceOnUse" gradientTransform="matrix(189.095 166.228 -192.273 161.92 129.08 -61.2325)">
<stop offset="0" stop-color="#E9B760"/>
<stop offset="0.138122" stop-color="#F7F2A8"/>
<stop offset="0.39779" stop-color="#FDDC7E"/>
<stop offset="0.790055" stop-color="#E4B25B"/>
<stop offset="0.98895" stop-color="#F6CA6B"/>
</linearGradient>
<linearGradient id="paint3_linear" x1="0" y1="0" x2="1" y2="0" gradientUnits="userSpaceOnUse" gradientTransform="matrix(189.095 166.228 -192.273 161.92 129.08 -61.2325)">
<stop offset="0" stop-color="#E9B760"/>
<stop offset="0.138122" stop-color="#F7F2A8"/>
<stop offset="0.39779" stop-color="#FDDC7E"/>
<stop offset="0.790055" stop-color="#E4B25B"/>
<stop offset="0.98895" stop-color="#F6CA6B"/>
</linearGradient>
<path id="path0_fill" d="M 91.2779 125.632C 116.484 125.632 136.917 105.178 136.917 79.9474C 136.917 54.7167 116.484 34.2632 91.2779 34.2632C 66.0722 34.2632 45.639 54.7167 45.639 79.9474C 45.639 105.178 66.0722 125.632 91.2779 125.632Z"/>
<path id="path1_fill" d="M 91.2779 148.474C 60.8139 148.474 0 163.778 0 194.158L 0 217L 182.556 217L 182.556 194.158C 182.556 163.778 121.742 148.474 91.2779 148.474ZM 179.817 38.3747L 160.649 57.6763C 170.233 71.1532 170.233 88.6274 160.649 102.104L 179.817 121.406C 202.865 98.3353 202.865 63.5011 179.817 38.3747ZM 217.584 0L 198.986 18.6163C 230.591 53.1079 230.591 104.959 198.986 141.278L 217.584 159.895C 262.082 115.467 262.196 46.2553 217.584 0Z"/>
</defs>
</svg>
