<svg width="65" height="53" viewBox="0 0 65 53" version="1.1" xmlns="http://www.w3.org/2000/svg" xmlns:xlink="http://www.w3.org/1999/xlink">
<title>Vector</title>
<desc>Created using Figma</desc>
<g id="Canvas" transform="translate(-9344 -8045)">
<g id="Vector">
<use xlink:href="#path0_fill" transform="translate(9344.46 8045)"/>
<use xlink:href="#path0_fill" transform="translate(9344.46 8045)" fill="url(#paint1_linear)"/>
</g>
</g>
<defs>
<linearGradient id="paint1_linear" x1="0" y1="0" x2="1" y2="0" gradientUnits="userSpaceOnUse" gradientTransform="matrix(48.0407 39.9867 -48.8482 38.9502 32.7937 -14.7297)">
<stop offset="0" stop-color="#E9B760"/>
<stop offset="0.138122" stop-color="#F7F2A8"/>
<stop offset="0.39779" stop-color="#FDDC7E"/>
<stop offset="0.790055" stop-color="#E4B25B"/>
<stop offset="0.98895" stop-color="#F6CA6B"/>
</linearGradient>
<path id="path0_fill" d="M 23.1884 37.7L 42.029 37.7C 46.029 37.7 49.2754 34.452 49.2754 30.45C 49.2754 26.448 46.029 23.2 42.029 23.2L 41.8841 23.2C 41.1884 18.299 36.9855 14.5 31.8841 14.5C 27.8261 14.5 24.3478 16.907 22.7246 20.358L 22.2609 20.358C 17.8841 20.822 14.4928 24.505 14.4928 29C 14.4928 33.814 18.3768 37.7 23.1884 37.7ZM 57.971 0L 5.7971 0C 2.6087 0 0 2.61 0 5.8L 0 46.4C 0 49.59 2.6087 52.2 5.7971 52.2L 57.971 52.2C 61.1594 52.2 63.7681 49.59 63.7681 46.4L 63.7681 5.8C 63.7681 2.61 61.1594 0 57.971 0ZM 57.971 46.429L 5.7971 46.429L 5.7971 5.771L 57.971 5.771L 57.971 46.429Z"/>
</defs>
</svg>
