<svg width="35" height="62" viewBox="0 0 35 62" version="1.1" xmlns="http://www.w3.org/2000/svg" xmlns:xlink="http://www.w3.org/1999/xlink">
<title>Vector</title>
<desc>Created using Figma</desc>
<g id="Canvas" transform="translate(-13655 -18242)">
<g id="Vector">
<use xlink:href="#path0_fill" transform="translate(13655 18242.2)"/>
<use xlink:href="#path0_fill" transform="translate(13655 18242.2)" fill="url(#paint1_linear)"/>
</g>
</g>
<defs>
<linearGradient id="paint1_linear" x1="0" y1="0" x2="1" y2="0" gradientUnits="userSpaceOnUse" gradientTransform="matrix(26.2033 47.1108 -26.6438 45.8897 17.887 -17.3539)">
<stop offset="0" stop-color="#E9B760"/>
<stop offset="0.138122" stop-color="#F7F2A8"/>
<stop offset="0.39779" stop-color="#FDDC7E"/>
<stop offset="0.790055" stop-color="#E4B25B"/>
<stop offset="0.98895" stop-color="#F6CA6B"/>
</linearGradient>
<path id="path0_fill" d="M 18.7233 26.9917C 10.9675 24.9758 8.47333 22.8917 8.47333 19.6458C 8.47333 15.9217 11.9242 13.325 17.6983 13.325C 23.78 13.325 26.035 16.2292 26.24 20.5L 33.7908 20.5C 33.5517 14.6233 29.9642 9.225 22.8233 7.4825L 22.8233 0L 12.5733 0L 12.5733 7.38C 5.945 8.815 0.615 13.12 0.615 19.7142C 0.615 27.6067 7.14083 31.5358 16.6733 33.825C 25.215 35.875 26.9233 38.8817 26.9233 42.0592C 26.9233 44.4167 25.2492 48.175 17.6983 48.175C 10.66 48.175 7.8925 45.0317 7.51667 41L 5.8651e-07 41C 0.410001 48.4825 6.01333 52.685 12.5733 54.0858L 12.5733 61.5L 22.8233 61.5L 22.8233 54.1542C 29.4858 52.89 34.7817 49.0292 34.7817 42.025C 34.7817 32.3217 26.4792 29.0075 18.7233 26.9917Z"/>
</defs>
</svg>
