<svg width="43" height="30" viewBox="0 0 43 30" version="1.1" xmlns="http://www.w3.org/2000/svg" xmlns:xlink="http://www.w3.org/1999/xlink">
<title>Vector</title>
<desc>Created using Figma</desc>
<g id="Canvas" transform="translate(-6488 -9753)">
<g id="Vector">
<use xlink:href="#path0_fill" transform="translate(6488 9753)"/>
<use xlink:href="#path0_fill" transform="translate(6488 9753)" fill="url(#paint1_linear)"/>
</g>
</g>
<defs>
<linearGradient id="paint1_linear" x1="0" y1="0" x2="1" y2="0" gradientUnits="userSpaceOnUse" gradientTransform="matrix(32.3947 22.9809 -32.9392 22.3852 22.1134 -8.46533)">
<stop offset="0" stop-color="#E9B760"/>
<stop offset="0.138122" stop-color="#F7F2A8"/>
<stop offset="0.39779" stop-color="#FDDC7E"/>
<stop offset="0.790055" stop-color="#E4B25B"/>
<stop offset="0.98895" stop-color="#F6CA6B"/>
</linearGradient>
<path id="path0_fill" d="M 21.5 0C 11.7273 0 3.38136 6.22 0 15C 3.38136 23.78 11.7273 30 21.5 30C 31.2727 30 39.6186 23.78 43 15C 39.6186 6.22 31.2727 0 21.5 0ZM 21.5 25C 16.1055 25 11.7273 20.52 11.7273 15C 11.7273 9.48 16.1055 5 21.5 5C 26.8945 5 31.2727 9.48 31.2727 15C 31.2727 20.52 26.8945 25 21.5 25ZM 21.5 9C 18.2555 9 15.6364 11.68 15.6364 15C 15.6364 18.32 18.2555 21 21.5 21C 24.7445 21 27.3636 18.32 27.3636 15C 27.3636 11.68 24.7445 9 21.5 9Z"/>
</defs>
</svg>
