<svg width="49" height="49" viewBox="0 0 49 49" version="1.1" xmlns="http://www.w3.org/2000/svg" xmlns:xlink="http://www.w3.org/1999/xlink">
<title>Vector</title>
<desc>Created using Figma</desc>
<g id="Canvas" transform="translate(-5863 -8849)">
<g id="Vector">
<use xlink:href="#path0_fill" transform="translate(5863 8849)"/>
<use xlink:href="#path0_fill" transform="translate(5863 8849)" fill="url(#paint1_linear)"/>
</g>
</g>
<defs>
<linearGradient id="paint1_linear" x1="0" y1="0" x2="1" y2="0" gradientUnits="userSpaceOnUse" gradientTransform="matrix(36.9149 37.5354 -37.5354 36.5625 25.199 -13.8267)">
<stop offset="0" stop-color="#E9B760"/>
<stop offset="0.138122" stop-color="#F7F2A8"/>
<stop offset="0.39779" stop-color="#FDDC7E"/>
<stop offset="0.790055" stop-color="#E4B25B"/>
<stop offset="0.98895" stop-color="#F6CA6B"/>
</linearGradient>
<path id="path0_fill" d="M 17.15 23.8875C 15.4595 23.8875 14.0875 25.2595 14.0875 26.95C 14.0875 28.6405 15.4595 30.0125 17.15 30.0125C 18.8405 30.0125 20.2125 28.6405 20.2125 26.95C 20.2125 25.2595 18.8405 23.8875 17.15 23.8875ZM 31.85 23.8875C 30.1595 23.8875 28.7875 25.2595 28.7875 26.95C 28.7875 28.6405 30.1595 30.0125 31.85 30.0125C 33.5405 30.0125 34.9125 28.6405 34.9125 26.95C 34.9125 25.2595 33.5405 23.8875 31.85 23.8875ZM 24.5 0C 10.976 0 0 10.976 0 24.5C 0 38.024 10.976 49 24.5 49C 38.024 49 49 38.024 49 24.5C 49 10.976 38.024 0 24.5 0ZM 24.5 44.1C 13.6955 44.1 4.9 35.3045 4.9 24.5C 4.9 23.7895 4.949 23.079 5.0225 22.393C 10.8045 19.8205 15.386 15.092 17.787 9.2365C 22.2215 15.5085 29.5225 19.6 37.779 19.6C 39.69 19.6 41.5275 19.3795 43.2915 18.963C 43.806 20.7025 44.1 22.5645 44.1 24.5C 44.1 35.3045 35.3045 44.1 24.5 44.1Z"/>
</defs>
</svg>
