<svg width="17" height="18" viewBox="0 0 17 18" version="1.1" xmlns="http://www.w3.org/2000/svg" xmlns:xlink="http://www.w3.org/1999/xlink">
    <g id="Canvas" transform="translate(-1459 -843)">
        <g id="Vector">
            <use xlink:href="#path0_fill" transform="translate(1459 843)" fill="#FFFFFF"/>
        </g>
    </g>
    <defs>
        <path id="path0_fill" d="M 16.0518 0L 0.937602 0C 0.419425 0 0 0.421333 0 0.941867L 0 16.1248C 0 16.6453 0.419425 17.0667 0.937602 17.0667L 9.07445 17.0667L 9.07445 10.4576L 6.85946 10.4576L 6.85946 7.88267L 9.07445 7.88267L 9.07445 5.9808C 9.07445 3.77707 10.4145 2.57813 12.3725 2.57813C 13.3101 2.57813 14.1161 2.6464 14.3507 2.6784L 14.3507 4.9824L 12.9916 4.9824C 11.9297 4.9824 11.7227 5.4944 11.7227 6.24107L 11.7227 7.88373L 14.2605 7.88373L 13.9313 10.4651L 11.7227 10.4651L 11.7227 17.0667L 16.0518 17.0667C 16.57 17.0667 16.9894 16.6453 16.9894 16.1248L 16.9894 0.941867C 16.9894 0.421333 16.57 0 16.0518 0Z"/>
    </defs>
</svg>
