<svg width="42" height="43" viewBox="0 0 42 43" version="1.1" xmlns="http://www.w3.org/2000/svg" xmlns:xlink="http://www.w3.org/1999/xlink">
<title>Vector</title>
<desc>Created using Figma</desc>
<g id="Canvas" transform="translate(-997 -8898)">
<g id="Vector">
<use xlink:href="#path0_fill" transform="translate(997 8898)"/>
<use xlink:href="#path0_fill" transform="translate(997 8898)" fill="url(#paint1_linear)"/>
</g>
</g>
<defs>
<linearGradient id="paint1_linear" x1="0" y1="0" x2="1" y2="0" gradientUnits="userSpaceOnUse" gradientTransform="matrix(31.6413 32.9392 -32.1732 32.0855 21.5991 -12.1336)">
<stop offset="0" stop-color="#E9B760"/>
<stop offset="0.138122" stop-color="#F7F2A8"/>
<stop offset="0.39779" stop-color="#FDDC7E"/>
<stop offset="0.790055" stop-color="#E4B25B"/>
<stop offset="0.98895" stop-color="#F6CA6B"/>
</linearGradient>
<path id="path0_fill" fill-rule="evenodd" d="M 21.4286 18.4282L 21.4286 25.8L 33.5812 25.8C 33.0911 28.9632 29.9116 35.0719 21.4286 35.0719C 14.1161 35.0719 8.14286 28.9981 8.14286 21.5C 8.14286 14.0019 14.1161 7.92812 21.4286 7.92812C 25.5911 7.92812 28.3768 9.70187 29.9732 11.2418L 35.7857 5.61956C 32.0518 2.12313 27.2143 0 21.4286 0C 9.58125 0 -9.57932e-09 9.61319 -9.57932e-09 21.5C -9.57932e-09 33.3868 9.58125 43 21.4286 43C 33.7955 43 42 34.2764 42 21.9918C 42 20.5782 41.8473 19.5032 41.6625 18.4282L 21.4286 18.4282Z"/>
</defs>
</svg>
