<svg width="52" height="52" viewBox="0 0 52 52" version="1.1" xmlns="http://www.w3.org/2000/svg" xmlns:xlink="http://www.w3.org/1999/xlink">
<title>Vector</title>
<desc>Created using Figma</desc>
<g id="Canvas" transform="translate(-6159 -8846)">
<g id="Vector">
<use xlink:href="#path0_fill" transform="translate(6159 8846)" fill="url(#paint0_linear)"/>
</g>
</g>
<defs>
<linearGradient id="paint0_linear" x1="0" y1="0" x2="1" y2="0" gradientUnits="userSpaceOnUse" gradientTransform="matrix(39.175 39.8335 -39.8335 38.801 26.7417 -14.6732)">
<stop offset="0" stop-color="#E9B760"/>
<stop offset="0.138122" stop-color="#F7F2A8"/>
<stop offset="0.39779" stop-color="#FDDC7E"/>
<stop offset="0.790055" stop-color="#E4B25B"/>
<stop offset="0.98895" stop-color="#F6CA6B"/>
</linearGradient>
<path id="path0_fill" d="M 46.2222 0L 5.77778 0C 2.6 0 0 2.6 0 5.77778L 0 46.2222C 0 49.4 2.6 52 5.77778 52L 46.2222 52C 49.4 52 52 49.4 52 46.2222L 52 5.77778C 52 2.6 49.4 0 46.2222 0ZM 17.3333 40.4444L 11.5556 40.4444L 11.5556 20.2222L 17.3333 20.2222L 17.3333 40.4444ZM 28.8889 40.4444L 23.1111 40.4444L 23.1111 11.5556L 28.8889 11.5556L 28.8889 40.4444ZM 40.4444 40.4444L 34.6667 40.4444L 34.6667 28.8889L 40.4444 28.8889L 40.4444 40.4444Z"/>
</defs>
</svg>
