<svg width="212" height="155" viewBox="0 0 212 155" version="1.1" xmlns="http://www.w3.org/2000/svg" xmlns:xlink="http://www.w3.org/1999/xlink">
<title>Group</title>
<desc>Created using Figma</desc>
<g id="Canvas" transform="translate(-36591 -14616)">
<g id="Group">
<g id="Vector">
<use xlink:href="#path0_fill" transform="translate(36591 14616)" fill="#FFFFFF"/>
</g>
<g id="Vector">
<use xlink:href="#path1_fill" transform="translate(36674.4 14659.3)" fill="#FFFFFF"/>
</g>
<g id="Vector">
<use xlink:href="#path2_fill" transform="translate(36670.6 14706.4)" fill="#FFFFFF"/>
</g>
<g id="Vector">
<use xlink:href="#path3_fill" transform="translate(36700.6 14702.5)" fill="#FFFFFF"/>
</g>
<g id="Vector">
<use xlink:href="#path4_fill" transform="translate(36662.3 14652.2)" fill="#FFFFFF"/>
</g>
<g id="Vector">
<use xlink:href="#path5_fill" transform="translate(36709.7 14741.7)" fill="#FFFFFF"/>
</g>
<g id="Vector">
<use xlink:href="#path6_fill" transform="translate(36756.1 14661.5)" fill="#FFFFFF"/>
</g>
<g id="Vector">
<use xlink:href="#path7_fill" transform="translate(36738.6 14681.3)" fill="#FFFFFF"/>
</g>
<g id="Vector">
<use xlink:href="#path8_fill" transform="translate(36748.9 14640.1)" fill="#FFFFFF"/>
</g>
<g id="Vector">
<use xlink:href="#path9_fill" transform="translate(36711.9 14644)" fill="#FFFFFF"/>
</g>
<g id="Vector">
<use xlink:href="#path10_fill" transform="translate(36739.2 14725.2)" fill="#FFFFFF"/>
</g>
<g id="Vector">
<use xlink:href="#path11_fill" transform="translate(36780.3 14672.1)" fill="#FFFFFF"/>
</g>
<g id="Vector">
<use xlink:href="#path12_fill" transform="translate(36629.4 14646.5)" fill="#FFFFFF"/>
</g>
<g id="Vector">
<use xlink:href="#path13_fill" transform="translate(36643.3 14636.9)" fill="#FFFFFF"/>
</g>
<g id="Vector">
<use xlink:href="#path14_fill" transform="translate(36619.6 14702.1)" fill="#FFFFFF"/>
</g>
</g>
</g>
<defs>
<path id="path0_fill" d="M 202.357 49.0768C 202.248 45.2341 201.43 37.1096 196.416 31.7298C 193.254 28.3811 189.112 26.6794 184.097 26.6245C 182.353 23.3856 178.483 17.5667 172.651 16.3041C 170.253 15.7551 168.236 15.5904 166.437 15.4257C 163.385 15.1512 161.859 14.9317 160.387 13.7239C 157.88 11.583 154.119 10.3204 150.303 10.3204C 147.741 10.3204 145.398 10.8694 143.49 11.9673C 141.092 9.93614 136.84 7.24624 131.389 7.24624C 131.062 7.24624 130.735 7.24624 130.408 7.30114C 127.846 4.88573 121.687 0 114.329 0C 112.476 0 110.622 0.329375 108.878 0.988124C 99.067 4.55635 95.9057 5.1602 85.9855 4.94062L 85.2769 4.94062C 76.9374 4.94062 72.1954 8.67353 70.0151 11.0341C 68.7069 10.8694 66.8537 10.7047 64.6735 10.7047C 58.1327 10.7047 49.0846 12.1869 43.1434 19.3782C 36.8751 26.7342 36.112 32.9375 36.4936 36.7253C 31.6425 38.2624 22.9215 42.2149 19.7601 51.602C 17.5798 58.0797 16.7077 62.2518 16.4352 64.777C 14.5275 65.326 12.1292 66.369 10.1125 68.5648C 7.65966 71.1998 6.40601 74.7681 6.46052 79.1597C 4.28026 83.222 -4.11375 100.569 2.48154 113.25C 7.9867 124.064 16.8168 126.205 21.1228 126.59C 22.3764 129.225 25.1562 133.067 30.8249 134.056C 32.0241 134.275 33.3322 134.385 34.7494 134.385C 38.2923 134.385 41.7262 133.726 44.0155 133.122C 45.5962 136.251 48.7576 140.972 54.4262 143.498C 56.9335 144.596 60.0949 145.199 63.7468 145.199C 68.3254 145.199 72.7404 144.321 75.0297 143.827C 76.7739 144.925 79.9898 146.517 85.822 148.109C 90.346 149.371 94.9246 149.975 98.958 150.524C 102.283 150.963 106.044 151.512 107.243 152.171C 109.696 153.598 114.274 154.532 118.907 154.532C 122.668 154.532 128.119 153.928 133.025 151.018C 137.44 148.438 139.838 146.407 141.146 144.87C 144.144 144.815 149.649 144.376 154.936 142.07C 158.915 140.314 161.586 137.734 163.766 135.647C 165.074 134.385 166.546 133.012 167.255 132.958C 170.852 132.683 173.359 130.487 174.722 128.84C 179.137 128.731 190.529 127.578 197.288 119.014C 203.938 110.56 201.812 101.173 200.395 97.1106C 202.52 94.3659 206.772 88.3822 209.552 81.5202C 213.095 72.5722 214.076 56.378 202.357 49.0768ZM 44.7786 125.986C 44.7241 125.986 39.655 127.743 34.6949 127.743C 33.6593 127.743 32.7326 127.688 31.8605 127.523C 27.718 126.809 26.6824 123.021 26.5734 122.637C 26.4644 122.033 26.1374 121.484 25.7013 121.045C 28.6992 118.52 31.479 114.019 30.7704 106.168C 31.4245 106.333 32.0786 106.388 32.8417 106.388C 33.6593 106.388 34.5859 106.278 35.567 106.059C 36.003 105.949 36.2756 105.51 36.1666 105.071C 36.0575 104.631 35.6215 104.357 35.1854 104.467C 28.8627 105.949 26.7369 101.283 26.6824 101.063C 26.5189 100.624 26.0283 100.459 25.5923 100.624C 25.1562 100.789 24.9927 101.283 25.1562 101.722C 25.1562 101.777 26.3009 104.247 29.0807 105.565C 30.0618 113.634 27.173 117.916 24.2841 120.167C 23.9026 120.057 23.4665 120.002 23.085 120.057C 23.0305 120.057 22.867 120.057 22.6489 120.057C 20.4687 120.057 12.8923 119.343 8.20472 110.231C 2.91759 100.02 11.2026 84.1003 12.4017 81.9594C 13.4919 84.814 15.1816 87.7784 17.7434 90.0291C 17.9069 90.1389 18.0704 90.2487 18.2884 90.2487C 18.5065 90.2487 18.7245 90.1389 18.888 89.9742C 19.1605 89.6448 19.1605 89.0959 18.8335 88.8214C 15.6176 85.9668 13.9279 81.7947 13.0013 78.3912C 13.2193 74.0544 15.3451 72.2429 17.2528 71.5292C 17.3073 71.5292 17.3618 71.5292 17.4708 71.5292C 18.997 71.2547 23.085 70.9254 25.1017 72.4075C 23.8481 74.6583 24.3932 76.6345 24.3932 76.6345C 24.5022 76.9639 24.8292 77.2384 25.1562 77.2384C 25.2653 77.2384 25.3198 77.2384 25.4288 77.1835C 25.8648 77.0188 26.0829 76.5796 25.9738 76.1405C 25.9738 76.0856 24.9927 72.7369 29.9528 70.3215C 30.3344 70.1019 30.5524 69.6079 30.3344 69.2236C 30.1163 68.7844 29.6258 68.6197 29.2442 68.8393C 27.8271 69.4981 26.8459 70.2666 26.1374 71.09C 25.1017 70.2666 23.6846 69.8823 22.2674 69.7177C 22.8125 69.004 23.0305 68.1806 22.9215 67.3022C 22.9215 67.2473 22.7035 63.7889 26.0829 53.8528C 29.0807 44.4656 40.7996 42.4344 40.9086 42.3795C 41.4537 42.2698 41.9442 42.0502 42.3803 41.7208C 46.5228 42.5991 52.0825 44.6303 56.0069 49.3513C 56.1704 49.5709 56.3885 49.6258 56.661 49.6258C 56.8245 49.6258 57.0425 49.5709 57.2061 49.4062C 57.5331 49.1317 57.5876 48.5828 57.3151 48.2534C 53.2816 43.4226 47.7764 41.2267 43.4704 40.2386C 43.743 39.4152 43.743 38.5368 43.4159 37.7134C 43.3069 37.4938 41.0721 32.0591 48.158 23.6052C 52.5185 18.3901 59.5498 17.2922 64.6735 17.2922C 68.1619 17.2922 70.7237 17.7862 70.7237 17.7862C 72.0863 18.0607 73.5035 17.4569 74.2121 16.2492C 74.3211 16.0296 77.2645 11.4732 85.2769 11.4732L 85.822 11.4732C 87.0756 11.5281 88.2203 11.5281 89.3104 11.5281C 92.9078 11.5281 95.7967 11.3085 98.522 10.8145C 94.434 13.2299 90.0735 16.853 87.0756 21.9583C 83.3147 21.08 80.0988 22.1779 79.8808 22.2877C 79.4447 22.4524 79.2267 22.8915 79.3902 23.3307C 79.5537 23.7699 79.9898 23.9895 80.4258 23.8248C 80.5893 23.7699 83.4782 22.7818 86.7486 23.5503C 86.8031 23.6052 86.8576 23.715 86.9666 23.7699C 87.0756 23.8248 87.2391 23.8797 87.3481 23.8797C 87.4027 23.8797 87.5117 23.8248 87.5662 23.8248C 88.9833 24.3188 90.455 25.1423 91.7632 26.5696C 91.9267 26.7343 92.1447 26.844 92.3628 26.844C 92.5808 26.844 92.7443 26.7891 92.9078 26.6245C 93.2349 26.2951 93.2348 25.801 92.9623 25.4716C 91.5997 23.9895 90.128 23.0562 88.6563 22.5073C 95.5241 11.3634 109.532 7.95989 109.696 7.90499C 109.914 7.8501 110.132 7.68541 110.241 7.46583C 110.513 7.35604 110.786 7.24624 111.113 7.13645C 112.149 6.75218 113.239 6.58749 114.329 6.58749C 120.815 6.58749 126.702 12.8456 126.756 12.9005C 126.811 13.0103 126.92 13.0652 127.029 13.1201C 122.505 14.1082 117.817 16.0845 113.947 19.6527C 108.333 24.758 106.262 29.479 105.553 31.7298C 96.4507 32.114 91.3271 39.2505 89.2014 43.0383C 88.0022 41.3365 85.4404 38.5368 80.4803 37.384C 80.0443 37.2742 79.6082 37.5487 79.4992 37.9879C 79.3902 38.4271 79.6627 38.8662 80.0988 38.976C 85.1679 40.1837 87.4027 43.1481 88.1657 44.4656C 78.8451 46.332 72.9584 57.1465 71.4323 60.2756C 68.3799 60.9343 58.5687 63.8987 54.0447 74.6034C 49.8477 84.6493 52.0279 90.7976 53.4451 93.3228C 42.9799 105.18 43.5794 117.367 46.1412 125.766C 45.7052 125.766 45.2146 125.821 44.7786 125.986ZM 203.392 78.995C 200.068 87.1745 194.126 94.311 194.072 94.3659C 193.2 95.354 193.036 96.7813 193.636 97.989C 193.69 98.0988 198.105 107.211 192.11 114.897C 186.768 121.704 176.848 122.198 173.904 122.198C 173.468 122.198 173.25 122.198 173.196 122.198L 173.141 122.198C 174.122 120.167 175.104 117.367 175.867 113.634C 177.011 113.085 180.227 111.219 182.789 107.047C 183.007 106.663 182.898 106.168 182.516 105.894C 182.135 105.674 181.644 105.784 181.372 106.168C 179.682 108.968 177.556 110.615 176.194 111.493C 176.684 108.035 176.957 103.973 176.63 99.1967C 176.575 98.7575 176.194 98.3733 175.758 98.4282C 175.322 98.4282 174.94 98.8673 174.995 99.3065C 175.758 112.097 172.651 119.673 170.798 123.021C 170.58 123.241 170.362 123.516 170.144 123.79C 170.144 123.79 168.672 126.151 166.71 126.315C 163.657 126.535 161.477 128.621 159.133 130.817C 157.225 132.628 155.1 134.659 152.156 135.977C 147.578 138.008 142.618 138.228 140.656 138.228C 139.947 138.228 139.511 138.228 139.456 138.173C 138.53 138.118 137.658 138.447 136.949 139.051C 136.513 139.435 136.24 139.929 136.077 140.478C 135.75 140.863 134.387 142.4 129.591 145.254C 125.993 147.395 121.742 147.834 118.798 147.834C 114.765 147.834 111.495 146.956 110.459 146.352C 108.17 145.035 104.463 144.486 99.7756 143.882C 95.9602 143.333 91.5997 142.729 87.4572 141.631C 80.2623 139.655 78.1366 137.953 78.082 137.953C 77.5915 137.404 76.9374 137.075 76.2288 136.91C 73.7215 133.946 70.9417 129.17 69.47 121.539C 69.361 121.1 68.925 120.826 68.4889 120.881C 68.0529 120.99 67.7803 121.429 67.8348 121.869C 69.252 129.06 71.7593 133.891 74.2121 137.075C 72.7404 137.459 68.1619 138.502 63.5833 138.502C 60.8035 138.502 58.5687 138.118 56.9335 137.404C 55.8434 136.91 54.8623 136.306 53.9902 135.593C 53.9902 135.263 53.8812 134.934 53.7176 134.604C 53.1181 133.781 38.8919 114.128 56.1704 95.1344C 58.1327 96.5617 62.5477 98.9222 70.3966 100.13C 66.8537 101.887 61.5666 105.839 59.0048 114.568C 57.5876 113.415 56.661 112.317 56.661 112.262C 56.3885 111.933 55.8434 111.878 55.5164 112.152C 55.1893 112.427 55.1348 112.976 55.4074 113.305C 55.5164 113.415 56.8245 115.062 58.8958 116.544C 58.9503 116.599 59.0048 116.654 59.1138 116.708C 60.967 118.026 63.3653 119.179 65.9816 119.179C 66.2541 119.179 66.5267 119.179 66.7992 119.124C 67.2353 119.069 67.5623 118.685 67.5623 118.246C 67.5078 117.806 67.1262 117.477 66.6902 117.477C 64.4009 117.697 62.2207 116.763 60.4765 115.611C 63.8013 103.588 72.5224 100.898 73.9941 100.569C 75.5747 100.734 77.2099 100.844 79.0087 100.844C 79.3357 100.844 79.6082 100.844 79.9353 100.844C 91.7632 100.844 96.7233 95.9029 98.6855 92.6092C 99.2851 95.4638 99.7211 101.008 95.5786 105.51C 95.2516 105.839 95.3061 106.388 95.6331 106.663C 95.7967 106.827 96.0147 106.882 96.1782 106.882C 96.3962 106.882 96.6143 106.772 96.7778 106.608C 102.446 100.404 100.539 92.719 99.8846 90.6329C 101.901 90.8525 106.97 90.7976 114.492 86.7353C 115.692 86.0766 116.891 85.4178 118.09 84.7042C 126.647 79.8185 135.532 74.7681 142.781 81.4653C 143.108 81.7947 143.653 81.7398 143.926 81.4105C 144.253 81.0811 144.198 80.5321 143.871 80.2576C 135.75 72.7369 125.939 78.3363 117.272 83.2769C 116.073 83.9906 114.874 84.6493 113.675 85.3081C 104.627 90.1938 99.3396 88.9312 99.2851 88.9312C 99.067 88.8763 98.849 88.9312 98.631 89.041C 98.4675 89.1508 98.304 89.3155 98.2495 89.535C 98.1404 89.9193 95.4696 99.581 78.9542 99.1967C 77.2645 99.1418 75.6838 99.032 74.2121 98.9222C 74.1031 98.8673 73.9941 98.8673 73.885 98.8673C 64.1829 97.9341 59.0593 95.0795 57.097 93.7071C 57.1516 93.2679 57.0425 92.7739 56.7155 92.3896C 56.552 92.17 52.3005 87.0647 56.988 75.9209C 61.5121 65.1613 72.2499 63.4595 72.6859 63.4046C 73.231 63.2948 73.7215 62.9655 73.9396 62.4165C 73.9941 62.2518 80.1533 48.5828 89.6919 47.5398C 90.2915 47.4849 90.8366 47.1006 91.0546 46.4967C 91.1091 46.3869 95.8512 34.6941 106.643 35.0235C 107.407 35.0784 108.17 34.4746 108.333 33.6511C 108.333 33.5962 109.314 28.1615 116.019 22.123C 122.232 16.4687 131.335 15.0414 137.821 16.0296C 139.511 17.1824 140.492 18.3352 140.546 18.3352C 141.146 19.0488 142.018 19.488 142.945 19.488C 143.871 19.5429 144.743 19.1586 145.398 18.4999C 146.433 17.4569 148.123 16.853 150.194 16.853C 152.429 16.853 154.718 17.5667 156.026 18.6646C 159.133 21.2996 162.349 21.6289 165.729 21.9034C 167.418 22.0681 169.162 22.2328 171.179 22.672C 174.94 23.4954 178.156 29.2595 178.974 31.2357L 179.028 31.2906C 179.846 34.8039 180.663 40.568 179.41 47.1555C 179.301 47.5947 179.628 48.0338 180.064 48.1436C 180.118 48.1436 180.173 48.1436 180.227 48.1436C 180.609 48.1436 180.936 47.8691 181.045 47.4849C 182.189 41.8306 181.808 36.7253 181.154 33.1022C 181.535 33.212 181.971 33.2668 182.353 33.2668C 186.386 32.8826 189.384 33.8707 191.565 36.1763C 196.252 41.1718 195.762 50.6139 195.762 50.7237C 195.653 52.0412 196.416 53.3038 197.615 53.9077C 206.772 58.464 206.499 71.3096 203.392 78.995Z"/>
<path id="path1_fill" d="M 0.769904 20.375C 0.933424 20.375 1.09694 20.3201 1.26046 20.2103C 1.31497 20.1554 6.82012 16.0383 12.9794 17.7949C 13.2519 17.8498 13.5244 17.7949 13.7425 17.6302C 13.9605 17.4656 14.0695 17.1911 14.015 16.9166C 13.9605 16.4774 12.7613 6.3766 22.3545 1.54577C 22.736 1.32619 22.8995 0.83213 22.736 0.447859C 22.518 0.0635887 22.0274 -0.101097 21.6459 0.0635904C 13.0339 4.40036 12.3253 12.8543 12.3798 15.9285C 5.94802 14.7208 0.606383 18.7282 0.333851 18.8928C -0.0476948 19.1673 -0.102203 19.6614 0.170329 20.0457C 0.279342 20.2652 0.551878 20.375 0.769904 20.375Z"/>
<path id="path2_fill" d="M 72.6299 0.199466C 72.3029 0.52884 72.2484 1.02291 72.5754 1.35228C 75.9548 5.14009 76.4999 9.14748 74.1016 12.7157C 70.7767 17.5465 62.9823 20.1266 57.7496 18.0955C 47.7749 14.2528 39.4354 15.5154 35.947 21.3892C 32.8947 26.4946 24.6097 27.2631 24.5007 27.2631C 24.0646 27.318 23.7921 27.6474 23.7376 28.0316C 23.7376 28.0865 23.3015 34.0702 15.2346 36.1013C 7.05859 38.1324 1.60794 32.8625 1.38992 32.6429C 1.06288 32.3135 0.572317 32.3135 0.245278 32.6429C -0.0817614 32.9723 -0.0817614 33.4663 0.245278 33.7957C 0.463304 34.0153 4.71481 38.2422 11.4736 38.2422C 12.7818 38.2422 14.1444 38.0776 15.6161 37.6933C 23.247 35.7719 24.9367 30.6666 25.2638 28.8002C 27.444 28.5257 34.3663 27.2082 37.3097 22.2127C 40.3621 17.0525 47.993 16.0643 57.1501 19.6326C 63.1458 21.9382 71.7033 19.1385 75.4642 13.6489C 77.1539 11.1786 79.1162 6.23801 73.7745 0.254365C 73.502 -0.0750099 73.0115 -0.0750132 72.6299 0.199466Z"/>
<path id="path3_fill" d="M 0.453723 16.9096C 0.562736 16.9645 0.726254 17.0194 0.835267 17.0194C 1.1078 17.0194 1.43484 16.8547 1.54385 16.5802C 1.59836 16.4704 6.28591 7.74201 17.8413 6.80878C 17.5688 8.34586 17.5142 10.1025 17.9503 11.969C 18.0593 12.3533 18.3864 12.6277 18.7679 12.6277C 18.8224 12.6277 18.8769 12.6277 18.9314 12.6277C 19.3675 12.5179 19.64 12.0788 19.531 11.6396C 19.0949 9.77316 19.204 8.07139 19.5855 6.5892C 19.8035 6.42451 19.9125 6.20493 19.9125 5.93045C 19.9125 5.82066 19.858 5.76576 19.858 5.71087C 20.7301 3.07587 22.2563 1.429 22.2563 1.3741C 22.5834 1.04473 22.5289 0.495766 22.2018 0.221287C 21.8748 -0.108087 21.3297 -0.0531882 21.0572 0.276187C 20.9482 0.385978 19.2585 2.30733 18.2773 5.21681C 5.41381 5.98535 0.290197 15.4823 0.0721713 15.9215C -0.0913482 16.196 0.0176714 16.69 0.453723 16.9096Z"/>
<path id="path4_fill" d="M 71.5123 1.76149C 73.093 1.48701 74.8372 1.6517 76.7449 2.69472C 77.1265 2.9143 77.617 2.74962 77.8896 2.36535C 78.1076 1.98108 77.9441 1.48701 77.5625 1.26743C 69.7136 -3.06934 63.4453 5.11013 63.3363 5.16503C 63.0638 5.5493 63.1183 6.04336 63.4999 6.31784C 63.6634 6.42763 63.8269 6.48253 63.9904 6.48253C 64.2629 6.48253 64.481 6.37274 64.6445 6.15315C 64.808 5.98846 66.8247 3.35347 69.9316 2.20066C 73.8016 10.6546 68.0239 16.4187 66.9338 17.4068C 66.2797 17.0225 65.5166 16.6931 64.699 16.3089C 54.1792 12.027 46.8209 21.9631 41.9153 28.6055C 40.2256 30.9112 38.7539 32.8874 37.6093 33.7108C 33.1942 36.785 24.0917 35.0832 23.9826 35.0283C 23.5466 34.9185 23.1105 35.193 23.0015 35.6322C 23.0015 35.742 20.4942 45.733 12.0457 46.3918C 3.70623 47.0505 1.63498 42.0001 1.58047 41.7805C 1.41695 41.3414 0.926395 41.1218 0.54485 41.2865C 0.108798 41.4511 -0.109225 41.9452 0.0542944 42.3295C 0.163307 42.604 2.28905 48.0935 10.574 48.0935C 11.1191 48.0935 11.6097 48.0935 12.2092 48.0386C 20.3852 47.3799 23.6011 39.2553 24.4187 36.7301C 26.817 37.1144 34.3389 37.9378 38.5359 34.9734C 39.8985 34.0402 41.3702 32.0091 43.2779 29.4839C 48.129 22.9513 54.7788 13.9484 64.0994 17.7362C 68.8415 19.6575 70.8582 22.2925 69.8226 25.0922C 68.7325 27.9468 64.59 30.3073 62.1372 29.429C 61.7011 29.2643 61.2651 29.4839 61.1016 29.923C 60.938 30.3622 61.1561 30.8014 61.5921 30.9661C 64.917 32.1738 69.9316 29.429 71.3488 25.6961C 71.8938 24.2688 72.4389 21.0848 68.4054 18.1753C 70.0951 16.5285 75.2733 10.3252 71.5123 1.76149Z"/>
<path id="path5_fill" d="M 22.6747 1.46936C 18.8592 1.79874 14.3352 0.0420759 14.2807 0.0420759C 13.9537 -0.0677157 13.5721 0.0420759 13.3541 0.316555C 8.23048 7.23342 0.98112 6.95894 0.872107 6.95894C 0.436055 6.90404 0.0545065 7.28832 -1.54917e-14 7.72749C -1.54917e-14 8.16665 0.327036 8.55092 0.763088 8.60581C 0.817594 8.60581 0.872101 8.60581 1.03562 8.60581C 2.45279 8.60581 9.10258 8.27644 14.2807 1.74384C 15.6979 2.2379 19.4588 3.33582 22.8382 3.06134C 23.2743 3.00645 23.6013 2.62217 23.6013 2.18301C 23.5468 1.74384 23.1108 1.41447 22.6747 1.46936Z"/>
<path id="path6_fill" d="M 3.88963 7.72887C 5.52482 6.41137 8.14112 3.99595 9.6673 1.19627C 9.88533 0.811996 9.72182 0.317934 9.34028 0.0983506C 8.95873 -0.121233 8.46817 0.043454 8.25015 0.427725C 6.1789 4.27043 1.60034 7.45439 1.54584 7.50928C 1.27331 7.72887 1.10978 8.05824 1.2188 8.38761C 1.2733 8.71699 1.54584 8.99147 1.87288 9.04637C 5.68833 9.59532 9.83083 12.5048 12.5016 16.3475C 14.5729 19.3119 16.7531 24.3074 15.3905 30.84C 13.4283 40.337 5.19778 44.1248 1.9819 45.2776C 2.14542 41.874 2.9085 39.4037 2.9085 39.4037C 3.07202 38.9646 2.79949 38.5254 2.36344 38.3607C 1.92738 38.2509 1.49133 38.4705 1.32782 38.9097C 1.27331 39.1293 0.346698 42.0387 0.237685 45.9363C 0.0196594 46.1559 -0.0348438 46.4304 0.0196627 46.7049C 0.0741692 46.8696 0.128672 46.9794 0.237685 47.0343C 0.292192 49.5046 0.619238 52.2493 1.70937 54.8843C 1.81838 55.2137 2.14542 55.3784 2.47246 55.3784C 2.58147 55.3784 2.69048 55.3784 2.7995 55.3235C 3.23555 55.1588 3.45357 54.6648 3.23554 54.2256C 2.25443 51.8102 1.92739 49.285 1.92739 46.9794C 4.92525 45.9912 14.7364 42.0936 16.9712 31.1694C 18.4429 24.0329 16.0446 18.6531 13.8098 15.3594C 11.3025 11.6265 7.59607 8.82678 3.88963 7.72887Z"/>
<path id="path7_fill" d="M 27.0769 8.63961C 27.5129 8.47492 27.6764 7.98086 27.5129 7.59659C 27.3494 7.15742 26.8588 6.99274 26.4228 7.15742C 26.3683 7.15742 22.2258 8.6945 13.6683 2.82066C 10.1253 0.405241 6.96397 -0.47309 4.29315 0.240555C 1.3498 1.0091 0.0961587 3.42451 0.0961587 3.5343C -0.121867 3.91857 0.0416422 4.46753 0.477694 4.63222C 0.913746 4.8518 1.4043 4.68711 1.56782 4.24794C 1.56782 4.24794 2.49444 2.43639 4.72921 1.83253C 6.96398 1.22868 9.63479 2.05211 12.7962 4.19305C 18.6829 8.20044 22.7163 9.02388 24.9511 9.02388C 26.3138 8.96898 26.9679 8.63961 27.0769 8.63961Z"/>
<path id="path8_fill" d="M 3.20375 9.04559C 3.25825 9.42986 3.5308 9.75923 3.96685 9.75923C 4.02136 9.75923 8.00032 10.3082 11.7068 17.774C 11.8703 18.0485 12.1428 18.2132 12.4699 18.2132C 12.5789 18.2132 12.7424 18.1583 12.8514 18.1034C 13.2329 17.8838 13.3965 17.3897 13.233 17.0055C 9.90806 10.3631 6.31062 8.66132 4.83894 8.22215C 4.23937 4.54414 1.62307 0.536741 1.51406 0.372053C 1.24153 -0.0122173 0.750964 -0.122008 0.369419 0.152471C -0.0121265 0.42695 -0.121136 0.921012 0.151396 1.30528C 0.0968898 1.36018 2.87671 5.58715 3.20375 9.04559Z"/>
<path id="path9_fill" d="M 0.477694 8.36514C 0.586707 8.42003 0.695727 8.47493 0.859246 8.47493C 1.18629 8.47493 1.45881 8.31024 1.56782 8.03576C 1.73134 7.70638 5.4923 0.515037 14.5949 1.83254C 15.0309 1.88743 15.467 1.61295 15.5215 1.11889C 15.576 0.679723 15.3035 0.240559 14.8129 0.185663C 4.45667 -1.35142 0.0961503 7.15743 0.0961503 7.26722C -0.121876 7.65149 0.0416422 8.14555 0.477694 8.36514Z"/>
<path id="path10_fill" d="M 7.00408 0.00598576C 6.56803 0.0608815 6.241 0.500046 6.2955 0.939213C 6.2955 1.049 7.49464 11.3694 0.245279 18.451C -0.0817598 18.7803 -0.0817598 19.2744 0.245279 19.6038C 0.408799 19.7685 0.626828 19.8783 0.844854 19.8783C 1.06288 19.8783 1.2264 19.8234 1.38992 19.6587C 9.29336 12.0282 7.9852 1.21369 7.9307 0.719633C 7.87619 0.280466 7.44013 -0.04891 7.00408 0.00598576Z"/>
<path id="path11_fill" d="M 8.20808 18.8567C 7.22696 19.241 6.40936 19.6801 5.64627 20.1193C 8.75314 6.72473 2.59392 0.521508 2.32139 0.247029C 1.99435 -0.0823454 1.50379 -0.0823454 1.17675 0.247029C 0.849707 0.576404 0.849707 1.12537 1.17675 1.39984C 1.23125 1.45474 7.44499 7.76775 3.57503 21.5466C 1.17674 23.5228 0.141123 25.554 0.0866163 25.6638C -0.13141 26.1029 0.0866063 26.597 0.468152 26.7617C 0.577165 26.8166 0.686181 26.8166 0.795194 26.8166C 1.12223 26.8166 1.39476 26.6519 1.55828 26.3225C 1.55828 26.2676 3.46602 22.37 8.80766 20.284C 9.24371 20.1193 9.46173 19.6252 9.29821 19.241C 9.08019 18.9116 8.58963 18.692 8.20808 18.8567Z"/>
<path id="path12_fill" d="M 9.35073 32.4744C 20.4701 25.2831 26.7928 20.7816 26.1932 12.9315C 25.8662 8.70456 27.3379 4.64227 29.8452 2.77582C 31.4259 1.62301 33.2791 1.40342 35.1868 2.17196C 35.6229 2.33665 36.1134 2.11707 36.2769 1.6779C 36.4405 1.23874 36.2224 0.744674 35.7864 0.579986C 33.2791 -0.408138 30.8808 -0.133659 28.8641 1.40342C 25.8662 3.65415 24.1765 8.2105 24.558 13.0413C 25.0486 19.6288 20.034 23.5813 8.47863 31.0471C -3.4583 38.7326 0.6842 51.4684 0.738706 51.6331C 0.847719 51.9624 1.17476 52.182 1.5018 52.182C 1.61081 52.182 1.66532 52.182 1.77433 52.1271C 2.21038 51.9624 2.42841 51.5233 2.26489 51.0841C 2.10137 50.6449 -1.49606 39.4462 9.35073 32.4744Z"/>
<path id="path13_fill" d="M 6.54759 9.03089C 6.54759 8.97599 7.85575 3.37662 13.1429 1.61996C 13.5789 1.45527 13.797 1.0161 13.6879 0.576936C 13.5244 0.137769 13.0884 -0.0818138 12.6523 0.0279778C 7.58322 1.72975 5.67549 6.34099 5.13042 8.04276C 2.13257 8.31724 0.279347 10.7327 0.170334 10.7876C -0.102199 11.1718 -0.0476948 11.6659 0.333851 11.9404C 0.49737 12.0502 0.66089 12.1051 0.82441 12.1051C 1.04244 12.1051 1.31497 11.9953 1.47849 11.7757C 1.47849 11.7757 3.2227 9.63474 5.7845 9.63474C 6.11154 9.68964 6.43858 9.41516 6.54759 9.03089Z"/>
<path id="path14_fill" d="M 3.43904 0.171553C -1.63006 4.06915 0.386678 10.4371 0.441185 10.492C 0.550198 10.8213 0.877235 11.0409 1.20427 11.0409C 1.31329 11.0409 1.36779 11.0409 1.47681 10.986C 1.91286 10.8213 2.13088 10.3822 2.02187 9.943C 1.96737 9.72341 0.332171 4.673 4.47466 1.48905C 4.85621 1.21457 4.91072 0.665608 4.63818 0.336233C 4.31114 -0.0480372 3.82059 -0.102926 3.43904 0.171553Z"/>
</defs>
</svg>
