<svg width="30" height="21" viewBox="0 0 30 21" version="1.1" xmlns="http://www.w3.org/2000/svg" xmlns:xlink="http://www.w3.org/1999/xlink">
  <g id="Canvas" transform="translate(710 -219)">
    <rect x="-710" y="219" width="30" height="21" fill="#F4F4F4"/>
    <clipPath id="clip-0" clip-rule="evenodd">
      <path d="M -732 192L 708 192L 708 892L -732 892L -732 192Z" fill="#FFFFFF"/>
    </clipPath>
    <g id="about-desktop" clip-path="url(#clip-0)">
      <path d="M -732 192L 708 192L 708 892L -732 892L -732 192Z" fill="#FFFFFF"/>
      <g id="crew-87250">
        <use xlink:href="#path0_fill" fill="url(#pattern0)" transform="translate(-732 192)"/>
        <use xlink:href="#path0_fill" transform="translate(-732 192)" fill="url(#paint1_linear)"/>
      </g>
      <g id="Header">
        <g id="menu">
          <g id="Rectangle">
            <use xlink:href="#path1_fill" transform="translate(-732 192)"/>
          </g>
          <g id="Vector">
            <use xlink:href="#path2_fill" transform="translate(-710 219)" fill="url(#paint3_linear)"/>
          </g>
        </g>
      </g>
    </g>
  </g>
  <defs>
    <pattern id="pattern0" patternUnits="objectBoundingBox" patternContentUnits="objectBoundingBox" width="1" height="1">
      <use xlink:href="#image0" transform="matrix(0.000289352 0 0 0.000595238 0 -0.185714)"/>
    </pattern>
    <linearGradient id="paint1_linear" x1="0" y1="0" x2="1" y2="0" gradientUnits="userSpaceOnUse" gradientTransform="matrix(8.81746e-14 700 -1440 4.28626e-14 1440 -4.28626e-14)">
      <stop offset="0" stop-color="#111111" stop-opacity="0.83"/>
      <stop offset="0.38674" stop-color="#111111" stop-opacity="0.27"/>
      <stop offset="0.563536" stop-color="#111111" stop-opacity="0.335047"/>
      <stop offset="0.994475" stop-color="#111111" stop-opacity="0.56"/>
    </linearGradient>
    <linearGradient id="paint3_linear" x1="0" y1="0" x2="1" y2="0" gradientUnits="userSpaceOnUse" gradientTransform="matrix(22.601 16.0866 -22.9809 15.6696 15.4279 -5.92573)">
      <stop offset="0" stop-color="#E9B760"/>
      <stop offset="0.138122" stop-color="#F7F2A8"/>
      <stop offset="0.39779" stop-color="#FDDC7E"/>
      <stop offset="0.790055" stop-color="#E4B25B"/>
      <stop offset="0.98895" stop-color="#F6CA6B"/>
    </linearGradient>
    <path id="path0_fill" d="M 0 0 L 1440 0L 1440 700L 0 700L 0 0Z"/>
    <path id="path1_fill" d="M 0 0L 75 0L 75 75L 0 75L 0 0Z"/>
    <path id="path2_fill" d="M 0,21 L 30,21 L30,17.5 L 0 17.5L 0 21Z M 0 12.25L 30 12.25L 30 8.75L 0 8.75L 0 12.25Z M 0 0L 0 3.5L 30 3.5L 30 0L 0 0Z"/>
  </defs>
</svg>
