<svg width="25" height="25" viewBox="0 0 25 25" version="1.1" xmlns="http://www.w3.org/2000/svg" xmlns:xlink="http://www.w3.org/1999/xlink">
<title>Vector</title>
<desc>Created using Figma</desc>
<g id="Canvas" transform="translate(-4462 194)">
<g id="Vector">
<use xlink:href="#path0_fill" transform="translate(4462 -194)" fill="#111111"/>
<use xlink:href="#path0_fill" transform="translate(4462 -194)" fill="url(#paint1_linear)"/>
</g>
</g>
<defs>
<linearGradient id="paint1_linear" x1="0" y1="0" x2="1" y2="0" gradientUnits="userSpaceOnUse" gradientTransform="matrix(18.8341 19.1507 -19.1507 18.6543 12.8566 -7.05444)">
<stop offset="0" stop-color="#E9B760"/>
<stop offset="0.138122" stop-color="#F7F2A8"/>
<stop offset="0.39779" stop-color="#FDDC7E"/>
<stop offset="0.790055" stop-color="#E4B25B"/>
<stop offset="0.98895" stop-color="#F6CA6B"/>
</linearGradient>
<path id="path0_fill" d="M 5.02778 10.8194C 7.02778 14.75 10.25 17.9583 14.1806 19.9722L 17.2361 16.9167C 17.6111 16.5417 18.1667 16.4167 18.6528 16.5833C 20.2083 17.0972 21.8889 17.375 23.6111 17.375C 24.375 17.375 25 18 25 18.7639L 25 23.6111C 25 24.375 24.375 25 23.6111 25C 10.5694 25 0 14.4306 0 1.38889C 0 0.625 0.625 0 1.38889 0L 6.25 0C 7.01389 0 7.63889 0.625 7.63889 1.38889C 7.63889 3.125 7.91667 4.79167 8.43056 6.34722C 8.58333 6.83333 8.47222 7.375 8.08333 7.76389L 5.02778 10.8194Z"/>
</defs>
</svg>
