<svg width="25" height="25" viewBox="0 0 25 25" version="1.1" xmlns="http://www.w3.org/2000/svg" xmlns:xlink="http://www.w3.org/1999/xlink">
<title>Group 12</title>
<desc>Created using Figma</desc>
<g id="Canvas" transform="translate(-4856 190)">
<g id="Group 12">
<g id="Vector">
<use xlink:href="#path0_fill" transform="translate(4856 -190)" fill="#111111"/>
<use xlink:href="#path0_fill" transform="translate(4856 -190)" fill="url(#paint1_linear)"/>
</g>
<g id="Vector">
<use xlink:href="#path1_fill" transform="translate(4867.25 -183.75)" fill="#111111"/>
<use xlink:href="#path1_fill" transform="translate(4867.25 -183.75)" fill="url(#paint3_linear)"/>
</g>
</g>
</g>
<defs>
<linearGradient id="paint1_linear" x1="0" y1="0" x2="1" y2="0" gradientUnits="userSpaceOnUse" gradientTransform="matrix(18.8341 19.1507 -19.1507 18.6543 12.8566 -7.05444)">
<stop offset="0" stop-color="#E9B760"/>
<stop offset="0.138122" stop-color="#F7F2A8"/>
<stop offset="0.39779" stop-color="#FDDC7E"/>
<stop offset="0.790055" stop-color="#E4B25B"/>
<stop offset="0.98895" stop-color="#F6CA6B"/>
</linearGradient>
<linearGradient id="paint3_linear" x1="0" y1="0" x2="1" y2="0" gradientUnits="userSpaceOnUse" gradientTransform="matrix(5.65024 8.76145 -5.74522 8.53436 3.85698 -3.22741)">
<stop offset="0" stop-color="#E9B760"/>
<stop offset="0.138122" stop-color="#F7F2A8"/>
<stop offset="0.39779" stop-color="#FDDC7E"/>
<stop offset="0.790055" stop-color="#E4B25B"/>
<stop offset="0.98895" stop-color="#F6CA6B"/>
</linearGradient>
<path id="path0_fill" d="M 12.4875 0C 5.5875 0 0 5.6 0 12.5C 0 19.4 5.5875 25 12.4875 25C 19.4 25 25 19.4 25 12.5C 25 5.6 19.4 0 12.4875 0ZM 12.5 22.5C 6.975 22.5 2.5 18.025 2.5 12.5C 2.5 6.975 6.975 2.5 12.5 2.5C 18.025 2.5 22.5 6.975 22.5 12.5C 22.5 18.025 18.025 22.5 12.5 22.5Z"/>
<path id="path1_fill" d="M 1.875 0L 0 0L 0 7.5L 6.5625 11.4375L 7.5 9.9L 1.875 6.5625L 1.875 0Z"/>
</defs>
</svg>
