<svg width="43" height="42" viewBox="0 0 43 42" version="1.1" xmlns="http://www.w3.org/2000/svg" xmlns:xlink="http://www.w3.org/1999/xlink">
<title>Vector</title>
<desc>Created using Figma</desc>
<g id="Canvas" transform="translate(-997 -9829)">
<g id="Vector">
<use xlink:href="#path0_fill" transform="translate(997 9829)"/>
<use xlink:href="#path0_fill" transform="translate(997 9829)" fill="url(#paint1_linear)"/>
</g>
</g>
<defs>
<linearGradient id="paint1_linear" x1="0" y1="0" x2="1" y2="0" gradientUnits="userSpaceOnUse" gradientTransform="matrix(31.7535 32.1732 -32.2872 31.3393 21.6756 -11.8515)">
<stop offset="0" stop-color="#E9B760"/>
<stop offset="0.138122" stop-color="#F7F2A8"/>
<stop offset="0.39779" stop-color="#FDDC7E"/>
<stop offset="0.790055" stop-color="#E4B25B"/>
<stop offset="0.98895" stop-color="#F6CA6B"/>
</linearGradient>
<path id="path0_fill" fill-rule="evenodd" d="M 21.0744 0C 15.3501 0 14.6335 0.02625 12.3865 0.126C 10.1421 0.231 8.61416 0.58275 7.27067 1.1025C 5.88503 1.638 4.7075 2.35725 3.53787 3.52538C 2.3656 4.69088 1.64117 5.86162 1.10641 7.245C 0.584815 8.58375 0.229184 10.1063 0.126446 12.3428C 0.0210744 14.5819 0 15.2959 0 21C 0 26.7041 0.026343 27.4181 0.126446 29.6573C 0.231818 31.8938 0.584815 33.4189 1.10641 34.755C 1.6438 36.1357 2.3656 37.3091 3.53787 38.4746C 4.7075 39.6427 5.88239 40.3646 7.27067 40.8975C 8.61416 41.4173 10.1421 41.7716 12.3865 41.874C 14.6335 41.979 15.3501 42 21.0744 42C 26.7987 42 27.5153 41.9737 29.7623 41.874C 32.0068 41.769 33.5373 41.4173 34.8781 40.8975C 36.2638 40.362 37.4413 39.6427 38.6109 38.4746C 39.7832 37.3091 40.5076 36.1384 41.0424 34.755C 41.564 33.4162 41.9196 31.8938 42.0224 29.6573C 42.1277 27.4181 42.1488 26.7041 42.1488 21C 42.1488 15.2959 42.1225 14.5819 42.0224 12.3428C 41.917 10.1063 41.564 8.58113 41.0424 7.245C 40.505 5.86425 39.7832 4.69088 38.6109 3.52538C 37.4413 2.35725 36.2664 1.63537 34.8781 1.1025C 33.5346 0.58275 32.0068 0.228375 29.7623 0.126C 27.5153 0.021 26.7987 0 21.0744 0ZM 21.0744 3.78C 26.7013 3.78 27.3704 3.80625 29.5911 3.906C 31.6459 4.0005 32.7602 4.34175 33.503 4.6305C 34.4883 5.01113 35.189 5.46525 35.9266 6.20025C 36.6642 6.93525 37.1199 7.6335 37.5019 8.61525C 37.7917 9.3555 38.1341 10.4659 38.229 12.5134C 38.3291 14.7289 38.3528 15.393 38.3528 21C 38.3528 26.607 38.3264 27.2738 38.2211 29.4866C 38.1157 31.5341 37.7732 32.6445 37.4835 33.3848C 37.0883 34.3665 36.6405 35.0648 35.9029 35.7997C 35.1653 36.5347 34.454 36.9889 33.4793 37.3695C 32.7417 37.6582 31.609 37.9995 29.5542 38.094C 27.3151 38.1937 26.6565 38.2174 21.0191 38.2174C 15.3817 38.2174 14.7231 38.1911 12.484 38.0861C 10.4292 37.9811 9.29645 37.6399 8.55884 37.3511C 7.55781 36.9574 6.87289 36.5111 6.13529 35.7761C 5.39768 35.0411 4.92351 34.3324 4.55471 33.3611C 4.26493 32.6261 3.92247 31.4974 3.8171 29.4499C 3.73807 27.2449 3.71173 26.5624 3.71173 20.9711C 3.71173 15.3799 3.73807 14.6974 3.8171 12.4661C 3.92247 10.4186 4.26493 9.28988 4.55471 8.55488C 4.92351 7.55737 5.39768 6.87488 6.13529 6.13987C 6.87289 5.40487 7.55781 4.93237 8.55884 4.56488C 9.29645 4.27612 10.4029 3.93488 12.4576 3.82987C 14.6968 3.75113 15.3553 3.72487 20.9927 3.72487L 21.0744 3.78ZM 21.0744 10.2165C 15.0945 10.2165 10.2527 15.0465 10.2527 21C 10.2527 26.9587 15.0998 31.7835 21.0744 31.7835C 27.0543 31.7835 31.8961 26.9535 31.8961 21C 31.8961 15.0413 27.049 10.2165 21.0744 10.2165ZM 21.0744 28.0009C 17.1941 28.0009 14.0487 24.8666 14.0487 21C 14.0487 17.1334 17.1941 13.9991 21.0744 13.9991C 24.9547 13.9991 28.1001 17.1334 28.1001 21C 28.1001 24.8666 24.9547 28.0009 21.0744 28.0009ZM 34.8518 9.79125C 34.8518 11.1825 33.7191 12.3112 32.3229 12.3112C 30.9267 12.3112 29.7939 11.1825 29.7939 9.79125C 29.7939 8.4 30.9267 7.27125 32.3229 7.27125C 33.7191 7.27125 34.8518 8.4 34.8518 9.79125Z"/>
</defs>
</svg>
