<svg width="42" height="38" viewBox="0 0 42 38" version="1.1" xmlns="http://www.w3.org/2000/svg" xmlns:xlink="http://www.w3.org/1999/xlink">
<title>Vector</title>
<desc>Created using Figma</desc>
<g id="Canvas" transform="translate(-6489 -9898)">
<g id="Vector">
<use xlink:href="#path0_fill" transform="translate(6489 9898)"/>
<use xlink:href="#path0_fill" transform="translate(6489 9898)" fill="url(#paint1_linear)"/>
</g>
</g>
<defs>
<linearGradient id="paint1_linear" x1="0" y1="0" x2="1" y2="0" gradientUnits="userSpaceOnUse" gradientTransform="matrix(31.6413 29.1091 -32.1732 28.3546 21.5991 -10.7227)">
<stop offset="0" stop-color="#E9B760"/>
<stop offset="0.138122" stop-color="#F7F2A8"/>
<stop offset="0.39779" stop-color="#FDDC7E"/>
<stop offset="0.790055" stop-color="#E4B25B"/>
<stop offset="0.98895" stop-color="#F6CA6B"/>
</linearGradient>
<path id="path0_fill" d="M 0 38L 7.63636 38L 7.63636 15.2L 0 15.2L 0 38ZM 42 17.1C 42 15.01 40.2818 13.3 38.1818 13.3L 26.1355 13.3L 27.9491 4.617L 28.0064 4.009C 28.0064 3.23 27.6818 2.508 27.1664 1.995L 25.1427 0L 12.5809 12.521C 11.8745 13.205 11.4545 14.155 11.4545 15.2L 11.4545 34.2C 11.4545 36.29 13.1727 38 15.2727 38L 32.4545 38C 34.0391 38 35.3945 37.05 35.9673 35.682L 41.7327 22.287C 41.9045 21.85 42 21.394 42 20.9L 42 17.271L 41.9809 17.252L 42 17.1Z"/>
</defs>
</svg>
