<svg width="26" height="32" viewBox="0 0 26 32" version="1.1" xmlns="http://www.w3.org/2000/svg" xmlns:xlink="http://www.w3.org/1999/xlink">
<title>ic_find_in_page_black_24px</title>
<desc>Created using Figma</desc>
<g id="Canvas" transform="translate(-18248 -19223)">
<g id="ic_find_in_page_black_24px">
<g id="Vector">
<use xlink:href="#path0_fill" transform="translate(18248.3 19223.2)"/>
<use xlink:href="#path0_fill" transform="translate(18248.3 19223.2)" fill="url(#paint1_linear)"/>
</g>
</g>
</g>
<defs>
<linearGradient id="paint1_linear" x1="0" y1="0" x2="1" y2="0" gradientUnits="userSpaceOnUse" gradientTransform="matrix(19.0853 24.2576 -19.4061 23.6288 13.028 -8.93562)">
<stop offset="0" stop-color="#E9B760"/>
<stop offset="0.138122" stop-color="#F7F2A8"/>
<stop offset="0.39779" stop-color="#FDDC7E"/>
<stop offset="0.790055" stop-color="#E4B25B"/>
<stop offset="0.98895" stop-color="#F6CA6B"/>
</linearGradient>
<path id="path0_fill" d="M 25.3333 27.8508L 25.3333 9.5L 15.8333 0L 3.16667 0C 1.425 0 0.0158337 1.425 0.0158337 3.16667L 0 28.5C 0 30.2417 1.40917 31.6667 3.15083 31.6667L 22.1667 31.6667C 22.8792 31.6667 23.5125 31.4292 24.0508 31.0333L 17.0367 24.0192C 15.77 24.8425 14.2817 25.3333 12.6667 25.3333C 8.29667 25.3333 4.75 21.7867 4.75 17.4167C 4.75 13.0467 8.29667 9.5 12.6667 9.5C 17.0367 9.5 20.5833 13.0467 20.5833 17.4167C 20.5833 19.0317 20.0925 20.52 19.2692 21.7708L 25.3333 27.8508ZM 7.91667 17.4167C 7.91667 20.045 10.0383 22.1667 12.6667 22.1667C 15.295 22.1667 17.4167 20.045 17.4167 17.4167C 17.4167 14.7883 15.295 12.6667 12.6667 12.6667C 10.0383 12.6667 7.91667 14.7883 7.91667 17.4167Z"/>
</defs>
</svg>
