<svg width="64" height="53" viewBox="0 0 64 53" version="1.1" xmlns="http://www.w3.org/2000/svg" xmlns:xlink="http://www.w3.org/1999/xlink">
<title>Vector</title>
<desc>Created using Figma</desc>
<g id="Canvas" transform="translate(-9344 -7818)">
<g id="Vector">
<use xlink:href="#path0_fill" transform="translate(9344 7818)"/>
<use xlink:href="#path0_fill" transform="translate(9344 7818)" fill="url(#paint1_linear)"/>
</g>
</g>
<defs>
<linearGradient id="paint1_linear" x1="0" y1="0" x2="1" y2="0" gradientUnits="userSpaceOnUse" gradientTransform="matrix(48.0407 39.9867 -48.8482 38.9502 32.7937 -14.7297)">
<stop offset="0" stop-color="#E9B760"/>
<stop offset="0.138122" stop-color="#F7F2A8"/>
<stop offset="0.39779" stop-color="#FDDC7E"/>
<stop offset="0.790055" stop-color="#E4B25B"/>
<stop offset="0.98895" stop-color="#F6CA6B"/>
</linearGradient>
<path id="path0_fill" d="M 57.971 0L 5.7971 0C 2.6087 0 0 2.61 0 5.8L 0 40.6C 0 43.79 2.6087 46.4 5.7971 46.4L 20.2899 46.4L 20.2899 52.2L 43.4783 52.2L 43.4783 46.4L 57.971 46.4C 61.1594 46.4 63.7391 43.79 63.7391 40.6L 63.7681 5.8C 63.7681 2.61 61.1594 0 57.971 0ZM 57.971 40.6L 5.7971 40.6L 5.7971 5.8L 57.971 5.8L 57.971 40.6ZM 52.1739 14.5L 20.2899 14.5L 20.2899 20.3L 52.1739 20.3L 52.1739 14.5ZM 52.1739 26.1L 20.2899 26.1L 20.2899 31.9L 52.1739 31.9L 52.1739 26.1ZM 17.3913 14.5L 11.5942 14.5L 11.5942 20.3L 17.3913 20.3L 17.3913 14.5ZM 17.3913 26.1L 11.5942 26.1L 11.5942 31.9L 17.3913 31.9L 17.3913 26.1Z"/>
</defs>
</svg>
