<svg width="53" height="53" viewBox="0 0 53 53" version="1.1" xmlns="http://www.w3.org/2000/svg" xmlns:xlink="http://www.w3.org/1999/xlink">
<title>Vector</title>
<desc>Created using Figma</desc>
<g id="Canvas" transform="translate(-10122 -8038)">
<g id="Vector">
<use xlink:href="#path0_fill" transform="translate(10122 8038)"/>
<use xlink:href="#path0_fill" transform="translate(10122 8038)" fill="url(#paint1_linear)"/>
</g>
</g>
<defs>
<linearGradient id="paint1_linear" x1="0" y1="0" x2="1" y2="0" gradientUnits="userSpaceOnUse" gradientTransform="matrix(39.306 39.9867 -39.9667 38.9502 26.8312 -14.7297)">
<stop offset="0" stop-color="#E9B760"/>
<stop offset="0.138122" stop-color="#F7F2A8"/>
<stop offset="0.39779" stop-color="#FDDC7E"/>
<stop offset="0.790055" stop-color="#E4B25B"/>
<stop offset="0.98895" stop-color="#F6CA6B"/>
</linearGradient>
<path id="path0_fill" d="M 0 5.8L 5.7971 5.8L 5.7971 0C 2.6087 0 0 2.61 0 5.8ZM 0 29L 5.7971 29L 5.7971 23.2L 0 23.2L 0 29ZM 11.5942 52.2L 17.3913 52.2L 17.3913 46.4L 11.5942 46.4L 11.5942 52.2ZM 0 17.4L 5.7971 17.4L 5.7971 11.6L 0 11.6L 0 17.4ZM 28.9855 0L 23.1884 0L 23.1884 5.8L 28.9855 5.8L 28.9855 0ZM 46.3768 0L 46.3768 5.8L 52.1739 5.8C 52.1739 2.61 49.5652 0 46.3768 0ZM 5.7971 52.2L 5.7971 46.4L 0 46.4C 0 49.59 2.6087 52.2 5.7971 52.2ZM 0 40.6L 5.7971 40.6L 5.7971 34.8L 0 34.8L 0 40.6ZM 17.3913 0L 11.5942 0L 11.5942 5.8L 17.3913 5.8L 17.3913 0ZM 23.1884 52.2L 28.9855 52.2L 28.9855 46.4L 23.1884 46.4L 23.1884 52.2ZM 46.3768 29L 52.1739 29L 52.1739 23.2L 46.3768 23.2L 46.3768 29ZM 46.3768 52.2C 49.5652 52.2 52.1739 49.59 52.1739 46.4L 46.3768 46.4L 46.3768 52.2ZM 46.3768 17.4L 52.1739 17.4L 52.1739 11.6L 46.3768 11.6L 46.3768 17.4ZM 46.3768 40.6L 52.1739 40.6L 52.1739 34.8L 46.3768 34.8L 46.3768 40.6ZM 34.7826 52.2L 40.5797 52.2L 40.5797 46.4L 34.7826 46.4L 34.7826 52.2ZM 34.7826 5.8L 40.5797 5.8L 40.5797 0L 34.7826 0L 34.7826 5.8ZM 11.5942 40.6L 40.5797 40.6L 40.5797 11.6L 11.5942 11.6L 11.5942 40.6ZM 17.3913 17.4L 34.7826 17.4L 34.7826 34.8L 17.3913 34.8L 17.3913 17.4Z"/>
</defs>
</svg>
