<svg width="18" height="32" viewBox="0 0 18 32" version="1.1" xmlns="http://www.w3.org/2000/svg" xmlns:xlink="http://www.w3.org/1999/xlink">
<title>Vector</title>
<desc>Created using Figma</desc>
<g id="Canvas" transform="translate(-5234 301)">
<g id="Vector">
<use xlink:href="#path0_fill" transform="matrix(-4.37114e-08 -1 -1 4.37114e-08 5251.2 -269)" fill="url(#paint0_linear)"/>
</g>
</g>
<defs>
<linearGradient id="paint0_linear" x1="0" y1="0" x2="1" y2="0" gradientUnits="userSpaceOnUse" gradientTransform="matrix(23.6557 13.1757 -24.0533 12.8342 16.1479 -4.85345)">
<stop offset="0" stop-color="#E9B760"/>
<stop offset="0.127072" stop-color="#EEE341"/>
<stop offset="0.39779" stop-color="#FDDC7E"/>
<stop offset="0.790055" stop-color="#E4B25B"/>
<stop offset="0.98895" stop-color="#F6CA6B"/>
</linearGradient>
<path id="path0_fill" d="M 30.05 17.15C 29.65 17.15 29.25 17.05 28.95 16.75L 15.75 3.55L 2.55 16.75C 1.95 17.35 1.05 17.35 0.449997 16.75C -0.150003 16.15 -0.150003 15.25 0.449997 14.65L 14.65 0.450006C 15.25 -0.149994 16.15 -0.149994 16.75 0.450006L 30.95 14.65C 31.55 15.25 31.55 16.15 30.95 16.75C 30.85 16.95 30.45 17.15 30.05 17.15Z"/>
</defs>
</svg>
