<svg width="17" height="14" viewBox="0 0 17 14" version="1.1" xmlns="http://www.w3.org/2000/svg" xmlns:xlink="http://www.w3.org/1999/xlink">
    <g id="Canvas" transform="translate(-1459 -810)">
        <g id="Vector">
            <use xlink:href="#path0_fill" transform="translate(1459 810)" fill="#FFFFFF"/>
        </g>
    </g>
    <defs>
        <path id="path0_fill" d="M 16.9671 1.65227C 16.3406 1.9296 15.6716 2.1184 14.9655 2.20373C 15.6844 1.7696 16.2376 1.08373 16.4978 0.266667C 15.8245 0.661333 15.0781 0.949334 14.2838 1.10933C 13.6488 0.426667 12.7442 0 11.7397 0C 9.81561 0 8.25472 1.568 8.25472 3.49867C 8.25472 3.776 8.19631 8.10987 8.25472 8.36587C 5.35803 8.2272 2.8797 2.76267 1.16059 0.650667C 0.859026 1.16373 0.689132 1.76107 0.689132 2.41173C 0.689132 3.62773 1.305 4.6976 2.23941 5.32587C 1.66815 5.30773 1.12979 5.14987 0.660462 4.88853L 0.660462 4.9312C 0.660462 6.6272 1.86034 8.04373 3.45628 8.36587C 3.16321 8.4448 2.85528 8.48747 2.53779 8.48747C 2.3148 8.48747 2.10244 8.46613 1.89007 8.4256C 2.33604 9.81653 1.92723 8.33707 3.45628 8.36587C 2.26702 9.30453 2.45284 12.3552 0.828232 12.3552C 0.552155 12.3552 0.276077 12.3392 0 12.3072C 1.55028 13.2992 3.37664 13.8795 5.35166 13.8795C 11.7651 13.8795 15.2692 8.54613 15.2692 3.92747C 15.2692 3.77813 15.2692 3.6288 15.2586 3.47947C 15.9382 2.9888 16.5328 2.37013 17 1.66613L 16.9671 1.65227Z"/>
    </defs>
</svg>
