<svg width="37" height="35" viewBox="0 0 37 35" version="1.1" xmlns="http://www.w3.org/2000/svg" xmlns:xlink="http://www.w3.org/1999/xlink">
<title>ic_wb_incandescent_black_24px</title>
<desc>Created using Figma</desc>
<g id="Canvas" transform="translate(-18593 -19219)">
<g id="ic_wb_incandescent_black_24px">
<g id="Vector">
<use xlink:href="#path0_fill" transform="matrix(-1 0 0 -1 18629.4 19253.6)"/>
<use xlink:href="#path0_fill" transform="matrix(-1 0 0 -1 18629.4 19253.6)" fill="url(#paint1_linear)"/>
</g>
</g>
</g>
<defs>
<linearGradient id="paint1_linear" x1="0" y1="0" x2="1" y2="0" gradientUnits="userSpaceOnUse" gradientTransform="matrix(26.9328 26.0785 -27.3855 25.4025 18.385 -9.60638)">
<stop offset="0" stop-color="#E9B760"/>
<stop offset="0.138122" stop-color="#F7F2A8"/>
<stop offset="0.39779" stop-color="#FDDC7E"/>
<stop offset="0.790055" stop-color="#E4B25B"/>
<stop offset="0.98895" stop-color="#F6CA6B"/>
</linearGradient>
<path id="path0_fill" d="M 4.14375 27.69L 6.435 29.9813L 9.34375 27.0562L 7.0525 24.765L 4.14375 27.69ZM 16.25 34.0438L 19.5 34.0438L 19.5 29.25L 16.25 29.25L 16.25 34.0438ZM 4.875 14.625L 0 14.625L 0 17.875L 4.875 17.875L 4.875 14.625ZM 22.75 7.81625L 22.75 0L 13 0L 13 7.81625C 10.0913 9.50625 8.125 12.6425 8.125 16.25C 8.125 21.6287 12.4963 26 17.875 26C 23.2537 26 27.625 21.6287 27.625 16.25C 27.625 12.6425 25.6588 9.50625 22.75 7.81625ZM 30.875 14.625L 30.875 17.875L 35.75 17.875L 35.75 14.625L 30.875 14.625ZM 26.39 27.0725L 29.2988 29.9975L 31.59 27.7062L 28.665 24.7975L 26.39 27.0725Z"/>
</defs>
</svg>
