<svg width="111" height="41" viewBox="0 0 111 41" version="1.1" xmlns="http://www.w3.org/2000/svg" xmlns:xlink="http://www.w3.org/1999/xlink">
<title>Vector</title>
<desc>Created using Figma</desc>
<g id="Canvas" transform="translate(-1357 -8900)">
<g id="Vector">
<use xlink:href="#path0_fill" transform="translate(1357 8900)"/>
<use xlink:href="#path0_fill" transform="translate(1357 8900)" fill="url(#paint1_linear)"/>
</g>
</g>
<defs>
<linearGradient id="paint1_linear" x1="0" y1="0" x2="1" y2="0" gradientUnits="userSpaceOnUse" gradientTransform="matrix(83.6236 31.4072 -85.0292 30.5931 57.0833 -11.5693)">
<stop offset="0" stop-color="#E9B760"/>
<stop offset="0.138122" stop-color="#F7F2A8"/>
<stop offset="0.39779" stop-color="#FDDC7E"/>
<stop offset="0.790055" stop-color="#E4B25B"/>
<stop offset="0.98895" stop-color="#F6CA6B"/>
</linearGradient>
<path id="path0_fill" d="M 8.79675 40.6388L 8.79675 27.4399L 0 3.82074L 4.42613 3.82074L 10.9058 22.0561L 18.3636 1.325e-06L 22.422 1.325e-06L 12.8483 27.5996L 12.8483 40.6388L 8.81063 40.6388L 8.79675 40.6388ZM 34.8748 40.6388L 31.4754 40.6388C 31.3228 40.0622 31.1702 39.2494 31.1286 38.5686L 30.8649 38.5686C 29.7272 40.0136 28.2842 41 26.0087 41C 22.3179 41 19.7927 38.2213 19.7927 33.1084C 19.7927 27.551 22.6232 24.0498 29.8729 24.0498L 30.4417 24.0498L 30.4417 22.5076C 30.4417 19.1037 29.304 17.6588 27.0424 17.6588C 24.9819 17.6588 23.2267 18.7425 21.8947 19.9234L 21.1316 16.3805C 22.311 15.3941 24.6698 14.3104 27.306 14.3104C 31.8848 14.3104 34.3961 16.2694 34.3961 22.5563L 34.3961 34.7618C 34.3961 37.2348 34.6528 39.4022 34.8609 40.6318L 34.8748 40.6388ZM 30.4556 27.0925L 29.9908 27.0925C 24.9958 27.0925 23.9205 29.3155 23.9205 32.6499C 23.9205 35.6371 24.8918 37.5961 26.9522 37.5961C 28.3397 37.5961 29.7272 36.6652 30.4487 35.5329L 30.4487 27.0925L 30.4556 27.0925ZM 43.4149 40.6388L 39.3911 40.6388L 39.3911 14.6091L 43.4149 14.6091L 43.4149 16.8807L 43.6716 16.8807C 44.3861 15.9082 46.3425 14.3104 48.7637 14.3104C 52.1492 14.3104 53.946 16.2208 53.946 20.1804L 53.946 40.6388L 49.8876 40.6388L 49.8876 20.5417C 49.8876 18.5827 49.0134 17.9019 47.4594 17.9019C 45.7736 17.9019 44.3376 19.194 43.4079 20.4861L 43.4079 40.6318L 43.4149 40.6388ZM 57.9142 28.6347C 57.9142 18.9995 61.5218 14.3104 66.711 14.3104C 67.9459 14.3104 69.2293 14.7272 70.0063 15.283L 70.0063 3.82074L 74.0301 3.82074L 74.0301 40.6388L 71.0469 40.6388L 70.7278 38.5756L 70.4711 38.5756C 69.3403 40.0205 67.9043 40.9931 65.7883 40.9931C 60.7031 40.9931 57.9281 36.6721 57.9281 28.6416L 57.9142 28.6347ZM 70.0063 18.8397C 69.1946 18.0269 68.3136 17.6101 66.9746 17.6101C 63.7348 17.6101 62.1877 22.5007 62.1877 27.808C 62.1877 33.8865 63.3255 37.603 66.2601 37.603C 68.2719 37.603 69.3403 36.6166 70.0063 35.5884L 70.0063 18.8467L 70.0063 18.8397ZM 86.6771 41C 81.3353 41 78.033 36.7208 78.033 28.7389C 78.033 20.3889 80.3501 14.3104 85.8516 14.3104C 90.1736 14.3104 92.9972 17.5546 92.9972 26.37L 92.9972 28.5791L 82.2094 28.5791C 82.2094 34.4561 83.8536 37.5405 87.0448 37.5405C 89.3064 37.5405 90.9576 36.5124 91.9843 35.7899L 92.9139 38.8812C 91.2697 40.1664 89.2579 40.9931 86.691 40.9931L 86.6771 41ZM 82.251 25.2863L 88.8902 25.2863C 88.8902 20.8543 88.1687 17.6101 85.8516 17.6101C 83.3887 17.6101 82.5216 20.6528 82.2441 25.2863L 82.251 25.2863ZM 110.438 14.6716L 105.61 26.8285L 111 40.6388L 106.837 40.6388L 102.814 29.9199L 98.9149 40.6318L 94.9605 40.6318L 100.351 27.1828L 95.4669 14.6647L 99.6294 14.6647L 102.987 24.0915L 106.525 14.6577L 110.438 14.6577L 110.438 14.6716Z"/>
</defs>
</svg>
