<svg width="106" height="70" viewBox="0 0 106 70" version="1.1" xmlns="http://www.w3.org/2000/svg" xmlns:xlink="http://www.w3.org/1999/xlink">
<title>Vector</title>
<desc>Created using Figma</desc>
<g id="Canvas" transform="translate(-9242 -9656)">
<g id="Vector">
<use xlink:href="#path0_fill" transform="translate(9242 9656)" fill="url(#paint0_linear)"/>
</g>
</g>
<defs>
<linearGradient id="paint0_linear" x1="0" y1="0" x2="1" y2="0" gradientUnits="userSpaceOnUse" gradientTransform="matrix(79.8567 53.622 -81.199 52.2321 54.512 -19.7524)">
<stop offset="0" stop-color="#E9B760"/>
<stop offset="0.138122" stop-color="#F7F2A8"/>
<stop offset="0.39779" stop-color="#FDDC7E"/>
<stop offset="0.790055" stop-color="#E4B25B"/>
<stop offset="0.98895" stop-color="#F6CA6B"/>
</linearGradient>
<path id="path0_fill" d="M 17.6667 8.75L 97.1667 8.75L 97.1667 0L 17.6667 0C 12.8083 0 8.83333 3.9375 8.83333 8.75L 8.83333 56.875L 0 56.875L 0 70L 61.8333 70L 61.8333 56.875L 17.6667 56.875L 17.6667 8.75ZM 101.583 17.5L 75.0833 17.5C 72.6542 17.5 70.6667 19.4688 70.6667 21.875L 70.6667 65.625C 70.6667 68.0312 72.6542 70 75.0833 70L 101.583 70C 104.012 70 106 68.0312 106 65.625L 106 21.875C 106 19.4688 104.012 17.5 101.583 17.5ZM 97.1667 56.875L 79.5 56.875L 79.5 26.25L 97.1667 26.25L 97.1667 56.875Z"/>
</defs>
</svg>
