<svg width="521" height="7" viewBox="0 0 521 7" version="1.1" xmlns="http://www.w3.org/2000/svg" xmlns:xlink="http://www.w3.org/1999/xlink">
    <g id="Canvas" transform="translate(-1504 -879)">
        <g id="&#208;&#183;&#209;&#131;&#208;&#177;&#209;&#134;&#209;&#139; &#226;&#128;&#148; &#208;&#189;&#208;&#184;&#208;&#183;">
            <use xlink:href="#path0_fill" transform="translate(1504 879)" fill="#FFFFFF"/>
            <use xlink:href="#path1_fill" transform="translate(1504 879)" fill="#FFFFFF"/>
            <use xlink:href="#path2_fill" transform="translate(1504 879)" fill="#FFFFFF"/>
            <use xlink:href="#path3_fill" transform="translate(1504 879)" fill="#FFFFFF"/>
            <use xlink:href="#path4_fill" transform="translate(1504 879)" fill="#FFFFFF"/>
            <use xlink:href="#path5_fill" transform="translate(1504 879)" fill="#FFFFFF"/>
            <use xlink:href="#path6_fill" transform="translate(1504 879)" fill="#FFFFFF"/>
            <use xlink:href="#path7_fill" transform="translate(1504 879)" fill="#FFFFFF"/>
            <use xlink:href="#path8_fill" transform="translate(1504 879)" fill="#FFFFFF"/>
            <use xlink:href="#path9_fill" transform="translate(1504 879)" fill="#FFFFFF"/>
            <use xlink:href="#path10_fill" transform="translate(1504 879)" fill="#FFFFFF"/>
            <use xlink:href="#path11_fill" transform="translate(1504 879)" fill="#FFFFFF"/>
            <use xlink:href="#path12_fill" transform="translate(1504 879)" fill="#FFFFFF"/>
            <use xlink:href="#path13_fill" transform="translate(1504 879)" fill="#FFFFFF"/>
            <use xlink:href="#path14_fill" transform="translate(1504 879)" fill="#FFFFFF"/>
            <use xlink:href="#path15_fill" transform="translate(1504 879)" fill="#FFFFFF"/>
        </g>
    </g>
    <defs>
        <path id="path0_fill" d="M 16.2812 0L 32.5625 7L 0 7L 16.2812 0Z"/>
        <path id="path1_fill" d="M 48.8438 0L 65.125 7L 32.5625 7L 48.8438 0Z"/>
        <path id="path2_fill" d="M 81.4062 0L 97.6875 7L 65.125 7L 81.4062 0Z"/>
        <path id="path3_fill" d="M 113.969 0L 130.25 7L 97.6875 7L 113.969 0Z"/>
        <path id="path4_fill" d="M 146.531 0L 162.812 7L 130.25 7L 146.531 0Z"/>
        <path id="path5_fill" d="M 179.094 0L 195.375 7L 162.812 7L 179.094 0Z"/>
        <path id="path6_fill" d="M 211.656 0L 227.938 7L 195.375 7L 211.656 0Z"/>
        <path id="path7_fill" d="M 244.219 0L 260.5 7L 227.938 7L 244.219 0Z"/>
        <path id="path8_fill" d="M 276.781 0L 293.062 7L 260.5 7L 276.781 0Z"/>
        <path id="path9_fill" d="M 309.344 0L 325.625 7L 293.062 7L 309.344 0Z"/>
        <path id="path10_fill" d="M 341.906 0L 358.188 7L 325.625 7L 341.906 0Z"/>
        <path id="path11_fill" d="M 374.469 0L 390.75 7L 358.188 7L 374.469 0Z"/>
        <path id="path12_fill" d="M 407.031 0L 423.312 7L 390.75 7L 407.031 0Z"/>
        <path id="path13_fill" d="M 439.594 0L 455.875 7L 423.312 7L 439.594 0Z"/>
        <path id="path14_fill" d="M 472.156 0L 488.438 7L 455.875 7L 472.156 0Z"/>
        <path id="path15_fill" d="M 504.719 0L 521 7L 488.438 7L 504.719 0Z"/>
    </defs>
</svg>
