<svg width="30" height="30" viewBox="0 0 30 30" version="1.1" xmlns="http://www.w3.org/2000/svg" xmlns:xlink="http://www.w3.org/1999/xlink">
<title>ic_settings_applications_black_24px</title>
<desc>Created using Figma</desc>
<g id="Canvas" transform="translate(-18606 -19347)">
<g id="ic_settings_applications_black_24px">
<g id="Vector">
<use xlink:href="#path0_fill" transform="translate(18606 19347)"/>
<use xlink:href="#path0_fill" transform="translate(18606 19347)" fill="url(#paint1_linear)"/>
</g>
</g>
</g>
<defs>
<linearGradient id="paint1_linear" x1="0" y1="0" x2="1" y2="0" gradientUnits="userSpaceOnUse" gradientTransform="matrix(22.601 22.9809 -22.9809 22.3852 15.4279 -8.46533)">
<stop offset="0" stop-color="#E9B760"/>
<stop offset="0.138122" stop-color="#F7F2A8"/>
<stop offset="0.39779" stop-color="#FDDC7E"/>
<stop offset="0.790055" stop-color="#E4B25B"/>
<stop offset="0.98895" stop-color="#F6CA6B"/>
</linearGradient>
<path id="path0_fill" d="M 15 11.6667C 13.1667 11.6667 11.6667 13.1667 11.6667 15C 11.6667 16.8333 13.1667 18.3333 15 18.3333C 16.8333 18.3333 18.3333 16.8333 18.3333 15C 18.3333 13.1667 16.8333 11.6667 15 11.6667ZM 26.6667 0L 3.33333 0C 1.48333 0 0 1.5 0 3.33333L 0 26.6667C 0 28.5 1.48333 30 3.33333 30L 26.6667 30C 28.5167 30 30 28.5 30 26.6667L 30 3.33333C 30 1.5 28.5167 0 26.6667 0ZM 23.75 15C 23.75 15.3833 23.7167 15.7667 23.6667 16.1333L 26.1333 18.0667C 26.35 18.25 26.4167 18.5667 26.2667 18.8167L 23.9333 22.85C 23.7833 23.1 23.4833 23.2 23.2167 23.1L 20.3167 21.9333C 19.7167 22.4 19.05 22.7833 18.35 23.0833L 17.9167 26.1667C 17.8667 26.45 17.6167 26.6667 17.3333 26.6667L 12.6667 26.6667C 12.3833 26.6667 12.1333 26.45 12.0833 26.1833L 11.65 23.1C 10.9333 22.8 10.2833 22.4167 9.68333 21.95L 6.78333 23.1167C 6.51667 23.2167 6.21667 23.1167 6.06667 22.8667L 3.73333 18.8333C 3.58333 18.5833 3.65 18.2667 3.86667 18.0833L 6.33333 16.15C 6.28333 15.7667 6.25 15.3833 6.25 15C 6.25 14.6167 6.28333 14.2333 6.33333 13.8667L 3.86667 11.9333C 3.65 11.75 3.58333 11.4333 3.73333 11.1833L 6.06667 7.15C 6.21667 6.9 6.51667 6.8 6.78333 6.9L 9.68333 8.06667C 10.2833 7.6 10.95 7.21667 11.65 6.91667L 12.0833 3.83333C 12.1333 3.55 12.3833 3.33333 12.6667 3.33333L 17.3333 3.33333C 17.6167 3.33333 17.8667 3.55 17.9167 3.81667L 18.35 6.9C 19.0667 7.2 19.7167 7.58333 20.3167 8.05L 23.2167 6.88333C 23.4833 6.78333 23.7833 6.88333 23.9333 7.13333L 26.2667 11.1667C 26.4167 11.4167 26.35 11.7333 26.1333 11.9167L 23.6667 13.85C 23.7167 14.2333 23.75 14.6167 23.75 15Z"/>
</defs>
</svg>
