<svg width="33" height="34" viewBox="0 0 33 34" version="1.1" xmlns="http://www.w3.org/2000/svg" xmlns:xlink="http://www.w3.org/1999/xlink">
<title>Vector</title>
<desc>Created using Figma</desc>
<g id="Canvas" transform="translate(-997 -12574)">
<g id="Vector">
<use xlink:href="#path0_fill" transform="translate(997 12574.3)" fill="url(#paint0_linear)"/>
</g>
</g>
<defs>
<linearGradient id="paint0_linear" x1="0" y1="0" x2="1" y2="0" gradientUnits="userSpaceOnUse" gradientTransform="matrix(24.4269 25.5343 -24.8375 24.8724 16.6744 -9.40592)">
<stop offset="0" stop-color="#E9B760"/>
<stop offset="0.138122" stop-color="#F7F2A8"/>
<stop offset="0.39779" stop-color="#FDDC7E"/>
<stop offset="0.790055" stop-color="#E4B25B"/>
<stop offset="0.98895" stop-color="#F6CA6B"/>
</linearGradient>
<path id="path0_fill" d="M 28.5989 18.3C 28.6656 17.7667 28.7156 17.2333 28.7156 16.6667C 28.7156 16.1 28.6656 15.5667 28.5989 15.0333L 32.1156 12.2833C 32.4322 12.0333 32.5156 11.5833 32.3156 11.2167L 28.9822 5.45C 28.7822 5.08333 28.3322 4.95 27.9656 5.08333L 23.8156 6.75C 22.9489 6.08333 22.0156 5.53333 20.9989 5.11667L 20.3656 0.7C 20.3156 0.3 19.9656 0 19.5489 0L 12.8822 0C 12.4656 0 12.1156 0.3 12.0656 0.7L 11.4322 5.11667C 10.4156 5.53333 9.48222 6.1 8.61555 6.75L 4.46555 5.08333C 4.08222 4.93333 3.64889 5.08333 3.44889 5.45L 0.115553 11.2167C -0.101114 11.5833 -0.00111394 12.0333 0.315553 12.2833L 3.83222 15.0333C 3.76555 15.5667 3.71555 16.1167 3.71555 16.6667C 3.71555 17.2167 3.76555 17.7667 3.83222 18.3L 0.315553 21.05C -0.00111394 21.3 -0.0844475 21.75 0.115553 22.1167L 3.44889 27.8833C 3.64889 28.25 4.09889 28.3833 4.46555 28.25L 8.61555 26.5833C 9.48222 27.25 10.4156 27.8 11.4322 28.2167L 12.0656 32.6333C 12.1156 33.0333 12.4656 33.3333 12.8822 33.3333L 19.5489 33.3333C 19.9656 33.3333 20.3156 33.0333 20.3656 32.6333L 20.9989 28.2167C 22.0156 27.8 22.9489 27.2333 23.8156 26.5833L 27.9656 28.25C 28.3489 28.4 28.7822 28.25 28.9822 27.8833L 32.3156 22.1167C 32.5156 21.75 32.4322 21.3 32.1156 21.05L 28.5989 18.3ZM 16.2156 22.5C 12.9989 22.5 10.3822 19.8833 10.3822 16.6667C 10.3822 13.45 12.9989 10.8333 16.2156 10.8333C 19.4322 10.8333 22.0489 13.45 22.0489 16.6667C 22.0489 19.8833 19.4322 22.5 16.2156 22.5Z"/>
</defs>
</svg>
