<svg width="43" height="42" viewBox="0 0 43 42" version="1.1" xmlns="http://www.w3.org/2000/svg" xmlns:xlink="http://www.w3.org/1999/xlink">
<title>Vector</title>
<desc>Created using Figma</desc>
<g id="Canvas" transform="translate(-1051 -9829)">
<g id="Vector">
<use xlink:href="#path0_fill" transform="translate(1051.85 9829)"/>
<use xlink:href="#path0_fill" transform="translate(1051.85 9829)" fill="url(#paint1_linear)"/>
</g>
</g>
<defs>
<linearGradient id="paint1_linear" x1="0" y1="0" x2="1" y2="0" gradientUnits="userSpaceOnUse" gradientTransform="matrix(31.7535 32.1732 -32.2872 31.3393 21.6756 -11.8515)">
<stop offset="0" stop-color="#E9B760"/>
<stop offset="0.138122" stop-color="#F7F2A8"/>
<stop offset="0.39779" stop-color="#FDDC7E"/>
<stop offset="0.790055" stop-color="#E4B25B"/>
<stop offset="0.98895" stop-color="#F6CA6B"/>
</linearGradient>
<path id="path0_fill" d="M 39.8227 0L 2.32609 0C 1.04055 0 0 1.03688 0 2.31788L 0 39.6821C 0 40.9631 1.04055 42 2.32609 42L 22.5127 42L 22.5127 25.7355L 17.0176 25.7355L 17.0176 19.3988L 22.5127 19.3988L 22.5127 14.7184C 22.5127 9.29513 25.8372 6.34462 30.6949 6.34462C 33.021 6.34462 35.0204 6.51262 35.6026 6.59137L 35.6026 12.2614L 32.2307 12.2614C 29.5964 12.2614 29.0827 13.5214 29.0827 15.3589L 29.0827 19.4014L 35.3787 19.4014L 34.562 25.7539L 29.0827 25.7539L 29.0827 42L 39.8227 42C 41.1083 42 42.1488 40.9631 42.1488 39.6821L 42.1488 2.31788C 42.1488 1.03688 41.1083 0 39.8227 0Z"/>
</defs>
</svg>
