<svg width="283" height="206" viewBox="0 0 283 206" version="1.1" xmlns="http://www.w3.org/2000/svg" xmlns:xlink="http://www.w3.org/1999/xlink">
<title>Group</title>
<desc>Created using Figma</desc>
<g id="Canvas" transform="translate(-36478 -14538)">
<g id="Group">
<g id="Vector">
<use xlink:href="#path0_fill" transform="matrix(-0.0996753 0.00805212 -0.00805212 -0.0996753 36715.8 14546.6)" fill="#FFFFFF"/>
</g>
<g id="Vector">
<use xlink:href="#path1_fill" transform="matrix(-0.0996753 0.00805212 -0.00805212 -0.0996753 36770.9 14724.1)" fill="#FFFFFF"/>
</g>
<g id="Vector">
<use xlink:href="#path2_fill" transform="matrix(-0.0996753 0.00805212 -0.00805212 -0.0996753 36748.3 14574.5)" fill="#FFFFFF"/>
</g>
<g id="Vector">
<use xlink:href="#path3_fill" transform="matrix(-0.0996753 0.00805212 -0.00805212 -0.0996753 36742.5 14573.8)" fill="#FFFFFF"/>
</g>
<g id="Vector">
<use xlink:href="#path4_fill" transform="matrix(-0.0996753 0.00805212 -0.00805212 -0.0996753 36735.6 14588.9)" fill="#FFFFFF"/>
</g>
<g id="Vector">
<use xlink:href="#path5_fill" transform="matrix(-0.0996753 0.00805212 -0.00805212 -0.0996753 36677.9 14575.1)" fill="#FFFFFF"/>
</g>
<g id="Vector">
<use xlink:href="#path6_fill" transform="matrix(-0.0996753 0.00805212 -0.00805212 -0.0996753 36737.1 14572.8)" fill="#FFFFFF"/>
</g>
<g id="Vector">
<use xlink:href="#path7_fill" transform="matrix(-0.0996753 0.00805212 -0.00805212 -0.0996753 36732.6 14590.6)" fill="#FFFFFF"/>
</g>
<g id="Vector">
<use xlink:href="#path8_fill" transform="matrix(-0.0996753 0.00805212 -0.00805212 -0.0996753 36753.2 14592.6)" fill="#FFFFFF"/>
</g>
<g id="Vector">
<use xlink:href="#path9_fill" transform="matrix(-0.0996753 0.00805212 -0.00805212 -0.0996753 36640.5 14636.1)" fill="#FFFFFF"/>
</g>
<g id="Vector">
<use xlink:href="#path10_fill" transform="matrix(-0.0996753 0.00805212 -0.00805212 -0.0996753 36671.2 14623.2)" fill="#FFFFFF"/>
</g>
<g id="Vector">
<use xlink:href="#path11_fill" transform="matrix(-0.0996753 0.00805212 -0.00805212 -0.0996753 36603 14663.6)" fill="#FFFFFF"/>
</g>
<g id="Vector">
<use xlink:href="#path12_fill" transform="matrix(-0.0996753 0.00805212 -0.00805212 -0.0996753 36585.5 14664.1)" fill="#FFFFFF"/>
</g>
</g>
</g>
<defs>
<path id="path0_fill" d="M 163.298 91.8228C 104.325 85.5582 51.337 59.8288 14.9772 19.5568C -2.09419 0.539385 -4.31125 -3.93529 6.99575 3.22419C 22.7369 13.2922 65.9696 34.0995 91.4657 44.1675C 146.892 65.6459 198.771 76.3851 250.207 76.8326C 268.609 76.8326 287.01 76.1614 291.223 75.2665C 306.077 72.1342 292.775 77.9513 274.595 82.426C 237.792 91.8228 196.111 95.1788 163.298 91.8228Z"/>
<path id="path1_fill" d="M 407.7 1866.57C 263.591 1851.13 168.923 1806.16 119.704 1729.42C 112.166 1717.78 102.854 1699.89 99.0854 1689.59C 92.4342 1672.37 90.6605 1669.91 73.8109 1654.24C 53.1922 1635.45 38.1162 1616.43 27.9177 1596.3C 21.9317 1584.66 21.0449 1580.41 20.8232 1566.09C 20.8232 1552.89 21.9317 1547.3 26.1441 1539.47C 32.5736 1526.94 47.6496 1512.17 63.3907 1503.22L 75.5845 1496.06L 68.2682 1490.47C 47.6496 1474.59 35.234 1455.34 26.8092 1426.26C 20.8232 1406.35 1.53473 1311.26 0.204493 1296.49C -1.12574 1282.17 3.9735 1272.78 17.2759 1264.28C 28.8046 1256.67 38.1162 1247.05 47.4279 1233.18C 56.9612 1218.41 76.2497 1201.85 86.6698 1198.95C 91.7691 1197.6 99.3071 1197.16 103.298 1198.05C 117.93 1200.74 157.837 1223.33 180.451 1241.68C 211.934 1267.18 216.59 1268.53 266.473 1268.3L 306.824 1268.3L 292.413 1263.16C 205.504 1232.06 158.059 1190 142.983 1130.71C 133.672 1094.69 142.318 1072.09 166.706 1068.29C 185.772 1065.38 188.655 1064.26 197.966 1056.2C 203.731 1051.06 211.712 1046.81 218.363 1045.02C 224.349 1043.67 233.883 1039.87 239.869 1036.96C 263.148 1024.66 278.667 1032.71 305.937 1070.97C 313.253 1081.04 319.905 1089.54 320.791 1089.54C 321.678 1089.54 325.669 1083.28 329.66 1075.89C 337.641 1061.35 350.057 1046.14 357.595 1041.88C 360.255 1040.54 375.331 1038.53 391.072 1037.63C 407.035 1036.74 427.21 1035.4 436.079 1034.5C 450.933 1033.16 452.706 1033.38 457.362 1037.86C 460.244 1040.77 463.792 1047.25 465.122 1052.85C 467.339 1061.13 469.334 1063.81 479.755 1070.52C 486.406 1074.77 492.17 1079.47 492.17 1081.04C 492.835 1087.53 491.283 1093.34 487.514 1100.06C 485.076 1104.08 483.967 1107.89 485.076 1108.33C 485.962 1109 497.048 1111.69 509.907 1114.37C 538.95 1120.64 596.815 1121.31 643.817 1115.72C 697.692 1109.45 720.306 1109 764.647 1113.03C 787.261 1115.05 817.191 1116.84 831.38 1116.61C 858.872 1116.61 862.863 1115.94 946.446 1097.37C 1013.18 1082.6 1075.48 1070.52 1152.63 1057.32C 1256.17 1039.42 1274.35 1034.73 1311.6 1016.6C 1384.54 980.582 1440.85 923.753 1548.38 777.431C 1613.78 688.385 1642.38 658.405 1695.81 622.607C 1734.17 597.102 1808 557.725 1867.63 531.324C 1915.08 510.517 1920.4 507.832 1931.93 500.449C 1955.87 485.235 1985.58 458.611 2009.75 430.644C 2018.39 420.8 2042.78 392.609 2064.07 368.222C 2197.31 214.517 2232.56 167.98 2272.25 93.9245C 2281.12 77.3682 2292.42 57.4558 2297.08 49.8489C 2308.16 32.1739 2330.78 9.35308 2342.08 4.2072C 2359.82 -4.07095 2385.1 0.403726 2391.75 12.9328C 2393.52 16.2888 2397.29 17.4075 2408.15 18.3024C 2423.67 19.6448 2442.07 27.4755 2452.49 37.5435C 2473.78 57.9033 2474.89 91.2397 2455.6 140.909C 2450.28 155.004 2444.07 171.336 2442.07 177.377C 2435.65 195.052 2422.34 206.015 2386.2 223.69C 2361.82 235.772 2351.62 242.26 2342.53 251.209C 2315.26 278.057 2277.79 348.757 2231.23 460.848C 2197.75 541.84 2196.65 543.406 2150.97 583.454C 2115.5 614.553 2106.19 624.174 2083.35 653.706C 2061.63 681.673 2044.33 709.864 2027.04 745.661C 2010.19 780.564 2000.44 810.096 1978.49 891.536C 1947.45 1006.76 1937.03 1030.7 1905.32 1060.01C 1897.34 1067.39 1890.91 1073.88 1890.91 1074.77C 1890.91 1075.44 1907.54 1076.12 1927.72 1076.12C 1974.05 1076.12 2001.1 1072.31 2083.8 1053.74C 2095.33 1051.28 2116.61 1046.58 2131.02 1043.67C 2165.83 1036.29 2211.06 1024.88 2263.16 1009.89C 2327.45 991.321 2378.89 978.344 2408.6 973.198C 2442.74 966.934 2513.02 964.697 2544.28 968.724C 2613.23 977.226 2673.98 997.809 2729.18 1031.37C 2796.36 1072.31 2830.06 1120.42 2834.49 1182.39C 2837.82 1225.35 2821.86 1240.11 2789.49 1223.78C 2769.09 1213.49 2750.69 1194.69 2719.87 1153.3C 2679.3 1098.94 2668.66 1088.2 2638.28 1072.76C 2583.3 1045.02 2517.68 1042.33 2393.08 1062.69C 2302.18 1077.68 2236.77 1096.25 2119.27 1140.1C 2097.99 1148.16 2074.04 1157.11 2066.06 1160.02C 1993.12 1187.31 1918.85 1206.33 1798.91 1228.26C 1664.55 1253.09 1631.3 1265.62 1509.14 1338.33C 1488.74 1350.41 1471.22 1360.26 1469.89 1360.26C 1468.79 1360.26 1467.45 1361.15 1467.01 1362.27C 1466.79 1363.39 1428.88 1386.88 1383.21 1414.4C 1337.54 1442.14 1279.45 1477.49 1254.4 1493.6C 1197.42 1529.85 1204.95 1524.93 1172.59 1544.61C 1087.45 1595.63 1033.58 1618.45 997.882 1618.45C 972.829 1618.22 975.489 1610.39 1010.08 1582.2C 1110.95 1500.09 1134.67 1477.05 1151.52 1444.38C 1158.84 1430.06 1159.28 1429.62 1159.28 1436.77C 1159.28 1462.06 1141.55 1494.95 1103.64 1540.36C 1094.55 1551.55 1086.34 1561.62 1085.46 1563.18C 1082.57 1567.66 1129.13 1544.84 1162.61 1525.15C 1190.99 1508.37 1244.64 1475.93 1250.63 1471.68C 1257.28 1466.98 1259.94 1466.53 1257.72 1470.33C 1256.61 1471.9 1257.06 1472.12 1258.83 1471.23C 1260.38 1470.11 1261.05 1468.99 1260.38 1468.32C 1258.83 1466.76 1271.47 1458.48 1314.26 1433.64C 1333.1 1422.46 1371.68 1398.96 1400.28 1381.29C 1428.66 1363.61 1452.82 1349.07 1453.93 1349.07C 1455.04 1349.07 1456.37 1348.18 1456.81 1347.06C 1458.59 1342.14 1552.37 1288.89 1598.7 1266.51C 1677.85 1228.03 1728.18 1213.71 1836.6 1198.05C 1932.59 1184.18 1960.53 1178.14 2028.37 1157.33C 2042.34 1153.08 2055.42 1149.28 2057.19 1148.83C 2058.97 1148.38 2060.52 1147.93 2060.52 1147.93C 2060.52 1147.71 2079.59 1141.22 2102.64 1133.39C 2125.92 1125.56 2169.15 1110.35 2199.08 1099.61C 2267.37 1075 2307.06 1062.24 2346.52 1052.18C 2474.67 1019.74 2575.32 1021.97 2648.04 1058.89C 2663.34 1066.5 2671.54 1071.86 2696.59 1089.54C 2699.7 1091.78 2698.59 1089.32 2693.49 1082.83C 2675.09 1059.11 2649.15 1037.19 2622.1 1022.42C 2582.19 1000.72 2543.84 991.321 2487.08 989.531C 2422.79 987.517 2382.21 993.334 2274.69 1020.18C 2130.13 1056.2 2007.75 1082.38 1960.75 1087.3C 1932.59 1090.21 1905.32 1088.42 1890.69 1082.83L 1880.27 1079.02L 1868.74 1085.51C 1858.1 1091.33 1831.94 1102.96 1829.28 1102.96C 1828.61 1102.96 1841.47 1089.99 1857.88 1074.1C 1918.4 1015.71 1938.8 975.659 1970.95 852.606C 1987.8 788.394 2016.18 714.562 2031.47 696.44C 2034.58 692.636 2036.57 689.28 2036.13 688.609C 2034.58 687.267 2075.59 632.899 2101.98 601.353C 2113.95 586.81 2123.04 574.952 2121.71 574.952C 2117.72 574.952 2084.24 588.152 2070.94 594.864C 2050.32 605.38 2039.23 618.133 2024.16 649.456C 2017.06 664.446 2009.97 680.555 2008.42 685.253C 2003.76 700.467 2003.54 692.412 2008.42 673.619C 2014.4 649.679 2023.27 625.292 2029.92 613.658C 2037.68 600.234 2048.77 590.837 2077.37 573.833C 2118.83 549.223 2157.18 522.598 2173.15 507.832C 2181.57 500.001 2194.21 484.564 2202.41 472.258C 2217.49 449.438 2252.96 377.395 2276.68 322.133C 2308.61 247.182 2315.7 239.128 2381.33 204.449C 2415.91 186.103 2421.23 182.076 2427.66 169.546C 2432.98 158.807 2432.98 153.885 2427.22 148.516C 2420.13 142.027 2405.49 143.146 2393.74 150.977C 2388.42 154.556 2385.54 155.675 2387.31 153.661C 2393.52 145.831 2417.91 128.827 2433.43 121.444C 2442.3 117.193 2450.5 112.271 2452.05 110.481C 2456.04 105.782 2453.38 83.6327 2448.06 76.4732C 2440.52 66.4052 2434.09 65.5103 2419.68 72.6698C 2412.59 76.0258 2401.28 83.409 2394.41 88.7786C 2385.98 95.7143 2388.86 92.1346 2403.72 77.5919C 2423.45 58.3508 2425.45 55.666 2424.78 49.1777C 2424.34 43.3606 2422.34 40.8995 2416.36 37.7673C 2395.74 26.5806 2371.57 36.2011 2341.64 67.9713C 2318.36 92.3583 2311.93 101.979 2268.92 176.706C 2160.95 364.419 2146.76 385.673 2098.21 435.119C 2060.07 473.824 2044.56 485.459 1951.88 542.958C 1779.4 649.903 1734.39 687.714 1618.21 822.178C 1548.82 902.498 1487.19 965.144 1459.03 983.938C 1401.16 1022.64 1362.59 1034.28 1155.51 1075.89C 987.905 1109.68 946.224 1120.19 893.236 1142.79C 862.863 1155.77 814.309 1183.28 810.097 1190C 809.653 1191.12 819.408 1192.46 831.824 1193.13C 856.433 1194.69 874.17 1198.72 882.816 1204.32C 886.142 1206.33 889.246 1211.92 891.019 1218.19C 896.34 1237.43 888.802 1260.47 861.089 1309.92C 855.768 1319.76 851.112 1328.49 851.112 1329.61C 851.112 1330.5 856.433 1327.82 862.863 1323.34C 871.509 1317.3 874.613 1316.18 875.056 1318.64C 876.165 1324.01 858.872 1373.68 848.895 1394.04C 835.593 1420.89 822.29 1439.91 806.328 1455.57C 791.695 1469.89 767.972 1487.79 763.538 1487.79C 762.208 1487.79 759.991 1488.9 758.661 1490.25C 757.331 1491.59 751.123 1495.17 744.693 1498.08L 733.165 1503.45L 746.91 1488.23C 773.737 1458.92 791.473 1427.15 804.554 1386.21C 814.309 1355.34 815.861 1348.62 812.757 1350.64C 811.205 1351.53 800.785 1358.69 789.478 1366.3C 778.171 1374.13 767.972 1380.39 766.642 1380.39C 765.312 1380.39 770.855 1373.68 779.058 1365.4C 799.011 1344.82 811.427 1328.49 820.738 1309.92C 836.701 1277.7 842.687 1250.4 837.145 1236.53C 834.041 1229.37 832.045 1228.03 818.965 1224C 772.185 1209.46 655.789 1189.77 513.01 1172.1C 426.989 1161.58 425.437 1161.36 419.894 1157.56C 414.351 1153.53 406.148 1153.53 394.398 1157.78C 375.996 1164.27 369.788 1161.58 360.255 1142.79C 354.934 1132.05 349.613 1128.69 329.881 1123.1C 310.815 1117.73 306.38 1113.93 292.856 1091.11C 281.549 1071.86 264.256 1053.74 257.162 1053.74C 245.19 1053.74 240.977 1080.59 250.289 1098.49C 254.28 1106.32 254.501 1107.89 251.619 1105.43C 246.742 1101.17 242.086 1092.22 234.769 1072.76C 229.892 1059.11 228.34 1057.1 223.019 1056.43C 218.142 1055.76 214.594 1057.77 207.056 1065.38C 191.537 1081.26 189.763 1097.37 201.957 1114.6L 207.056 1121.98L 201.514 1118.4C 198.41 1116.39 192.867 1109.9 188.876 1103.86C 178.234 1087.08 173.579 1082.83 166.262 1082.83C 157.837 1082.83 154.955 1087.97 154.955 1102.29C 154.955 1137.64 182.669 1190.22 213.707 1213.71C 227.231 1223.78 273.125 1246.6 307.932 1260.25C 341.41 1273.45 402.158 1293.59 408.365 1293.81C 411.026 1293.81 422.333 1292.69 433.418 1291.35C 447.607 1289.56 460.466 1289.33 476.651 1290.9C 499.93 1293.14 579.966 1307.9 583.956 1310.81C 585.287 1311.71 603.245 1312.38 623.864 1312.16C 666.875 1312.16 680.399 1309.47 711.437 1295.15C 727.844 1287.54 729.396 1287.32 723.631 1292.02C 698.135 1313.72 660.445 1333.63 629.85 1341.46C 612.557 1345.94 602.801 1347.06 580.631 1347.06C 556.243 1347.06 546.932 1345.72 504.142 1336.77C 419.672 1318.87 378.657 1320.66 331.212 1343.7L 320.126 1349.07L 333.207 1336.99C 340.523 1330.28 353.604 1320.43 362.472 1315.29C 372.449 1309.25 377.77 1305 375.996 1304.1C 372.227 1301.86 329.881 1298.06 282.436 1295.38C 239.204 1293.14 234.991 1292.24 211.49 1279.71C 194.197 1270.76 185.551 1264.5 152.517 1237.43C 127.242 1216.62 111.723 1208.12 98.8637 1208.12C 89.9954 1208.12 81.7923 1211.25 81.7923 1214.83C 81.7923 1215.95 89.1086 1221.99 97.9768 1228.03C 117.93 1241.68 129.681 1253.54 135.445 1265.62C 137.884 1270.76 146.752 1281.5 155.399 1289.56C 170.918 1304.1 172.692 1308.8 162.493 1308.8C 153.625 1308.8 148.969 1305.22 123.03 1278.82C 97.09 1252.42 81.3489 1241.68 67.6031 1241.23C 47.6496 1240.56 46.9845 1258.24 65.1644 1304.55C 65.8295 1306.56 60.9519 1302.76 54.3008 1296.27C 40.9984 1283.29 28.1395 1277.92 17.941 1281.5C 7.7425 1284.86 7.29909 1288.22 13.9503 1316.85C 37.4511 1418.2 50.9752 1449.75 81.1272 1474.59L 96.8683 1487.79L 104.85 1484.43C 109.062 1482.64 113.053 1481.07 113.718 1481.07C 114.161 1481.07 110.392 1487.79 105.071 1495.84C 99.7505 1503.9 92.6559 1517.32 89.3303 1525.6C 83.7877 1538.8 83.1225 1543.05 83.1225 1566.09C 83.1225 1589.59 83.566 1593.16 89.7737 1609.05C 101.524 1638.14 125.69 1668.56 161.606 1698.99C 181.782 1716.22 208.386 1736.35 222.132 1744.86C 226.788 1747.76 230.114 1750.67 229.449 1751.34C 227.01 1753.58 162.272 1719.13 135.667 1701.23C 120.591 1691.16 108.397 1683.55 108.397 1684.22C 108.397 1686.91 132.12 1714.43 146.53 1728.52C 179.565 1760.74 204.839 1778.19 253.614 1802.13C 290.639 1820.48 315.47 1830.32 377.548 1851.58C 417.012 1865 426.102 1868.58 418.564 1867.69C 416.79 1867.69 411.913 1867.02 407.7 1866.57Z"/>
<path id="path2_fill" d="M 506.278 319.179C 357.957 306.649 209.857 265.259 113.637 209.325C 34.9314 163.684 -7.19275 103.275 1.01037 47.5656C 3.44914 30.5619 10.1003 9.30716 15.4213 1.92394C 17.86 -1.43207 18.0817 -0.760866 17.4166 6.84608C 16.0864 20.0464 20.7422 46.2232 26.95 61.2134C 48.6772 113.12 102.773 159.88 190.126 201.718C 283.686 246.689 404.959 281.815 577.446 313.809L 623.339 322.311L 582.323 322.311C 559.709 322.311 525.567 320.968 506.278 319.179Z"/>
<path id="path3_fill" d="M 628.603 306.515C 580.715 300.475 531.053 281.233 491.811 253.49C 481.834 246.331 467.645 236.039 460.107 230.893C 420.421 202.479 378.519 188.831 300.478 178.987C 229.976 169.814 203.593 163.326 176.766 148.336C 158.143 138.044 135.307 115.894 124.222 97.548C 119.345 89.4935 114.689 83.0052 113.802 82.7815C 112.693 82.7815 105.821 87.4799 98.2826 93.0733C 79.881 106.945 68.7957 111.867 55.9367 111.867C 27.7801 111.867 10.2653 88.3749 2.06216 39.3772C -2.15025 13.6478 0.0668102 0 8.93505 0C 15.3645 0 22.4591 8.72562 25.563 19.9123C 26.6715 24.387 28.4452 37.811 29.7754 49.6689C 32.2142 73.8322 36.2049 83.4527 45.9599 87.4799C 61.7011 93.9682 80.7678 80.3204 97.174 50.1164C 110.698 25.0582 120.231 13.424 130.43 8.94935C 144.397 2.90854 154.818 1.56614 159.695 5.36961C 163.686 8.27815 163.686 8.72562 160.139 18.1224C 155.483 30.2041 141.737 51.6825 129.765 65.3303L 120.897 75.622L 134.864 84.5714C 167.455 105.379 198.272 117.908 237.736 125.962C 267.444 132.227 275.204 133.345 321.54 136.478C 417.539 143.413 466.536 162.654 548.346 225.524C 591.357 258.636 600.225 264.677 617.075 271.613C 645.231 283.023 661.194 285.261 712.852 285.037C 766.726 285.037 784.463 282.8 864.277 267.362C 893.099 261.769 917.93 257.294 919.482 257.518C 926.354 257.965 820.379 286.603 780.472 295.105C 726.376 306.515 666.072 310.99 628.603 306.515Z"/>
<path id="path4_fill" d="M 606.366 387.49C 601.488 386.819 589.073 384.582 578.653 382.344C 505.046 365.788 435.431 315.895 342.314 212.53C 322.139 190.157 301.077 176.957 266.047 165.322C 247.424 158.834 207.073 149.661 183.573 146.305C 177.587 145.41 172.931 144.068 172.931 143.173C 172.931 142.502 167.388 141.607 160.737 141.383C 143.665 140.712 99.9894 130.42 77.5971 121.918C 25.0528 102.006 0.665118 66.2083 0 8.26123C 0 -2.25426 3.5473 -2.92546 5.32094 7.36629C 7.75971 20.7903 22.1706 46.5197 33.2559 57.7064C 47.4451 72.0254 63.4079 80.9747 87.1305 87.9105C 109.966 94.6225 129.698 97.3073 180.69 100.44C 282.453 106.48 321.917 116.772 362.268 147.2C 377.565 158.61 393.972 165.322 406.609 165.322C 415.92 165.322 435.652 160.4 464.252 150.78C 477.555 146.305 498.395 141.159 510.811 139.369C 523.004 137.579 538.302 134.447 544.288 132.434C 583.308 120.128 607.474 94.6225 626.763 45.6248L 632.084 32.2007L 630.975 60.1675C 629.867 97.7548 623.881 114.982 603.927 139.817L 593.729 152.57L 606.366 150.78C 657.58 144.515 705.247 120.128 757.569 74.2627C 776.193 57.7064 776.414 58.1539 758.456 82.3171C 705.69 153.688 624.546 207.832 549.166 222.374C 528.991 226.178 487.31 226.849 470.017 223.493C 463.587 222.151 457.823 221.703 457.379 222.151C 455.828 223.717 472.455 255.711 482.211 269.359C 492.631 284.125 515.023 307.17 528.769 317.014C 562.468 341.177 613.682 360.195 671.769 369.591C 683.298 371.605 697.265 373.842 702.808 374.737L 712.785 376.527L 696.379 380.331C 665.783 387.714 634.301 390.175 606.366 387.49Z"/>
<path id="path5_fill" d="M 87.5739 141.176C 41.2373 133.569 0 111.419 0 94.1919C 0 86.585 6.87289 78.978 19.0667 72.7135C 35.6947 64.2116 64.9599 64.8828 115.287 75.622C 136.571 80.0967 167.61 85.0189 184.016 86.3613C 209.956 88.8223 217.272 88.5986 239.443 85.4663C 293.317 77.6356 339.875 55.0385 385.547 14.7664L 402.396 0L 394.637 11.1867C 381.556 30.2041 337.215 72.9372 315.266 88.1511C 281.345 111.196 240.773 128.871 200.644 138.044C 174.926 143.637 113.513 145.427 87.5739 141.176Z"/>
<path id="path6_fill" d="M 5.09924 51.2728C 10.8636 36.9538 11.5287 26.662 7.3163 14.8042L 4.43412 6.74974L 18.1799 7.86841C 30.5954 8.76334 40.3505 6.97347 59.1955 0.0377221C 60.9692 -0.409746 57.8653 3.17 52.1009 8.31587C 46.3366 13.4618 37.9117 23.9772 33.4776 31.8079C 25.4962 46.3506 17.2931 55.0762 5.98606 60.8933L 0 64.0256L 5.09924 51.2728Z"/>
<path id="path7_fill" d="M 374.36 80.6057C 362.166 70.5377 338.443 55.995 323.811 49.9542C 282.13 32.0555 244.44 30.4893 171.499 43.9134C 132.257 51.2966 120.063 52.639 93.9016 52.639C 64.8581 52.8627 61.7542 52.4152 44.0177 45.927C 26.9464 39.8862 -2.09713 23.7773 0.119931 21.54C 0.563343 21.0925 9.875 22.2112 20.7386 24.2248C 35.1495 26.6859 48.2301 27.3571 67.2969 26.4621C 95.2318 25.1197 102.992 23.7773 172.607 9.23461C 221.604 -0.833411 253.752 -2.62328 277.918 3.64127C 310.065 12.1432 340.217 32.7267 364.826 63.3782C 383.006 85.7516 384.78 89.3313 374.36 80.6057Z"/>
<path id="path8_fill" d="M 58.0812 117.779C 28.1509 111.961 11.7446 95.1815 2.87638 60.9502C -5.54845 29.6275 4.87174 6.1354 29.7028 0.765787C 36.7974 -0.80035 36.7974 -0.80035 24.1602 9.04394C 5.31515 23.5866 6.86709 45.7363 27.9292 61.1739C 43.4486 72.5844 48.3261 78.4014 51.8734 88.9169C 53.8688 94.734 58.7463 103.46 62.9587 108.605C 67.1711 113.528 70.7184 118.226 70.7184 118.897C 70.7184 120.463 70.7184 120.463 58.0812 117.779Z"/>
<path id="path9_fill" d="M 42.8061 416.042C 211.968 288.067 300.65 173.067 348.317 19.5861C 355.19 -2.56357 356.077 -4.35344 354.747 6.38579C 348.539 63.8854 324.151 144.653 297.99 194.322C 280.697 227.211 250.101 271.958 245.445 271.063C 244.337 270.615 243.672 271.734 244.337 273.524C 245.889 277.551 194.896 329.234 190.906 327.668C 189.132 326.996 188.245 327.668 188.689 329.234C 189.132 330.8 185.363 335.275 180.264 339.302C 175.165 343.329 165.41 350.936 158.758 356.305C 141.244 370.177 109.983 390.984 84.7086 405.751C 62.9814 418.28 2.67736 449.379 0.0168844 449.379C -0.648234 449.379 18.4185 434.389 42.8061 416.042Z"/>
<path id="path10_fill" d="M 0 236.263C 0.221706 225.077 21.9489 181.001 37.69 159.97C 74.9366 110.077 117.061 86.1379 227.249 52.5778C 305.733 28.4146 332.559 18.794 361.824 3.80383C 376.235 -3.57938 374.018 -0.670843 352.956 16.5567C 304.624 55.9338 261.391 78.0835 178.03 105.603C 97.7724 132.227 78.7056 142.295 47.6668 174.065C 31.704 190.398 4.43412 227.538 4.43412 233.131C 4.43412 234.25 3.5473 236.04 2.21706 236.711C 1.10853 237.382 0 237.382 0 236.263Z"/>
<path id="path11_fill" d="M 0.944332 290.156C -1.49443 268.007 0.944332 232.433 6.48698 211.849C 18.9025 164.865 40.6297 130.41 95.3911 69.5546C 127.317 34.4284 137.072 22.1231 145.275 8.02783C 153.478 -6.29114 155.03 -0.921528 148.601 19.8857C 142.836 39.3506 129.09 63.0664 92.2872 117.881C 39.9646 195.741 21.1196 233.328 7.59551 286.576L 2.71798 305.594L 0.944332 290.156Z"/>
<path id="path12_fill" d="M 3.769 157.044C 23.7225 112.969 45.8931 93.0564 92.008 77.8425C 129.255 65.5372 149.652 49.4283 170.27 15.1971C 176.7 4.9053 181.799 -1.80671 181.799 0.430627C 181.799 8.26131 170.935 52.5606 165.171 67.7745C 157.855 87.9105 146.104 105.809 137.014 110.731C 131.028 114.087 124.377 114.759 99.7677 114.759C 72.7196 114.759 68.9506 115.206 59.8606 120.128C 47.6668 126.393 27.0481 141.383 11.5287 155.254L 0 165.77L 3.769 157.044Z"/>
</defs>
</svg>
