<svg width="25" height="20" viewBox="0 0 25 20" version="1.1" xmlns="http://www.w3.org/2000/svg" xmlns:xlink="http://www.w3.org/1999/xlink">
<title>Vector</title>
<desc>Created using Figma</desc>
<g id="Canvas" transform="translate(-4305 190)">
<g id="Vector">
<use xlink:href="#path0_fill" transform="translate(4305 -190)" fill="#111111"/>
<use xlink:href="#path0_fill" transform="translate(4305 -190)" fill="url(#paint1_linear)"/>
</g>
</g>
<defs>
<linearGradient id="paint1_linear" x1="0" y1="0" x2="1" y2="0" gradientUnits="userSpaceOnUse" gradientTransform="matrix(18.8341 15.161 -19.1507 14.768 12.8566 -5.58476)">
<stop offset="0" stop-color="#E9B760"/>
<stop offset="0.138122" stop-color="#F7F2A8"/>
<stop offset="0.39779" stop-color="#FDDC7E"/>
<stop offset="0.790055" stop-color="#E4B25B"/>
<stop offset="0.98895" stop-color="#F6CA6B"/>
</linearGradient>
<path id="path0_fill" d="M 22.5 0L 2.5 0C 1.125 0 0.0125 1.11328 0.0125 2.47396L 0 17.3177C 0 18.6784 1.125 19.7917 2.5 19.7917L 22.5 19.7917C 23.875 19.7917 25 18.6784 25 17.3177L 25 2.47396C 25 1.11328 23.875 0 22.5 0ZM 22.5 4.94792L 12.5 11.1328L 2.5 4.94792L 2.5 2.47396L 12.5 8.65885L 22.5 2.47396L 22.5 4.94792Z"/>
</defs>
</svg>
