<svg width="16" height="17" viewBox="0 0 16 17" version="1.1" xmlns="http://www.w3.org/2000/svg" xmlns:xlink="http://www.w3.org/1999/xlink">
<title>Group 3</title>
<desc>Created using Figma</desc>
<g id="Canvas" transform="translate(-2239 -739)">
<g id="Group 3">
<g id="Vector">
<use xlink:href="#path0_fill" transform="translate(2239 739)" fill="#FFFFFF"/>
</g>
</g>
</g>
<defs>
<path id="path0_fill" d="M 8.035 12.6C 5.35 12.6 4.15 11.278 4.15 10.287C 4.15 9.777 4.524 9.422 5.04 9.422C 6.19 9.422 5.89 11.075 8.035 11.075C 9.131 11.075 9.738 10.478 9.738 9.867C 9.738 9.499 9.558 9.092 8.834 8.913L 6.447 8.316C 4.524 7.833 4.175 6.79 4.175 5.812C 4.175 3.778 6.085 3.014 7.879 3.014C 9.529 3.014 11.479 3.93 11.479 5.15C 11.479 5.673 11.019 5.977 10.509 5.977C 9.529 5.977 9.709 4.617 7.729 4.617C 6.749 4.617 6.199 5.061 6.199 5.697C 6.199 6.333 6.969 6.537 7.639 6.69L 9.399 7.082C 11.329 7.515 11.819 8.648 11.819 9.715C 11.819 11.367 10.549 12.601 7.999 12.601L 8.035 12.6ZM 15.399 9.341L 15.379 9.431L 15.349 9.271C 15.359 9.301 15.379 9.321 15.389 9.351C 15.469 8.901 15.509 8.441 15.509 7.981C 15.509 6.961 15.309 5.971 14.909 5.031C 14.529 4.131 13.979 3.321 13.289 2.631C 12.589 1.941 11.789 1.391 10.889 1.011C 10.01 0.59 9.02 0.39 8 0.39C 7.52 0.39 7.036 0.437 6.57 0.527L 6.65 0.567L 6.49 0.544L 6.57 0.528C 5.927 0.183 5.205 0 4.472 0C 3.278 0 2.155 0.466 1.31 1.313C 0.465 2.16 0 3.286 0 4.483C 0 5.246 0.195 5.995 0.563 6.658L 0.576 6.575L 0.604 6.735L 0.564 6.658C 0.488 7.088 0.449 7.525 0.449 7.963C 0.449 8.985 0.649 9.977 1.039 10.911C 1.419 11.821 1.959 12.631 2.659 13.321C 3.349 14.021 4.159 14.561 5.059 14.951C 5.989 15.351 6.979 15.551 7.999 15.551C 8.439 15.551 8.889 15.511 9.319 15.431L 9.239 15.391L 9.399 15.421L 9.309 15.441C 9.979 15.821 10.729 16.021 11.509 16.021C 12.699 16.021 13.819 15.561 14.669 14.711C 15.509 13.871 15.979 12.741 15.979 11.541C 15.979 10.781 15.779 10.031 15.409 9.361"/>
</defs>
</svg>
