<svg width="48" height="48" viewBox="0 0 48 48" version="1.1" xmlns="http://www.w3.org/2000/svg" xmlns:xlink="http://www.w3.org/1999/xlink">
<title>Vector</title>
<desc>Created using Figma</desc>
<g id="Canvas" transform="translate(-19892 -14423)">
<g id="Vector">
<use xlink:href="#path0_fill" transform="translate(19892 14423)" fill="#2D9CDB"/>
<use xlink:href="#path0_fill" transform="translate(19892 14423)" fill="#E11B7E"/>
<use xlink:href="#path0_fill" transform="translate(19892 14423)" fill="url(#paint2_linear)"/>
<use xlink:href="#path0_fill" transform="translate(19892 14423)" fill="url(#paint3_radial)"/>
<use xlink:href="#path0_fill" transform="translate(19892 14423)" fill="url(#paint4_radial)"/>
</g>
</g>
<defs>
<linearGradient id="paint2_linear" x1="0" y1="0" x2="1" y2="0" gradientUnits="userSpaceOnUse" gradientTransform="matrix(15.7734 43.0078 -43.0078 15.7734 26.7773 -7.88672)">
<stop offset="0.04" stop-color="#00A3FF"/>
<stop offset="1" stop-color="#35ABD5" stop-opacity="0"/>
</linearGradient>
<radialGradient id="paint3_radial" cx="0.5" cy="0.5" r="0.5" gradientUnits="userSpaceOnUse" gradientTransform="matrix(71.625 -52.2656 52.2656 71.625 -51.375 38.3203)">
<stop offset="0.13" stop-color="#F2C94C"/>
<stop offset="1" stop-color="#FF0000" stop-opacity="0"/>
</radialGradient>
<radialGradient id="paint4_radial" cx="0.5" cy="0.5" r="0.5" gradientUnits="userSpaceOnUse" gradientTransform="matrix(45.6094 -39.0937 39.0937 45.6094 -28.6406 44.7422)">
<stop offset="0.01" stop-color="#FDDB86"/>
<stop offset="1" stop-color="#F06942" stop-opacity="0"/>
</radialGradient>
<path id="path0_fill" fill-rule="evenodd" d="M 24 0C 17.481 0 16.665 0.03 14.106 0.144C 11.55 0.264 9.81 0.666 8.28 1.26C 6.702 1.872 5.361 2.694 4.029 4.029C 2.694 5.361 1.869 6.699 1.26 8.28C 0.666 9.81 0.261 11.55 0.144 14.106C 0.024 16.665 0 17.481 0 24C 0 30.519 0.03 31.335 0.144 33.894C 0.264 36.45 0.666 38.193 1.26 39.72C 1.872 41.298 2.694 42.639 4.029 43.971C 5.361 45.306 6.699 46.131 8.28 46.74C 9.81 47.334 11.55 47.739 14.106 47.856C 16.665 47.976 17.481 48 24 48C 30.519 48 31.335 47.97 33.894 47.856C 36.45 47.736 38.193 47.334 39.72 46.74C 41.298 46.128 42.639 45.306 43.971 43.971C 45.306 42.639 46.131 41.301 46.74 39.72C 47.334 38.19 47.739 36.45 47.856 33.894C 47.976 31.335 48 30.519 48 24C 48 17.481 47.97 16.665 47.856 14.106C 47.736 11.55 47.334 9.807 46.74 8.28C 46.128 6.702 45.306 5.361 43.971 4.029C 42.639 2.694 41.301 1.869 39.72 1.26C 38.19 0.666 36.45 0.261 33.894 0.144C 31.335 0.024 30.519 0 24 0ZM 24 4.32C 30.408 4.32 31.17 4.35 33.699 4.464C 36.039 4.572 37.308 4.962 38.154 5.292C 39.276 5.727 40.074 6.246 40.914 7.086C 41.754 7.926 42.273 8.724 42.708 9.846C 43.038 10.692 43.428 11.961 43.536 14.301C 43.65 16.833 43.677 17.592 43.677 24C 43.677 30.408 43.647 31.17 43.527 33.699C 43.407 36.039 43.017 37.308 42.687 38.154C 42.237 39.276 41.727 40.074 40.887 40.914C 40.047 41.754 39.237 42.273 38.127 42.708C 37.287 43.038 35.997 43.428 33.657 43.536C 31.107 43.65 30.357 43.677 23.937 43.677C 17.517 43.677 16.767 43.647 14.217 43.527C 11.877 43.407 10.587 43.017 9.747 42.687C 8.607 42.237 7.827 41.727 6.987 40.887C 6.147 40.047 5.607 39.237 5.187 38.127C 4.857 37.287 4.467 35.997 4.347 33.657C 4.257 31.137 4.227 30.357 4.227 23.967C 4.227 17.577 4.257 16.797 4.347 14.247C 4.467 11.907 4.857 10.617 5.187 9.777C 5.607 8.637 6.147 7.857 6.987 7.017C 7.827 6.177 8.607 5.637 9.747 5.217C 10.587 4.887 11.847 4.497 14.187 4.377C 16.737 4.287 17.487 4.257 23.907 4.257L 24 4.32ZM 24 11.676C 17.19 11.676 11.676 17.196 11.676 24C 11.676 30.81 17.196 36.324 24 36.324C 30.81 36.324 36.324 30.804 36.324 24C 36.324 17.19 30.804 11.676 24 11.676ZM 24 32.001C 19.581 32.001 15.999 28.419 15.999 24C 15.999 19.581 19.581 15.999 24 15.999C 28.419 15.999 32.001 19.581 32.001 24C 32.001 28.419 28.419 32.001 24 32.001ZM 39.69 11.19C 39.69 12.78 38.4 14.07 36.81 14.07C 35.22 14.07 33.93 12.78 33.93 11.19C 33.93 9.6 35.22 8.31 36.81 8.31C 38.4 8.31 39.69 9.6 39.69 11.19Z"/>
</defs>
</svg>
