<svg width="17" height="18" viewBox="0 0 17 18" version="1.1" xmlns="http://www.w3.org/2000/svg" xmlns:xlink="http://www.w3.org/1999/xlink">
    <g id="Canvas" transform="translate(-1459 -774)">
        <g id="Group">
            <g id="Vector">
                <use xlink:href="#path0_fill" transform="translate(1459 774)" fill="#FFFFFF"/>
            </g>
        </g>
    </g>
    <defs>
        <path id="path0_fill" fill-rule="evenodd" d="M 8.49469 0C 6.18732 0 5.8985 0.0106667 4.99275 0.0512C 4.08807 0.0938667 3.4722 0.2368 2.93067 0.448C 2.37214 0.6656 1.8975 0.957867 1.42605 1.43253C 0.953529 1.90613 0.661524 2.38187 0.445971 2.944C 0.235728 3.488 0.0923798 4.10667 0.0509681 5.01547C 0.00849469 5.92533 0 6.21547 0 8.53333C 0 10.8512 0.0106184 11.1413 0.0509681 12.0512C 0.0934416 12.96 0.235728 13.5797 0.445971 14.1227C 0.662586 14.6837 0.953529 15.1605 1.42605 15.6341C 1.8975 16.1088 2.37108 16.4021 2.93067 16.6187C 3.4722 16.8299 4.08807 16.9739 4.99275 17.0155C 5.8985 17.0581 6.18732 17.0667 8.49469 17.0667C 10.8021 17.0667 11.0909 17.056 11.9966 17.0155C 12.9013 16.9728 13.5182 16.8299 14.0587 16.6187C 14.6172 16.4011 15.0919 16.1088 15.5633 15.6341C 16.0359 15.1605 16.3279 14.6848 16.5434 14.1227C 16.7537 13.5787 16.897 12.96 16.9384 12.0512C 16.9809 11.1413 16.9894 10.8512 16.9894 8.53333C 16.9894 6.21547 16.9788 5.92533 16.9384 5.01547C 16.8959 4.10667 16.7537 3.48693 16.5434 2.944C 16.3268 2.38293 16.0359 1.90613 15.5633 1.43253C 15.0919 0.957867 14.6183 0.664533 14.0587 0.448C 13.5172 0.2368 12.9013 0.0928 11.9966 0.0512C 11.0909 0.00853334 10.8021 0 8.49469 0ZM 8.49469 1.536C 10.7628 1.536 11.0325 1.54667 11.9276 1.5872C 12.7558 1.6256 13.205 1.76427 13.5044 1.8816C 13.9016 2.03627 14.184 2.2208 14.4813 2.51947C 14.7786 2.81813 14.9623 3.10187 15.1163 3.5008C 15.2331 3.8016 15.3711 4.2528 15.4094 5.0848C 15.4497 5.98507 15.4593 6.25493 15.4593 8.53333C 15.4593 10.8117 15.4487 11.0827 15.4062 11.9819C 15.3637 12.8139 15.2257 13.2651 15.1089 13.5659C 14.9496 13.9648 14.7691 14.2485 14.4718 14.5472C 14.1745 14.8459 13.8878 15.0304 13.4949 15.1851C 13.1976 15.3024 12.741 15.4411 11.9127 15.4795C 11.0102 15.52 10.7447 15.5296 8.47239 15.5296C 6.20006 15.5296 5.9346 15.5189 5.03204 15.4763C 4.20381 15.4336 3.74722 15.2949 3.44991 15.1776C 3.04641 15.0176 2.77033 14.8363 2.47302 14.5376C 2.1757 14.2389 1.98457 13.9509 1.83592 13.5563C 1.71911 13.2576 1.58107 12.7989 1.5386 11.9669C 1.50675 11.0709 1.49613 10.7936 1.49613 8.5216C 1.49613 6.2496 1.50675 5.97227 1.5386 5.0656C 1.58107 4.2336 1.71911 3.77493 1.83592 3.47627C 1.98457 3.07093 2.1757 2.7936 2.47302 2.49493C 2.77033 2.19627 3.04641 2.00427 3.44991 1.85493C 3.74722 1.7376 4.19319 1.59893 5.02142 1.55627C 5.92399 1.52427 6.18944 1.5136 8.46177 1.5136L 8.49469 1.536ZM 8.49469 4.15147C 6.08432 4.15147 4.13267 6.11413 4.13267 8.53333C 4.13267 10.9547 6.08645 12.9152 8.49469 12.9152C 10.9051 12.9152 12.8567 10.9525 12.8567 8.53333C 12.8567 6.112 10.9029 4.15147 8.49469 4.15147L 8.49469 4.15147ZM 8.49469 11.3781C 6.93061 11.3781 5.66277 10.1045 5.66277 8.53333C 5.66277 6.96213 6.93061 5.68853 8.49469 5.68853C 10.0588 5.68853 11.3266 6.96213 11.3266 8.53333C 11.3266 10.1045 10.0588 11.3781 8.49469 11.3781ZM 14.0481 3.97867C 14.0481 4.544 13.5915 5.00267 13.0287 5.00267C 12.466 5.00267 12.0094 4.544 12.0094 3.97867C 12.0094 3.41333 12.466 2.95467 13.0287 2.95467C 13.5915 2.95467 14.0481 3.41333 14.0481 3.97867Z"/>
    </defs>
</svg>
