<svg width="44" height="35" viewBox="0 0 44 35" version="1.1" xmlns="http://www.w3.org/2000/svg" xmlns:xlink="http://www.w3.org/1999/xlink">
<title>ic_network_wifi_black_24px</title>
<desc>Created using Figma</desc>
<g id="Canvas" transform="translate(-18963 -19220)">
<g id="ic_network_wifi_black_24px">
<g id="Vector">
<use xlink:href="#path0_fill" transform="translate(18963.7 19220.5)" fill="#000000" fill-opacity="0.3"/>
</g>
<g id="Vector">
<use xlink:href="#path1_fill" transform="translate(18969.5 19229.7)"/>
<use xlink:href="#path1_fill" transform="translate(18969.5 19229.7)" fill="url(#paint2_linear)"/>
</g>
</g>
</g>
<defs>
<linearGradient id="paint2_linear" x1="0" y1="0" x2="1" y2="0" gradientUnits="userSpaceOnUse" gradientTransform="matrix(23.397 18.9592 -23.7903 18.4678 15.9713 -6.98389)">
<stop offset="0" stop-color="#E9B760"/>
<stop offset="0.138122" stop-color="#F7F2A8"/>
<stop offset="0.39779" stop-color="#FDDC7E"/>
<stop offset="0.790055" stop-color="#E4B25B"/>
<stop offset="0.98895" stop-color="#F6CA6B"/>
</linearGradient>
<path id="path0_fill" d="M 21.3583 33.8983L 42.68 7.33333C 41.855 6.71 33.6417 0 21.34 0C 9.02 0 0.825 6.71 2.6226e-08 7.33333L 21.3217 33.8983L 21.34 33.9167L 21.3583 33.8983Z"/>
<path id="path1_fill" d="M -5.24521e-08 5.40833L 15.51 24.7317L 15.5283 24.75L 15.5467 24.7317L 31.0567 5.40833C 30.2683 4.80333 24.3467 0 15.5283 0C 6.71 0 0.788333 4.80333 -5.24521e-08 5.40833Z"/>
</defs>
</svg>
