<svg width="53" height="58" viewBox="0 0 53 58" version="1.1" xmlns="http://www.w3.org/2000/svg" xmlns:xlink="http://www.w3.org/1999/xlink">
<title>Vector</title>
<desc>Created using Figma</desc>
<g id="Canvas" transform="translate(-9732 -7815)">
<g id="Vector">
<use xlink:href="#path0_fill" transform="translate(9732 7815)"/>
<use xlink:href="#path0_fill" transform="translate(9732 7815)" fill="url(#paint1_linear)"/>
</g>
</g>
<defs>
<linearGradient id="paint1_linear" x1="0" y1="0" x2="1" y2="0" gradientUnits="userSpaceOnUse" gradientTransform="matrix(39.306 44.4297 -39.9667 43.2781 26.8312 -16.3663)">
<stop offset="0" stop-color="#E9B760"/>
<stop offset="0.138122" stop-color="#F7F2A8"/>
<stop offset="0.39779" stop-color="#FDDC7E"/>
<stop offset="0.790055" stop-color="#E4B25B"/>
<stop offset="0.98895" stop-color="#F6CA6B"/>
</linearGradient>
<path id="path0_fill" d="M 11.5942 46.4L 17.3913 46.4L 17.3913 11.6L 11.5942 11.6L 11.5942 46.4ZM 23.1884 58L 28.9855 58L 28.9855 0L 23.1884 0L 23.1884 58ZM 0 34.8L 5.7971 34.8L 5.7971 23.2L 0 23.2L 0 34.8ZM 34.7826 46.4L 40.5797 46.4L 40.5797 11.6L 34.7826 11.6L 34.7826 46.4ZM 46.3768 23.2L 46.3768 34.8L 52.1739 34.8L 52.1739 23.2L 46.3768 23.2Z"/>
</defs>
</svg>
