<svg width="198" height="199" viewBox="0 0 198 199" version="1.1" xmlns="http://www.w3.org/2000/svg" xmlns:xlink="http://www.w3.org/1999/xlink">
    <title>logo.svg</title>
    <desc>Created using Figma</desc>
    <g id="Canvas" transform="translate(-28714 1860)">
        <g id="logo">
            <g id="Vector">
                <use xlink:href="#path0_fill" transform="translate(28754.8 -1726.3)" fill="url(#paint0_linear)"/>
            </g>
            <g id="Vector">
                <use xlink:href="#path1_fill" transform="translate(28851 -1830.9)" fill="url(#paint1_linear)"/>
            </g>
            <g id="Vector">
                <use xlink:href="#path1_fill" transform="matrix(-1 0 0 -1 28775.2 -1689.71)" fill="url(#paint2_linear)"/>
            </g>
            <g id="Vector">
                <use xlink:href="#path2_fill" transform="translate(28848.8 -1782.76)" fill="url(#paint3_linear)"/>
            </g>
            <g id="Vector">
                <use xlink:href="#path3_fill" transform="translate(28714 -1818.59)" fill="url(#paint4_linear)"/>
            </g>
            <g id="Vector">
                <use xlink:href="#path4_fill" transform="translate(28790.2 -1860)" fill="url(#paint5_linear)"/>
            </g>
            <g id="Vector">
                <use xlink:href="#path5_fill" transform="translate(28832 -1722.17)" fill="url(#paint6_linear)"/>
            </g>
            <g id="Vector">
                <use xlink:href="#path6_fill" transform="translate(28742.8 -1833.84)" fill="url(#paint7_linear)"/>
            </g>
            <g id="Vector">
                <use xlink:href="#path7_fill" transform="translate(28748.8 -1824.71)" fill="#FFFFFF"/>
            </g>
            <g id="Vector 6">
                <use xlink:href="#path8_fill" transform="translate(28795.3 -1768.88)" fill="#FFFFFF"/>
            </g>
            <g id="Vector 6">
                <use xlink:href="#path8_fill" transform="matrix(-1 0 0 1 28831.9 -1768.88)" fill="#FFFFFF"/>
            </g>
        </g>
    </g>
    <defs>
        <linearGradient id="paint0_linear" x1="0" y1="0" x2="1" y2="0" gradientUnits="userSpaceOnUse" gradientTransform="matrix(86.6262 0 0 62.6698 -3.95735 1.31582)">
            <stop offset="0" stop-color="#E9B760"/>
            <stop offset="0.1381" stop-color="#F7F2A8"/>
            <stop offset="0.3978" stop-color="#FDDC7E"/>
            <stop offset="0.7901" stop-color="#E4B25B"/>
            <stop offset="0.989" stop-color="#F6CA6B"/>
        </linearGradient>
        <linearGradient id="paint1_linear" x1="0" y1="0" x2="1" y2="0" gradientUnits="userSpaceOnUse" gradientTransform="matrix(34.7527 0 0 84.4716 -1.58761 1.77358)">
            <stop offset="0" stop-color="#E9B760"/>
            <stop offset="0.1381" stop-color="#F7F2A8"/>
            <stop offset="0.3978" stop-color="#FDDC7E"/>
            <stop offset="0.7901" stop-color="#E4B25B"/>
            <stop offset="0.989" stop-color="#F6CA6B"/>
        </linearGradient>
        <linearGradient id="paint2_linear" x1="0" y1="0" x2="1" y2="0" gradientUnits="userSpaceOnUse" gradientTransform="matrix(34.7527 0 0 84.4716 -1.58761 1.77358)">
            <stop offset="0" stop-color="#E9B760"/>
            <stop offset="0.1381" stop-color="#F7F2A8"/>
            <stop offset="0.3978" stop-color="#FDDC7E"/>
            <stop offset="0.7901" stop-color="#E4B25B"/>
            <stop offset="0.989" stop-color="#F6CA6B"/>
        </linearGradient>
        <linearGradient id="paint3_linear" x1="0" y1="0" x2="1" y2="0" gradientUnits="userSpaceOnUse" gradientTransform="matrix(67.7686 0 0 77.4475 -3.09587 1.6261)">
            <stop offset="0" stop-color="#E9B760"/>
            <stop offset="0.1381" stop-color="#F7F2A8"/>
            <stop offset="0.3978" stop-color="#FDDC7E"/>
            <stop offset="0.7901" stop-color="#E4B25B"/>
            <stop offset="0.989" stop-color="#F6CA6B"/>
        </linearGradient>
        <linearGradient id="paint4_linear" x1="0" y1="0" x2="1" y2="0" gradientUnits="userSpaceOnUse" gradientTransform="matrix(70.2188 0 0 77.3383 -3.20781 1.62381)">
            <stop offset="0" stop-color="#E9B760"/>
            <stop offset="0.1381" stop-color="#F7F2A8"/>
            <stop offset="0.3978" stop-color="#FDDC7E"/>
            <stop offset="0.7901" stop-color="#E4B25B"/>
            <stop offset="0.989" stop-color="#F6CA6B"/>
        </linearGradient>
        <linearGradient id="paint5_linear" x1="0" y1="0" x2="1" y2="0" gradientUnits="userSpaceOnUse" gradientTransform="matrix(92.1482 0 0 67.9694 -4.20961 1.4271)">
            <stop offset="0" stop-color="#E9B760"/>
            <stop offset="0.1381" stop-color="#F7F2A8"/>
            <stop offset="0.3978" stop-color="#FDDC7E"/>
            <stop offset="0.7901" stop-color="#E4B25B"/>
            <stop offset="0.989" stop-color="#F6CA6B"/>
        </linearGradient>
        <linearGradient id="paint6_linear" x1="0" y1="0" x2="1" y2="0" gradientUnits="userSpaceOnUse" gradientTransform="matrix(55.4155 0 0 31.0345 -2.53155 0.651604)">
            <stop offset="0" stop-color="#E9B760"/>
            <stop offset="0.1381" stop-color="#F7F2A8"/>
            <stop offset="0.3978" stop-color="#FDDC7E"/>
            <stop offset="0.7901" stop-color="#E4B25B"/>
            <stop offset="0.989" stop-color="#F6CA6B"/>
        </linearGradient>
        <linearGradient id="paint7_linear" x1="0" y1="0" x2="1" y2="0" gradientUnits="userSpaceOnUse" gradientTransform="matrix(97.8299 0 0 34.0146 -4.46917 0.714176)">
            <stop offset="0" stop-color="#E9B760"/>
            <stop offset="0.1381" stop-color="#F7F2A8"/>
            <stop offset="0.3978" stop-color="#FDDC7E"/>
            <stop offset="0.7901" stop-color="#E4B25B"/>
            <stop offset="0.989" stop-color="#F6CA6B"/>
        </linearGradient>
        <path id="path0_fill" d="M 77.2952 42.239C 74.2487 42.3533 73.7347 42.4294 72.9159 42.8674C 72.0972 43.3054 70.0218 45.4192 60.3493 55.6073L 59.1498 56.8831L 57.5695 55.8548C 56.4651 55.1502 54.6753 53.4744 51.8002 50.5228C 49.4964 48.1614 44.0699 42.6199 39.7287 38.24L 32.1316 30.5275L 21.2977 19.673C 20.2124 18.7208 16.3853 14.9693 11.7966 10.399C 6.31297 4.93363 1.55289 0.344249 1.22921 0.22999C -0.0845721 -0.246087 -0.0655341 -0.303214 0.0487077 3.31497C 0.18199 7.50445 0.353354 7.92339 2.92379 10.3799C 3.97101 11.3702 14.9382 22.2628 27.2763 34.5647C 39.6335 46.8284 51.8002 58.8065 54.2945 61.1107L 58.8642 65.3002L 67.2229 57.0164C 71.8116 52.4461 76.4193 47.7996 77.4475 46.6951C 79.2564 44.7337 80.7796 42.7151 80.7796 42.2961C 80.7605 42.1819 79.3515 42.1438 77.2952 42.239Z"/>
        <path id="path1_fill" d="M 32.3304 4.2466L 32.1781 5.81148e-07L 16.089 5.81148e-07C 7.17819 5.81148e-07 -4.64851e-06 0.0952159 -4.64851e-06 0.190431C -4.64851e-06 0.704594 4.20791 5.17971 5.198 5.71292C 5.67401 5.97952 7.53995 6.01761 15.8415 6.01761L 25.9329 6.01761L 26.0662 16.6055C 26.2566 33.0968 26.3518 69.3358 26.2375 74.1156L 26.3898 79.6L 26.4089 79.619L 26.4089 80.3617L 26.4089 83.8275C 26.4089 86.1698 26.5041 88.017 26.5993 88.017C 26.9611 88.017 29.0936 86.2651 29.779 85.4081C 30.712 84.2274 31.4736 82.5707 31.9306 80.7616C 32.2543 79.5048 32.2923 78.5145 32.2162 74.1346C 32.0639 65.7366 32.1019 44.6179 32.3114 25.9366C 32.4256 16.3389 32.4447 6.5889 32.3304 4.2466Z"/>
        <path id="path2_fill" d="M 45.5824 3.87837C 42.7835 1.42181 40.5177 -0.253978 40.3654 0.0316684C 40.194 0.317314 40.651 5.11617 40.9747 6.39206C 41.584 8.71531 42.2504 9.66746 45.7919 13.0762C 47.6388 14.8472 50.3234 17.4942 51.8086 18.9033L 54.4742 21.5313L 53.9602 22.3501C 53.2557 23.5118 50.9137 26.2921 47.5626 29.9674C 44.9351 32.8238 1.96114 75.8611 1.82786 75.7469C 1.82786 75.7469 1.82787 75.6707 1.84691 75.5755C 1.29474 77.2322 0.399846 78.8699 0 80.6981L 2.43715 80.679C 4.51254 80.679 5.00759 80.5838 5.7692 80.203C 6.28329 79.9173 8.39676 77.8797 10.9862 75.0994C 15.4797 70.3387 22.0106 63.9973 34.6343 52.1525C 42.8025 44.4972 52.6464 34.671 56.3402 30.5196C 59.0249 27.4918 63.1947 22.4644 63.1947 22.2359C 63.1947 21.4361 50.5139 8.23923 45.5824 3.87837Z"/>
        <path id="path3_fill" d="M 63.5755 2.64104C 64.0896 2.16496 65.4796 0.31778 65.4796 0.0892632C 65.4796 -0.00595212 63.8611 -0.0249929 61.9 0.0321363C 56.721 0.146395 57.3874 -0.291596 48.6099 8.79194C 45.2207 12.2959 33.1872 24.4644 21.8773 35.814C 10.5674 47.2018 1.00914 56.8566 0.66641 57.3137L 0 58.1516L 8.22541 66.2258C 12.738 70.6819 17.8598 75.7283 19.6305 77.4612L 22.8103 80.5843L 22.696 77.6707C 22.5437 74.3572 22.22 73.0242 21.1918 71.7293C 20.8301 71.2341 18.6404 69.0632 16.3366 66.8923C 11.9954 62.76 9.67247 60.2463 9.00606 58.9323L 8.60621 58.1516L 22.7151 43.8693C 30.4645 36.0235 36.862 29.587 36.9382 29.587C 36.9953 29.5679 38.1187 28.5206 39.4134 27.2256L 63.328 2.94572C 63.3661 2.83146 63.4613 2.73625 63.5755 2.64104Z"/>
        <path id="path4_fill" d="M 47.3532 33.0397L 50.4187 36.0485L 50.3235 36.0485L 55.6357 41.3234C 56.0356 41.6662 56.5116 42.1232 57.0067 42.6184C 57.6159 43.2277 58.1491 43.78 58.4918 44.1609L 83.5298 68.6693C 84.8436 69.888 85.9289 70.8592 85.9289 70.8211C 85.9289 70.7831 85.7004 70.0213 85.3957 69.1644C 84.7103 67.1077 83.625 64.9178 82.235 62.6898C 81.4544 61.471 81.0165 60.4427 80.8451 59.5857C 80.6737 58.805 80.2739 57.8147 79.7979 57.1101C 79.3219 56.4055 74.9426 51.9114 69.3257 46.3508C 63.9754 41.0759 54.0173 31.1925 47.1628 24.3942C 40.3083 17.5767 31.9877 9.31206 28.6747 5.99856L 22.6389 0L 20.2208 2.24708C 14.1279 7.78861 1.48514 20.8331 0.380807 22.6612L 1.16213e-06 23.3468L 3.61766 23.2516C 6.75931 23.1944 7.3686 23.1183 8.20637 22.7184C 8.89182 22.3946 10.872 20.5665 15.2132 16.1676C 18.5262 12.816 21.4394 9.76909 21.7059 9.42632L 22.1819 8.79789L 23.3053 9.76909C 25.4188 11.5782 31.9115 17.7862 37.8712 23.6705L 42.4027 28.1647L 45.2207 30.945C 45.7729 31.4972 46.5345 32.2399 47.3532 33.0397Z"/>
        <path id="path5_fill" d="M 51.047 0.116189C 50.9137 -0.226587 50.5329 0.116184 48.8003 2.13475C 46.763 4.49609 45.8871 5.88623 45.5825 7.2002C 45.1826 8.79982 45.0874 11.5992 45.2588 15.9981C 45.373 18.607 45.4111 21.9205 45.3159 23.3487L 45.1826 25.9576L 29.3601 26.0909C 20.6587 26.1481 13.5377 26.1861 13.4805 26.129C 13.4805 26.129 13.4805 26.0909 13.5186 26.0148C 11.824 26.0148 10.1104 26.0148 8.41581 26.0148L 8.39677 26.0909L 6.41658 26.1481C 5.75017 26.1671 5.15992 26.1481 4.79815 26.129C 4.18886 28.8141 2.49427 31.0612 -4.64851e-06 32.337C 0.514083 32.2609 1.35186 32.2609 3.02741 32.2609C 3.69382 32.2609 4.32214 32.2609 4.85527 32.2799L 8.85373 32.337L 29.5505 32.1847C 41.4317 32.0704 51.1613 31.9943 51.1993 31.9752C 51.4659 31.7086 51.6753 26.3575 51.6753 20.1114C 51.6753 12.399 51.3136 0.858868 51.047 0.116189Z"/>
        <path id="path6_fill" d="M 85.7245 8.9534L 87.876 8.89627L 87.1335 8.00124C 86.6955 7.52517 86.3528 7.03005 86.3528 6.93483C 86.3528 6.78249 90.0847 4.5735 91.2271 3.98316C 90.9796 3.75464 90.7701 3.54517 90.5607 3.35474L 88.809 3.37378C 87.5143 3.39283 85.6674 3.48804 84.7344 3.58326C 83.7252 3.69751 82.9255 3.69752 82.8303 3.56421C 82.6971 3.44996 80.5265 3.37378 77.9751 3.37378L 73.3102 3.37378L 71.9774 1.62182C 71.2348 0.669669 70.5874 -0.0539676 70.4922 0.00316156C 70.4351 0.0602907 69.8639 0.822015 69.2737 1.65991L 68.1693 3.16431L 34.2395 3.16431L 0.271649 3.14527L 0.138368 15.1233C -0.0520352 31.4432 -0.0520358 35.4423 0.176448 35.4423C 0.30973 35.4423 1.28078 34.6044 2.34704 33.5761C 5.92661 30.1483 6.07894 29.5009 6.13606 17.9036L 6.13606 9.29617L 32.0118 9.18192C 46.1397 9.10574 53.2037 9.10574 56.2882 9.18192L 84.0299 8.99149L 85.7245 8.9534Z"/>
        <path id="path7_fill" d="M 121.82 62.0994C 124.942 68.3455 125.913 70.0594 127.513 72.097L 128.408 73.2396C 128.408 72.4398 128.389 70.2308 128.332 68.4027C 128.313 68.3455 128.274 68.2313 128.236 68.098C 128.103 67.5648 127.894 66.5555 127.684 65.47C 127.208 63.0325 127.17 62.1566 127.151 56.4246C 127.151 49.5691 127.132 49.3025 126.199 45.7605C 124.238 38.2956 119.592 32.0495 111.728 26.4318C 110.815 25.7653 110.205 25.2321 110.415 25.2321C 111.386 25.2321 114.489 26.2223 116.431 27.1554C 117.821 27.8219 119.23 28.6979 120.754 29.8595C 117.802 26.9459 108.587 17.8053 99.9996 9.35014C 99.5998 9.38823 98.6668 9.42631 97.5625 9.44536C 92.8595 9.4644 89.6798 10.7593 85.5861 14.3013C 84.7864 14.9869 84.0819 15.5582 84.0058 15.5582C 83.8344 15.5582 85.1482 13.0255 85.8527 11.959C 87.6234 9.42632 90.5176 7.27445 93.7734 6.15091C 94.7445 5.80813 95.6965 5.52249 96.0392 5.46536C 94.3256 3.78957 92.6881 2.18995 91.203 0.723637L 90.4604 0.666508C 87.1474 0.399905 83.5298 1.14258 80.35 2.66603C 77.0561 4.26565 75.3805 5.67483 72.4864 9.40727C 72.1437 9.84526 72.1437 9.80718 72.3341 8.91215C 72.8482 6.5889 74.7332 3.06593 76.7133 0.780764L 77.3988 5.81148e-07L 51.523 0.114257C 51.961 0.1333 52.1894 0.171386 52.2466 0.209473C 52.8939 0.571291 54.7599 3.1421 55.5025 4.68459C 56.1117 5.8843 57.0447 8.64555 57.0447 9.14067C 57.0447 9.27397 56.1498 8.51225 55.0645 7.46488C 49.7523 2.43751 45.2969 0.285646 40.0989 0.285646C 36.367 0.285646 33.6823 1.00928 29.1316 3.25636L 26.2375 4.68459L 29.0364 4.97024C 32.0639 5.25588 33.2253 5.46536 35.3769 6.15091C 38.5566 7.16019 41.2603 8.96928 43.0501 11.2925C 43.8498 12.3209 45.6967 15.6915 45.6967 16.1104C 45.6967 16.2056 44.878 15.501 43.9069 14.587C 40.0227 10.9117 35.8338 9.25493 30.8262 9.38823C 29.8552 9.42632 29.0174 9.40727 28.5985 9.36919L 7.46379 30.7165C 10.2056 28.4884 13.0045 26.8698 15.613 26.0509C 17.1743 25.5558 19.2688 25.194 19.2688 25.3844C 19.2688 25.4415 18.8689 25.6891 18.3358 25.9366C 14.0708 28.0885 7.36859 35.6105 4.64583 41.3044C 2.62756 45.57 2.26579 47.779 2.07539 57.4339C 1.90403 65.6605 1.86595 65.908 0.609289 70.3451L 0.0571215 72.2494L 0.0571215 72.4779L -1.19055e-13 74.2679L 0.913935 73.43C 2.32292 72.1161 3.97942 69.4881 5.90249 65.4891C 6.85451 63.5467 8.24445 60.595 9.04414 58.9764C 11.5194 53.8157 13.4805 50.845 15.0799 49.8928C 15.613 49.5881 16.1081 49.3787 16.1462 49.4167C 16.2033 49.4548 15.4036 50.9592 14.3373 52.7493C 7.73036 63.9656 5.75017 69.0692 5.04568 76.6483C 4.47447 82.9516 6.01673 90.9497 8.87278 96.5293C 9.76767 98.2812 11.4623 100.719 11.6527 100.528C 11.6907 100.49 11.8621 99.1382 12.0525 97.5005C 12.7189 91.5971 13.8423 87.579 16.051 83.0468C 17.6884 79.6952 20.792 75.0868 21.9915 74.2489C 22.5056 73.9061 22.9626 73.6586 23.0197 73.7157C 23.0578 73.7728 22.3723 75.1439 21.4774 76.7245C 17.0791 84.475 16.1081 87.9218 16.3175 94.9677C 16.4127 98.2431 16.5079 99.081 17.0601 101.233C 17.4028 102.585 17.936 104.261 18.2406 104.927C 18.8689 106.355 20.2398 108.412 21.0395 109.174L 21.5917 109.688L 21.7059 109.174C 21.7631 108.888 21.9725 107.688 22.1629 106.508C 22.7912 102.547 23.9337 98.9858 25.6282 95.5962C 26.4279 94.0346 29.6457 89.6738 29.76 90.0165C 29.779 90.1118 29.2459 92.5112 28.5224 95.3676C 26.4089 103.766 25.8758 107.917 26.3518 112.202C 26.5612 114.087 27.0753 116.753 27.4942 118.086L 37.5284 127.436L 37.4332 126.979C 37.1286 125.608 37.0715 124.637 37.1667 121.818C 37.2809 118.486 37.7188 113.42 37.8902 113.573C 37.9283 113.611 38.2139 114.944 38.5185 116.544C 40.2702 125.779 42.3075 130.75 45.7348 134.196C 46.9724 135.453 49.4096 137.11 49.5238 136.786C 49.5619 136.672 49.4096 136.196 49.1811 135.758C 48.686 134.768 47.9435 132.444 47.715 131.283L 47.5627 130.426L 49.3715 132.121C 51.1232 133.797 53.2176 135.053 54.2077 135.053C 55.0645 135.053 56.4545 138.843 56.7782 141.985C 56.8734 142.804 56.9876 143.451 57.1018 143.451C 57.5398 143.451 59.4438 140.69 59.9769 139.338C 60.3006 138.5 60.6053 137.853 60.6243 137.891C 60.6624 137.929 60.6053 139.052 60.491 140.404C 60.3577 141.737 60.3196 142.88 60.3577 142.918C 60.5101 143.071 63.1567 141.699 63.9754 141.052L 64.8132 140.385L 66.3173 141.604L 67.8215 142.804L 68.1262 142.099C 68.2975 141.718 68.6022 140.804 68.8116 140.1C 69.1924 138.767 69.5352 138.138 69.5352 138.729C 69.5352 139.624 70.2777 141.376 71.1155 142.442C 71.6296 143.128 72.1056 143.585 72.1627 143.489C 72.2198 143.394 72.5245 142.156 72.8291 140.728C 73.5527 137.396 73.7811 136.596 74.2762 135.625L 74.676 134.806L 77.5702 134.806L 80.4643 134.806L 80.0264 135.891C 79.7979 136.501 79.6836 136.958 79.7598 136.958C 79.9502 136.958 81.4163 135.986 82.235 135.301C 82.5016 135.072 82.692 134.958 83.1299 134.882C 85.6242 133.606 87.3378 131.359 87.9281 128.674C 87.6996 128.655 87.5473 128.636 87.5473 128.598C 87.5473 128.503 87.8138 127.817 88.0994 127.074C 88.4041 126.294 89.1467 123.666 89.794 121.228C 90.4223 118.772 91.0697 116.486 91.2411 116.163L 91.5076 115.534L 91.8123 116.239C 91.9646 116.62 92.1931 117.496 92.3264 118.162C 92.631 119.8 92.4025 124.504 91.9075 126.808L 91.5457 128.56C 93.2403 128.56 94.9539 128.56 96.6485 128.56C 96.7437 128.35 96.9913 127.893 97.2959 127.417C 97.7338 126.751 98.4764 125.418 98.9905 124.446L 99.9425 122.656L 99.9615 122.656C 100.361 120.828 101.256 119.191 101.808 117.534C 101.866 117.153 102.056 116.125 102.303 114.963C 102.818 112.525 102.875 111.821 102.875 107.65C 102.875 103.461 102.818 102.794 102.303 100.338C 101.98 98.8525 101.256 96.1484 100.666 94.2822C 100.095 92.4541 99.5427 90.5688 99.4665 90.0927L 99.3332 89.2548L 99.9996 90.0165C 103.332 93.7299 104.722 96.6245 106.34 103.137C 107.216 106.755 108.13 109.593 108.358 109.593C 108.53 109.593 111.5 102.909 112.033 101.309C 113.042 98.3574 113.366 95.5009 113.08 92.0161C 112.604 85.9413 110.891 81.39 106.816 75.2391C 105.693 73.5443 104.855 72.1542 104.95 72.1542C 105.293 72.1542 108.853 75.8676 110.034 77.4481C 113.29 81.9042 115.194 87.122 117.06 97.1006L 117.764 100.871L 118.621 99.5762C 119.802 97.8242 121.287 94.8154 122.124 92.4921C 124.942 84.475 124.98 75.7152 122.22 66.784C 120.677 61.8138 119.135 58.9002 114.565 52.3113C 113.023 50.1023 111.824 48.217 111.881 48.1599C 111.938 48.1028 112.947 48.9978 114.128 50.1594C 116.926 52.9207 118.259 54.9773 121.82 62.0994ZM 94.516 29.1359C 94.5731 29.0787 94.8968 29.2882 95.2205 29.5929C 95.925 30.2785 96.1535 30.2975 96.6295 29.7643C 96.8389 29.5358 97.2959 29.2311 97.6386 29.0978C 98.267 28.8121 98.305 28.8693 100.171 30.6974C 101.218 31.7067 102.227 32.5446 102.418 32.5446C 103.065 32.5446 103.903 30.2975 103.998 28.298C 104.112 26.4699 103.598 23.442 103.141 23.1564C 102.684 22.8517 100.266 22.4518 99.1047 22.4518C 98.4574 22.4327 97.2578 22.5851 96.4201 22.7565C 94.6683 23.1373 94.5922 23.1373 94.5922 22.8898C 94.5922 22.6993 97.3149 21.5567 98.3431 21.2901C 99.5807 20.9855 101.58 21.1568 102.646 21.652C 104.969 22.7184 106.226 25.194 106.664 29.4977C 107.064 33.3063 106.188 39.1716 104.684 42.904C 104.303 43.8752 103.865 44.7131 103.712 44.7512C 103.408 44.8654 102.38 42.3327 101.504 39.3239C 100.723 36.7341 99.5427 33.8395 98.6097 32.2018L 98.0004 31.1735L 97.6957 31.8019C 97.5434 32.1637 97.2197 32.9254 96.9722 33.5158L 96.5153 34.5822L 95.468 31.9162C 94.8587 30.4499 94.4589 29.2121 94.516 29.1359ZM 72.3531 18.5099C 72.5054 15.9581 74.8284 12.0923 77.2655 10.2833C 77.989 9.75005 78.6364 9.35014 78.6745 9.40727C 78.7316 9.44536 78.2937 10.7022 77.7034 12.1685C 76.2944 15.6534 75.8756 17.1959 75.1901 21.5567C 74.8855 23.5372 74.5618 25.3273 74.4856 25.5558C 74.3523 25.8605 74.1239 25.4415 73.5336 23.9371C 72.4864 21.214 72.2389 20.1285 72.3531 18.5099ZM 60.6053 20.338C 60.7385 20.2047 61.7286 20.8331 62.4712 21.5187L 63.0424 22.0519L 63.2328 21.233C 63.3661 20.7569 63.6707 19.3668 63.9183 18.0719C 64.2039 16.796 64.4514 15.7677 64.5466 15.7677C 64.6037 15.7677 64.9464 16.9864 65.2892 18.5099C 66.146 22.4137 65.9365 22.1852 67.6502 20.6998C 68.4689 20.0143 69.1734 19.4811 69.1924 19.5001C 69.2876 19.5572 65.0607 30.7355 64.8322 31.0973C 64.7751 31.2497 64.6418 31.2116 64.5466 31.0402C 64.1658 30.3165 60.491 20.4522 60.6053 20.338ZM 58.6631 38.6193C 59.0059 39.0002 59.4628 39.7429 59.6723 40.257C 59.9769 40.9235 60.1864 41.1521 60.4148 41.0759C 60.5862 41.0187 60.8718 40.9426 61.0432 40.9426C 61.2145 40.9426 61.5573 40.4855 61.8238 39.9523C 62.0523 39.4191 62.3189 39.0573 62.395 39.1335C 62.4902 39.2477 63.0805 39.9904 63.7088 40.8283C 64.3372 41.6472 64.9274 42.4279 65.0226 42.5232C 65.1368 42.6374 65.5367 41.9899 65.9556 41.0759C 66.6601 39.4763 66.7362 39.4191 67.2313 39.6476C 67.5169 39.781 67.8406 40.1618 67.9548 40.5046C 68.0881 40.8474 68.2785 41.133 68.3927 41.133C 68.507 41.133 69.4971 40.1999 70.6014 39.0954C 72.4674 37.2292 72.9624 36.8102 72.9624 37.1721C 72.9624 37.2673 72.1437 38.7907 71.1536 40.5808C 70.1444 42.3708 68.964 44.5798 68.526 45.4939C 68.0691 46.427 67.6502 47.1697 67.555 47.1697C 67.4978 47.1697 67.2503 46.7126 67.0409 46.1604L 66.641 45.132L 66.3745 45.7795C 66.2221 46.1413 65.8033 47.322 65.4034 48.4075C 65.0226 49.512 64.6608 50.407 64.5656 50.407C 64.4704 50.407 64.0896 49.2834 63.6898 47.9314C 63.2899 46.5793 62.9091 45.4558 62.852 45.4558C 62.7949 45.4558 62.5283 45.8366 62.2427 46.3127C 61.9762 46.7888 61.6906 47.1697 61.5763 47.1697C 61.4621 47.1697 61.1193 46.5222 60.7957 45.7033C 60.491 44.9035 59.4057 42.7326 58.3966 40.8664C 57.3874 39.0002 56.6068 37.4196 56.683 37.3625C 56.8924 37.1721 58.0729 37.9147 58.6631 38.6193ZM 51.7134 10.1119C 53.6746 11.959 55.1407 13.9014 56.1498 15.9581C 56.8543 17.4244 56.9495 17.7481 56.9495 19.2906C 56.9495 20.9093 56.8543 21.214 55.8833 23.442C 55.274 24.775 54.7408 25.8795 54.6647 25.8795C 54.5504 25.8795 54.4933 25.3273 54.4933 24.6227C 54.4933 22.7945 53.6936 17.7862 53.0843 15.6343C 52.475 13.5396 51.3326 10.8545 50.571 9.86431C 49.2572 8.15043 49.7332 8.26469 51.7134 10.1119ZM 23.8004 24.318C 24.1812 22.6612 24.3145 22.3946 24.8095 22.2042C 27.1515 21.3092 30.2169 21.1188 32.0258 21.7472C 33.8727 22.4137 33.549 22.6422 30.8262 22.6803C 29.4934 22.6803 27.8559 22.8136 27.2086 22.9469C 26.0471 23.2135 26.0281 23.2325 25.7615 24.1656C 25.3997 25.5939 25.4188 29.3073 25.8186 31.2306C 26.009 32.1256 26.1994 32.9254 26.2756 33.0016C 26.3327 33.0588 27.3038 32.1256 28.4462 30.8878L 30.5216 28.6788L 31.9115 29.2692C 32.6922 29.612 33.3586 29.8976 33.3967 29.9166C 33.53 30.0309 32.7303 34.0871 32.5589 34.0871C 32.5018 34.0871 32.3304 33.63 32.2162 33.0968C 32.0448 32.2589 31.9115 32.0685 31.3213 31.8019C 30.6739 31.5353 30.6168 31.5353 30.5026 31.8971C 30.4454 32.0876 29.8171 33.7253 29.1316 35.5153C 28.4462 37.3054 27.5894 39.8571 27.2276 41.1711C 26.8468 42.5041 26.2946 44.1037 25.99 44.6941C 25.3236 46.0461 25.3807 46.1985 24.3335 41.4758C 22.5818 33.6872 22.4866 29.9738 23.8004 24.318ZM 13.9946 45.3796C 11.5765 47.5124 10.0342 49.4167 8.62525 52.1399C 7.4638 54.387 6.87354 55.1106 7.12107 54.0061C 7.17819 53.7395 7.31147 53.073 7.44476 52.5398C 8.35869 48.1218 11.5384 42.7898 15.4036 39.1144C 16.9459 37.6481 19.5353 35.7819 20.0304 35.7819C 20.1827 35.7819 20.335 36.1818 20.4112 36.6769C 20.4683 37.1911 20.5826 38.3337 20.6778 39.2287L 20.811 40.8664L 20.1066 41.1521C 18.907 41.6662 15.8225 43.8181 13.9946 45.3796ZM 11.4051 81.2377C 11.0814 82.2851 10.7197 83.123 10.6054 83.123C 10.1294 83.123 11.1386 76.8768 12.281 72.6874C 13.8613 66.8983 15.6321 64.5941 20.5635 61.928C 22.3343 60.9759 22.9055 60.7854 22.9055 61.1282C 22.9055 61.3948 22.2771 62.2518 20.8872 63.8704C 17.6123 67.7171 13.1188 75.9437 11.4051 81.2377ZM 21.5917 70.0023C 20.8491 70.5926 20.2017 70.9735 20.1446 70.8783C 20.0113 70.5164 21.0205 68.2313 22.1819 66.2889C 22.8293 65.1844 24.3716 62.9564 25.5902 61.3377C 27.7988 58.4051 29.2649 56.0818 29.0555 55.8723C 28.9984 55.8152 26.5231 56.7293 23.5528 57.9671C 20.5635 59.1668 18.0883 60.0999 18.0121 60.0237C 17.8217 59.8143 19.4021 57.1673 20.7158 55.5105C 21.4013 54.6726 22.5437 53.4729 23.2482 52.8445C 24.562 51.7019 27.7227 49.3787 28.2177 49.1882C 28.37 49.1311 28.8841 49.3977 29.3982 49.8166C 30.5978 50.8069 31.1118 51.0735 31.8735 51.0735C 32.4827 51.0735 32.5018 51.0354 32.6541 49.7405C 33.1301 45.113 34.7105 42.2375 38.2139 39.6286C 39.8513 38.4289 40.2893 38.1813 40.2893 38.5432C 40.2893 38.8859 39.0136 40.676 37.8711 41.9899C 37.2047 42.7136 36.5002 43.6277 36.3289 43.9704C 35.7767 45.0368 35.3578 47.2268 35.3578 49.1501C 35.3578 51.5115 36.0433 53.054 37.3951 53.7395C 39.0136 54.5584 44.421 54.4251 46.4774 53.511L 47.277 53.1682L 46.306 52.8635C 45.7729 52.7112 44.6304 52.4636 43.7927 52.3303C 42.9359 52.197 42.2314 52.0066 42.2314 51.9304C 42.2314 51.8352 43.1263 51.6067 44.2306 51.4163C 47.4865 50.8259 48.21 51.2068 51.3326 55.0535C 52.3798 56.3484 53.5223 58.1575 54.5885 60.157C 55.4834 61.8519 56.3402 63.4324 56.5306 63.6609C 56.702 63.8895 56.8353 64.1751 56.8353 64.2894C 56.8353 64.4988 56.8353 64.4988 55.1026 63.7371L 53.884 63.1849L 53.3128 66.1937C 52.9891 67.8504 52.6464 69.1263 52.5703 69.0311C 52.4751 68.9359 52.1894 67.2601 51.9038 65.3558C 51.2946 61.1473 51.4088 61.2615 48.0006 61.0901C 46.801 61.033 45.3349 60.8045 44.7828 60.6331C 43.5452 60.2522 43.2595 60.4236 43.2595 61.5281C 43.2595 61.928 43.2024 62.2899 43.1072 62.2899C 42.4789 62.2899 40.1179 58.6526 40.1179 57.6814C 40.1179 57.51 39.5848 57.0911 38.9374 56.8055C 37.9473 56.3103 37.5475 56.2151 36.5193 56.3103C 33.7204 56.5198 31.8354 58.4051 30.5978 62.2137C 30.0646 63.8323 29.0364 64.8797 25.8567 67.0316C 24.2383 68.0599 22.3533 69.3929 21.5917 70.0023ZM 25.4569 86.2651C 24.9428 87.9218 22.6579 92.9492 21.8963 94.0918L 21.4013 94.8535L 21.4013 93.8442C 21.4013 92.5112 22.1439 88.1503 22.7151 86.2651C 23.2292 84.4941 24.3906 81.9232 25.0761 80.933C 25.533 80.3236 25.5711 80.3046 25.7234 80.6664C 25.8186 80.8759 25.8948 81.9232 25.8948 82.9325C 25.9138 84.2655 25.7806 85.2367 25.4569 86.2651ZM 67.555 130.921C 65.8413 133.263 65.2511 134.558 64.9655 136.691C 64.8132 137.643 64.6418 138.443 64.5847 138.443C 64.5276 138.424 64.0135 137.415 63.4232 136.177C 62.5093 134.235 62.357 133.701 62.2618 132.254C 62.1094 129.645 62.2808 129.512 62.9472 131.645C 63.5565 133.53 63.5565 133.568 63.804 132.94C 64.0896 132.292 66.0127 130.483 67.7834 129.226C 68.8497 128.445 68.8878 128.426 68.8878 128.826C 68.8687 128.979 68.2785 129.931 67.555 130.921ZM 70.9061 120.885C 70.3539 122.542 69.0401 125.513 68.8878 125.513C 68.7926 125.513 68.4118 124.732 68.031 123.799C 67.6311 122.847 67.2884 122.085 67.2313 122.085C 67.1932 122.085 66.5839 123.228 65.8985 124.599L 64.6228 127.112L 63.2709 124.694C 62.5474 123.38 61.8619 122.352 61.7477 122.39C 61.4811 122.561 61.1193 123.989 61.1193 124.808C 61.1193 125.17 61.0241 125.57 60.9099 125.627C 60.7957 125.684 60.7005 125.627 60.7005 125.475C 60.7005 125.265 60.6433 125.284 60.491 125.513C 60.2816 125.856 60.3577 126.027 58.9868 122.39C 58.0348 119.914 57.159 116.048 57.5398 116.048C 57.5588 116.048 58.2062 116.239 58.9868 116.486C 59.7675 116.715 60.4529 116.924 60.5101 116.924C 60.6053 116.924 60.967 116.144 61.3478 115.211C 61.7286 114.258 62.1285 113.497 62.2237 113.497C 62.3379 113.497 62.4141 114.62 62.4141 115.972C 62.4141 118.334 62.4331 118.448 62.9282 118.772C 63.2899 119 63.8231 119.095 64.718 119.057C 65.9365 119 65.9556 118.962 66.3745 118.124C 66.6601 117.534 66.8314 116.639 66.8885 115.268C 66.9266 114.182 67.0218 113.287 67.0599 113.287C 67.079 113.287 67.4217 114.258 67.8025 115.439C 68.2023 116.62 68.6212 117.591 68.7545 117.591C 68.8687 117.591 69.5352 117.248 70.2396 116.829C 70.9251 116.391 71.5534 116.125 71.6105 116.182C 71.82 116.353 71.3059 119.705 70.9061 120.885ZM 100.419 80.4188C 100.399 80.4569 99.8854 80.2665 99.238 80.038C 98.5335 79.8475 97.9433 79.7523 97.8671 79.8285C 97.7719 79.9237 97.6005 80.5331 97.4673 81.2187C 97.3149 81.8852 96.5153 83.8085 95.6775 85.4843C 93.8877 89.1215 93.7163 89.8832 93.3546 96.2436C 93.2022 98.6811 93.0118 100.814 92.9166 100.985C 92.7833 101.195 92.4216 100.643 91.6219 98.9858C 90.5937 96.834 89.6417 95.3867 89.2609 95.3867C 89.1657 95.3867 88.9943 95.9008 88.8801 96.5102C 86.9951 105.441 86.7666 107.174 87.1093 110.545C 87.2997 112.43 87.2997 113.63 87.1093 115.744C 86.957 117.267 86.7666 118.695 86.6714 118.924C 86.5381 119.286 86.5001 119.248 86.2716 118.6C 86.1383 118.2 85.8336 117.039 85.6052 115.991C 85.2243 114.201 84.2723 111.954 83.9296 111.954C 83.663 111.954 82.5778 113.154 81.5877 114.544C 81.1116 115.191 79.4742 116.962 77.951 118.448C 75.9137 120.428 74.8664 121.304 73.9335 121.742C 73.229 122.066 72.6197 122.275 72.5626 122.218C 72.5054 122.161 72.9053 121.59 73.4575 120.962C 75.7994 118.353 77.7225 115.001 78.3889 112.392C 78.9411 110.278 78.7507 107.517 77.951 105.822C 77.018 103.88 74.5808 101.538 72.2579 100.395C 69.8969 99.2334 68.3737 98.8525 65.5557 98.6811C 59.0249 98.3193 53.4271 101.062 51.2374 105.727C 50.7233 106.813 50.6853 107.155 50.6853 109.593C 50.7043 112.106 50.7424 112.392 51.3898 114.011C 52.1323 115.953 54.0554 118.962 55.7119 120.866C 56.3212 121.571 56.7591 122.199 56.702 122.237C 56.5306 122.428 53.865 121.038 52.6274 120.066C 51.2946 119.076 50.6472 118.315 48.0767 114.83C 46.306 112.468 45.4492 111.421 45.3349 111.554C 45.2778 111.592 44.9541 112.278 44.5924 113.078C 44.0212 114.373 43.2976 117.477 43.2976 118.733C 43.2976 119.019 43.2024 119.248 43.1263 119.248C 42.7645 119.248 42.2314 112.83 42.2314 108.603C 42.2314 103.023 41.6792 99.519 40.3273 96.5483L 39.7561 95.2534L 38.1758 98.3384C 36.8811 100.814 36.5383 101.309 36.4241 100.966C 36.3289 100.7 36.1575 98.7573 36.0433 96.6054C 35.6815 89.9975 35.6625 89.9213 33.7965 85.9033C 33.054 84.3036 32.1781 82.266 31.8925 81.39C 31.5878 80.5141 31.2451 79.7714 31.1499 79.7904C 31.0166 79.8095 30.5978 79.8285 30.2169 79.8475C 29.8361 79.8856 29.6457 79.9618 29.779 80.0189C 29.9123 80.057 30.0456 80.2094 30.0456 80.3236C 30.0456 80.5521 29.5886 80.5521 29.2078 80.3236C 28.7508 80.038 29.7219 75.4296 30.7501 72.992C 30.9405 72.516 31.0166 72.6302 31.2451 74.0775C 31.3784 74.9535 31.683 76.3246 31.8735 77.0863C 32.3685 79.0097 33.8536 82.0756 35.0722 83.6942C 35.91 84.8178 37.8711 86.5507 38.271 86.5507C 38.3281 86.5507 38.0616 85.7128 37.6427 84.7035C 37.2428 83.6752 36.9382 82.7802 36.9953 82.7231C 37.0524 82.6659 38.9755 82.9897 41.2222 83.4086C 43.5261 83.8656 45.4111 84.1132 45.4682 84.018C 45.9061 83.3515 47.7721 81.1806 47.9244 81.1806C 48.1529 81.1806 48.1148 81.5805 47.6579 83.1801C 47.0105 85.5414 46.4393 85.9413 43.012 86.3412C 41.9648 86.4745 41.0509 86.6078 41.0318 86.6459C 40.9747 86.703 41.3555 91.0639 41.5269 92.0922L 41.6411 92.7778L 44.44 92.8349L 47.258 92.892L 45.0874 94.3584L 42.9168 95.8247L 43.3548 96.6435C 43.5642 97.1006 44.0212 97.7671 44.3258 98.1479C 44.9732 98.9097 45.6396 98.9858 47.734 98.5859C 48.4004 98.4336 49.0097 98.3955 49.0859 98.4717C 49.162 98.5478 48.6099 99.2334 47.8863 99.9761L 46.5345 101.347L 47.0295 101.671C 47.3151 101.842 48.0387 102.28 48.6479 102.642L 49.7523 103.29L 50.5901 102.928C 51.047 102.718 52.1704 101.938 53.0843 101.214C 55.5977 99.1953 56.9114 98.5098 60.2625 97.4243C 61.9381 96.872 63.4613 96.2627 63.6136 96.0913C 64.0706 95.5581 63.9563 90.0737 63.4613 88.1694C 63.0043 86.3984 61.9 83.7514 61.5953 83.7514C 61.4621 83.7514 61.443 83.9228 61.5382 84.1132C 61.6334 84.3227 61.7286 84.6274 61.8048 84.7607C 61.9952 85.2367 60.9099 85.0844 58.3775 84.2655C 53.5413 82.704 52.6464 81.828 52.3037 78.5145C 52.0752 76.2484 52.1133 76.2294 54.5504 77.7338C 56.3402 78.8002 56.7782 78.9906 57.1209 78.8002C 57.9206 78.3622 59.2724 78.5336 61.1765 79.3334C 63.7088 80.3808 65.5557 80.4188 68.0119 79.4286C 70.5443 78.4193 71.5725 78.3432 73.2099 79.2001C 73.9335 79.5619 74.657 79.8666 74.7903 79.8666C 74.9426 79.8476 75.4376 79.0668 75.8946 78.0956C 76.3516 77.1244 76.7705 76.4388 76.8847 76.5531C 76.9799 76.6674 77.1703 77.0482 77.3226 77.41C 77.5511 78.0385 77.513 78.267 76.8847 79.7523C 76.104 81.6376 75.2663 82.723 74.1429 83.2753C 73.229 83.7514 70.5633 84.5321 68.5641 84.894C 67.2313 85.1225 67.117 85.1986 66.6601 86.0365C 65.7461 87.7314 65.2701 92.1113 65.67 95.5009C 65.8033 96.5483 65.8413 96.6245 66.5649 96.7578C 70.4491 97.4814 73.8192 99.062 76.4277 101.347C 77.475 102.299 78.5603 103.175 78.8078 103.309C 79.4361 103.632 80.0073 103.366 81.6257 102.014L 82.9776 100.852L 81.74 99.7095C 81.0736 99.1001 80.5595 98.5288 80.6166 98.4526C 80.6737 98.3955 81.302 98.4336 81.9875 98.5669C 83.8725 98.9287 84.5199 98.8716 85.0149 98.3003C 85.4909 97.7671 86.5762 95.9199 86.5762 95.6342C 86.5762 95.52 86.0621 95.1772 85.4528 94.8725C 84.8245 94.5678 83.8344 93.9775 83.2442 93.5395L 82.1779 92.7588L 84.6722 92.7588C 88.1566 92.7588 88.1756 92.7397 88.2518 89.4453L 88.347 86.9506L 87.7948 86.7411C 87.4901 86.6269 86.3097 86.3603 85.2053 86.1127C 84.0629 85.9032 82.9776 85.5605 82.7301 85.332C 82.3302 84.9701 81.283 81.1996 81.5305 80.9711C 81.6829 80.8187 81.5877 80.7045 82.9205 82.7231C 83.8344 84.1132 84.101 84.3608 84.5008 84.2655C 85.034 84.1322 92.6691 82.6469 92.7453 82.6469C 92.7833 82.6469 92.3073 83.6181 91.7361 84.8178C 90.4414 87.3696 90.6699 87.3696 93.2403 84.8178C 95.3157 82.7611 95.8108 81.8852 96.7818 78.5907C 97.5244 75.9628 98.743 72.954 99.0286 72.954C 99.1428 72.954 100.514 80.2665 100.419 80.4188ZM 109.234 70.9735C 109.177 71.0116 108.434 70.4212 107.616 69.6214C 106.778 68.8216 105.064 67.5648 103.789 66.784C 98.6858 63.68 98.8572 63.8133 98.6858 62.4612C 98.3622 59.7952 96.877 57.8147 94.4779 56.7293C 91.5648 55.4344 90.4033 55.8914 88.823 58.8811C 88.2898 59.9095 87.6425 60.9759 87.414 61.2234L 86.938 61.6805L 86.2525 61.0711C 85.6242 60.5569 85.4338 60.5188 84.6722 60.6331C 84.1962 60.7283 82.4635 60.8235 80.807 60.8616L 77.7986 60.9568L 77.3036 64.556C 76.6562 69.2596 76.5991 69.3167 76.085 65.908C 75.8946 64.6512 75.7042 63.5467 75.6471 63.3944C 75.59 63.2039 75.1901 63.261 74.2762 63.6038C 73.5717 63.8704 72.9243 64.0037 72.8672 63.9276C 72.772 63.8323 73.0576 63.3372 73.4955 62.8231C 74.4666 61.6424 74.9045 60.5569 74.9045 59.4524C 74.9045 58.6145 75.0949 58.3479 77.6082 55.4534C 80.6166 51.9876 81.4353 51.283 82.3302 51.283C 83.3584 51.283 86.9189 51.7971 86.9189 51.9495C 86.9189 52.0447 85.8717 52.3494 84.5579 52.6731C 83.2632 52.9968 82.197 53.3396 82.197 53.4348C 82.197 53.8728 84.596 54.1966 87.6805 54.1585C 90.3081 54.1585 91.1078 54.0632 92.0789 53.7205L 93.2594 53.3206L 93.6211 51.9304C 94.1352 49.9499 94.1162 47.6838 93.583 46.1032C 93.088 44.6369 92.9357 44.3894 91.222 41.9328C 89.6607 39.7238 88.9943 38.6003 89.2419 38.6003C 89.3561 38.6003 90.0415 38.9811 90.7651 39.4572C 93.7354 41.3996 95.5823 44.237 96.3629 48.0647C 96.5914 49.1882 96.8009 50.426 96.8009 50.8069C 96.8009 51.1877 96.896 51.5115 96.9722 51.5115C 97.0865 51.5115 97.5815 51.1877 98.0956 50.8069C 100.571 48.9216 101.142 48.9216 103.408 50.6926C 105.559 52.4065 107.711 54.5965 109.139 56.5388C 110.472 58.3289 111.538 60.1189 111.271 60.1189C 110.738 60.1189 102.665 56.8054 100.323 55.6248C 99.5807 55.263 98.9714 54.9964 98.9714 55.0725C 98.9714 55.1487 100.266 56.8626 101.827 58.9002C 105.121 63.1468 106.302 64.8035 107.521 66.8983C 108.396 68.4027 109.406 70.8021 109.234 70.9735ZM 116.184 69.6976C 117.517 73.392 118.773 80.0951 118.659 82.7231L 118.602 84.0942L 118.202 83.0277C 114.032 72.1161 111.405 67.0125 107.559 62.5755C 105.731 60.4427 105.769 60.3284 107.939 61.5472C 112.909 64.3084 114.984 66.3651 116.184 69.6976ZM 108.644 40.7902C 108.415 40.6569 108.396 40.1809 108.625 37.9909C 108.758 36.5436 108.93 35.363 108.987 35.363C 109.044 35.363 109.824 35.8962 110.719 36.5627C 113.061 38.3337 116.869 42.2375 118.431 44.5608C 120.83 48.0647 122.334 52.0637 122.334 54.825L 122.315 55.9104L 121.629 54.0823C 120.677 51.6067 119.268 49.4929 116.907 47.0364C 114.375 44.4084 112.814 43.2277 108.644 40.7902Z"/>
        <path id="path8_fill" d="M 0 1.71388L 0.952012 0L 1.52322 1.71388L 0.952012 3.04689L 0 1.71388Z"/>
    </defs>
</svg>