<svg width="109" height="63" viewBox="0 0 109 63" version="1.1" xmlns="http://www.w3.org/2000/svg" xmlns:xlink="http://www.w3.org/1999/xlink">
<title>Vector</title>
<desc>Created using Figma</desc>
<g id="Canvas" transform="translate(-1719 -9816)">
<g id="Vector">
<use xlink:href="#path0_fill" transform="translate(1719 9816)"/>
<use xlink:href="#path0_fill" transform="translate(1719 9816)" fill="url(#paint1_linear)"/>
<use xlink:href="#path1_fill" transform="translate(1719 9816)"/>
<use xlink:href="#path1_fill" transform="translate(1719 9816)" fill="url(#paint3_linear)"/>
<use xlink:href="#path2_fill" transform="translate(1719 9816)"/>
<use xlink:href="#path2_fill" transform="translate(1719 9816)" fill="url(#paint5_linear)"/>
</g>
</g>
<defs>
<linearGradient id="paint1_linear" x1="0" y1="0" x2="1" y2="0" gradientUnits="userSpaceOnUse" gradientTransform="matrix(77.1531 -37.1544 -78.45 -36.1914 52.6665 76.6864)">
<stop offset="0" stop-color="#E9B760"/>
<stop offset="0.138122" stop-color="#F7F2A8"/>
<stop offset="0.39779" stop-color="#FDDC7E"/>
<stop offset="0.790055" stop-color="#E4B25B"/>
<stop offset="0.98895" stop-color="#F6CA6B"/>
</linearGradient>
<linearGradient id="paint3_linear" x1="0" y1="0" x2="1" y2="0" gradientUnits="userSpaceOnUse" gradientTransform="matrix(77.1531 -37.1544 -78.45 -36.1914 52.6665 76.6864)">
<stop offset="0" stop-color="#E9B760"/>
<stop offset="0.138122" stop-color="#F7F2A8"/>
<stop offset="0.39779" stop-color="#FDDC7E"/>
<stop offset="0.790055" stop-color="#E4B25B"/>
<stop offset="0.98895" stop-color="#F6CA6B"/>
</linearGradient>
<linearGradient id="paint5_linear" x1="0" y1="0" x2="1" y2="0" gradientUnits="userSpaceOnUse" gradientTransform="matrix(77.1531 -37.1544 -78.45 -36.1914 52.6665 76.6864)">
<stop offset="0" stop-color="#E9B760"/>
<stop offset="0.138122" stop-color="#F7F2A8"/>
<stop offset="0.39779" stop-color="#FDDC7E"/>
<stop offset="0.790055" stop-color="#E4B25B"/>
<stop offset="0.98895" stop-color="#F6CA6B"/>
</linearGradient>
<path id="path0_fill" d="M 95.5798 2.47869C 91.3144 6.54098 90.9676 7.16066 90.9676 10.4656L 90.9676 13.2541L 86.7716 17.4197C 82.6797 21.482 82.5063 21.6197 81.2926 21.4475C 78.6224 21.1033 75.3627 22.7902 74.1143 25.1656C 73.8369 25.7164 73.5941 27.0934 73.5941 28.2639C 73.4901 34.9771 81.57 37.5934 85.9047 32.2574C 86.8063 31.1557 86.9797 30.6049 87.0837 28.6082L 87.2225 26.2672L 91.6612 22.0672L 96.0999 17.9016L 98.5967 17.9016C 99.9492 17.9016 101.406 17.7295 101.822 17.523C 103.105 16.8689 109 10.9131 109 10.259C 109 9.91475 108.896 9.63934 108.757 9.63934C 104.284 9.60492 100.4 9.39836 100.088 9.1918C 99.7758 8.98525 99.6371 7.7459 99.6371 4.9918C 99.6371 0.757377 99.4983 0 98.7008 0C 98.4233 0 97.0015 1.13607 95.5798 2.47869Z"/>
<path id="path1_fill" d="M 76.6803 6.54114C 70.0569 7.71163 63.8843 11.9461 60.9714 17.2477C 59.8617 19.3133 59.9657 20.9313 61.3875 22.0329C 62.2544 22.7215 63.9883 22.928 65.1327 22.5149C 65.4448 22.3772 66.277 21.4133 67.0053 20.3461C 68.8432 17.6608 71.2013 15.5952 73.9061 14.3215C 76.1602 13.2887 76.4029 13.2543 81.0497 13.2198C 85.8699 13.1854 85.8699 13.1854 86.7022 12.2559C 87.5691 11.2575 87.7772 9.39852 87.1183 8.1936C 86.9102 7.81491 86.2167 7.29852 85.5578 7.02311C 84.1014 6.40344 78.8997 6.12803 76.6803 6.54114Z"/>
<path id="path2_fill" d="M 36.1423 14.9413C 34.6164 15.802 33.6801 18.556 33.4374 22.8938C 33.2293 26.5774 33.1947 26.7839 32.085 28.161C 31.01 29.5036 30.0043 30.2954 29.3801 30.2954C 29.2414 30.2954 29.2414 27.438 29.3801 23.961C 29.4841 20.4839 29.4841 17.3856 29.3801 17.0757C 29.1027 16.3183 27.4382 15.4921 26.2938 15.4921C 24.664 15.4921 23.3809 16.4905 20.7454 19.7954C 19.2889 21.5856 17.9712 23.0659 17.7978 23.0659C 17.5897 23.0659 17.451 21.9298 17.451 20.5183C 17.451 16.2839 16.7228 15.1479 14.0179 15.1479C 12.8736 15.1479 12.4921 15.3544 11.6252 16.3528C 11.105 17.0069 10.0993 18.5905 9.47514 19.8298C 7.49851 23.6167 6.70093 23.6511 6.70093 19.9331C 6.70093 18.0052 6.56222 17.42 6.00737 16.8692C 4.55091 15.4233 1.95009 16.4216 0.736371 18.8659C -0.0265377 20.4151 -0.0612154 20.7593 0.0428176 28.0577C 0.146851 37.0774 0.320239 37.6282 2.95574 37.8003C 5.20979 37.938 5.93802 37.1118 7.94932 32.2233C 10.6195 25.7167 11.3824 25.5101 11.3824 31.3626C 11.3824 33.7724 11.5558 35.5626 11.7985 36.0102C 12.8042 37.7315 16.1333 37.938 17.3816 36.32C 17.7631 35.8724 18.63 33.9446 19.3583 32.0511C 20.676 28.5052 21.543 27.3003 22.4793 27.6446C 22.8954 27.8167 22.9994 28.5397 22.9994 31.5003C 22.9994 35.1151 22.9994 35.1151 24.1438 36.3544C 25.0454 37.3528 25.6003 37.6282 26.8833 37.7659C 28.8946 38.0069 31.3567 36.7675 32.8479 34.7708C 33.4374 34.0134 33.9922 33.3938 34.131 33.3938C 34.235 33.3938 34.5471 33.8413 34.7898 34.4265C 35.31 35.7003 37.9455 38.1101 39.0899 38.42C 40.8237 38.8331 42.5229 38.2479 44.0834 36.6298C 45.5399 35.1151 45.5399 35.1151 45.5399 36.0446C 45.5399 36.8364 45.0544 37.3528 42.731 39.0741C 39.1939 41.6561 37.1826 43.8593 35.7608 46.7511C 34.7551 48.7479 34.6164 49.402 34.6164 51.6397C 34.6164 53.7741 34.8245 54.6003 35.5874 56.1839C 37.2519 59.5233 41.7947 63.0003 44.5343 63.0003C 48.4528 63.0003 50.3254 58.7659 51.7472 46.4757C 52.5448 39.6593 52.3367 40.0724 56.1859 38.179C 57.5037 37.5249 58.5787 37.1806 58.9948 37.3183C 59.3763 37.4561 60.2779 38.5233 61.0061 39.6938C 63.8497 44.3069 68.0804 47.7151 73.1433 49.4708C 75.6054 50.3315 76.3337 50.4347 80.3909 50.4003C 84.4136 50.4003 85.1765 50.297 87.3612 49.4708C 91.3144 47.9905 93.0483 46.8888 96.0306 43.8938C 100.573 39.3839 102.411 34.8741 102.411 28.3331C 102.411 24.0298 101.926 22.5839 100.261 21.8954C 98.8048 21.2757 97.487 21.5167 96.4467 22.6183C 95.7185 23.4101 95.6491 23.7544 95.6144 27.6446C 95.6144 32.5675 95.0249 34.461 92.4934 37.8692C 87.9507 43.997 78.5877 45.6839 71.9643 41.5183C 68.878 39.5905 66.5199 36.5265 65.2715 32.8085C 64.786 31.3626 64.2658 30.4331 63.6763 30.0544C 62.4279 29.2282 59.7924 29.3659 56.4634 30.4331C 54.9375 30.9151 53.5504 31.2593 53.3424 31.2249C 52.7529 31.0872 53.169 26.1642 54.1053 22.3085C 55.215 17.8331 55.0416 16.4905 53.2037 15.2511C 51.227 13.9085 49.2504 14.3905 48.1754 16.4561C 47.898 16.9724 47.2738 19.3134 46.7536 21.6888C 45.4359 27.8167 43.9101 30.3298 41.8641 29.8134C 41.2746 29.6413 40.9625 29.2282 40.6504 28.1265C 40.1302 26.1642 40.4076 22.4118 41.2399 21.2069C 41.6213 20.5528 41.8641 19.5544 41.8641 18.3839C 41.8988 16.8347 41.76 16.3872 40.9971 15.6298C 39.8528 14.5282 37.4947 14.1839 36.1423 14.9413Z"/>
</defs>
</svg>
