<svg width="200" height="179" viewBox="0 0 200 179" version="1.1" xmlns="http://www.w3.org/2000/svg" xmlns:xlink="http://www.w3.org/1999/xlink">
<title>Vector</title>
<desc>Created using Figma</desc>
<g id="Canvas" transform="translate(-15377 -12466)">
<g id="Vector">
<use xlink:href="#path0_fill" transform="translate(15377 12466)"/>
<use xlink:href="#path0_fill" transform="translate(15377 12466)" fill="url(#paint1_linear)"/>
</g>
</g>
<defs>
<linearGradient id="paint1_linear" x1="0" y1="0" x2="1" y2="0" gradientUnits="userSpaceOnUse" gradientTransform="matrix(150.673 137.119 -153.206 133.565 102.853 -50.5098)">
<stop offset="0" stop-color="#E9B760"/>
<stop offset="0.138122" stop-color="#F7F2A8"/>
<stop offset="0.39779" stop-color="#FDDC7E"/>
<stop offset="0.790055" stop-color="#E4B25B"/>
<stop offset="0.98895" stop-color="#F6CA6B"/>
</linearGradient>
<path id="path0_fill" d="M 0 134.25L 55.5556 134.25L 55.5556 111.875L 0 111.875L 0 134.25ZM 72.2222 134.25L 127.778 134.25L 127.778 111.875L 72.2222 111.875L 72.2222 134.25ZM 144.444 134.25L 200 134.25L 200 111.875L 144.444 111.875L 144.444 134.25ZM 0 179L 22.2222 179L 22.2222 156.625L 0 156.625L 0 179ZM 44.4444 179L 66.6667 179L 66.6667 156.625L 44.4444 156.625L 44.4444 179ZM 88.8889 179L 111.111 179L 111.111 156.625L 88.8889 156.625L 88.8889 179ZM 133.333 179L 155.556 179L 155.556 156.625L 133.333 156.625L 133.333 179ZM 177.778 179L 200 179L 200 156.625L 177.778 156.625L 177.778 179ZM 0 89.5L 88.8889 89.5L 88.8889 67.125L 0 67.125L 0 89.5ZM 111.111 89.5L 200 89.5L 200 67.125L 111.111 67.125L 111.111 89.5ZM 0 0L 0 44.75L 200 44.75L 200 0L 0 0Z"/>
</defs>
</svg>
