<svg width="176" height="52" viewBox="0 0 176 52" version="1.1" xmlns="http://www.w3.org/2000/svg" xmlns:xlink="http://www.w3.org/1999/xlink">
<title>Canvas.svg</title>
<desc>Created using Figma</desc>
<g id="Canvas" transform="translate(532 623)">
<g id="logo">
<g id="Vector">
<use xlink:href="#path0_fill" transform="translate(-521.498 -588.063)" fill="url(#paint0_linear)"/>
</g>
<g id="Vector">
<use xlink:href="#path1_fill" transform="translate(-496.709 -615.397)" fill="url(#paint1_linear)"/>
</g>
<g id="Vector">
<use xlink:href="#path2_fill" transform="matrix(-1 0 0 -1 -516.227 -578.502)" fill="url(#paint2_linear)"/>
</g>
<g id="Vector">
<use xlink:href="#path3_fill" transform="translate(-497.277 -602.815)" fill="url(#paint3_linear)"/>
</g>
<g id="Vector">
<use xlink:href="#path4_fill" transform="translate(-532 -612.18)" fill="url(#paint4_linear)"/>
</g>
<g id="Vector">
<use xlink:href="#path5_fill" transform="translate(-512.378 -623)" fill="url(#paint5_linear)"/>
</g>
<g id="Vector">
<use xlink:href="#path6_fill" transform="translate(-501.613 -586.984)" fill="url(#paint6_linear)"/>
</g>
<g id="Vector">
<use xlink:href="#path7_fill" transform="translate(-524.591 -616.164)" fill="url(#paint7_linear)"/>
</g>
<g id="Vector">
<use xlink:href="#path8_fill" transform="translate(-523.025 -613.779)" fill="#FFFFFF"/>
</g>
<g id="Vector 6">
<use xlink:href="#path9_fill" transform="translate(-511.059 -599.189)" fill="#FFFFFF"/>
</g>
<g id="Vector 6">
<use xlink:href="#path9_fill" transform="matrix(-1 0 0 1 -501.642 -599.189)" fill="#FFFFFF"/>
</g>
</g>
<g id="BIGLIONS">
<use xlink:href="#path10_fill" transform="translate(-469 -614)" fill="#FFFFFF"/>
</g>
</g>
<defs>
<linearGradient id="paint0_linear" x1="0" y1="0" x2="1" y2="0" gradientUnits="userSpaceOnUse" gradientTransform="matrix(22.3128 0 0 16.376 -1.01932 0.343833)">
<stop offset="0" stop-color="#E9B760"/>
<stop offset="0.1381" stop-color="#F7F2A8"/>
<stop offset="0.3978" stop-color="#FDDC7E"/>
<stop offset="0.7901" stop-color="#E4B25B"/>
<stop offset="0.989" stop-color="#F6CA6B"/>
</linearGradient>
<linearGradient id="paint1_linear" x1="0" y1="0" x2="1" y2="0" gradientUnits="userSpaceOnUse" gradientTransform="matrix(8.95148 0 0 22.073 -0.408931 0.463448)">
<stop offset="0" stop-color="#E9B760"/>
<stop offset="0.1381" stop-color="#F7F2A8"/>
<stop offset="0.3978" stop-color="#FDDC7E"/>
<stop offset="0.7901" stop-color="#E4B25B"/>
<stop offset="0.989" stop-color="#F6CA6B"/>
</linearGradient>
<linearGradient id="paint2_linear" x1="0" y1="0" x2="1" y2="0" gradientUnits="userSpaceOnUse" gradientTransform="matrix(8.95147 0 0 22.073 -0.40893 0.463447)">
<stop offset="0" stop-color="#E9B760"/>
<stop offset="0.1381" stop-color="#F7F2A8"/>
<stop offset="0.3978" stop-color="#FDDC7E"/>
<stop offset="0.7901" stop-color="#E4B25B"/>
<stop offset="0.989" stop-color="#F6CA6B"/>
</linearGradient>
<linearGradient id="paint3_linear" x1="0" y1="0" x2="1" y2="0" gradientUnits="userSpaceOnUse" gradientTransform="matrix(17.4556 0 0 20.2375 -0.797423 0.42491)">
<stop offset="0" stop-color="#E9B760"/>
<stop offset="0.1381" stop-color="#F7F2A8"/>
<stop offset="0.3978" stop-color="#FDDC7E"/>
<stop offset="0.7901" stop-color="#E4B25B"/>
<stop offset="0.989" stop-color="#F6CA6B"/>
</linearGradient>
<linearGradient id="paint4_linear" x1="0" y1="0" x2="1" y2="0" gradientUnits="userSpaceOnUse" gradientTransform="matrix(18.0867 0 0 20.209 -0.826254 0.424311)">
<stop offset="0" stop-color="#E9B760"/>
<stop offset="0.1381" stop-color="#F7F2A8"/>
<stop offset="0.3978" stop-color="#FDDC7E"/>
<stop offset="0.7901" stop-color="#E4B25B"/>
<stop offset="0.989" stop-color="#F6CA6B"/>
</linearGradient>
<linearGradient id="paint5_linear" x1="0" y1="0" x2="1" y2="0" gradientUnits="userSpaceOnUse" gradientTransform="matrix(23.7351 0 0 17.7609 -1.08429 0.37291)">
<stop offset="0" stop-color="#E9B760"/>
<stop offset="0.1381" stop-color="#F7F2A8"/>
<stop offset="0.3978" stop-color="#FDDC7E"/>
<stop offset="0.7901" stop-color="#E4B25B"/>
<stop offset="0.989" stop-color="#F6CA6B"/>
</linearGradient>
<linearGradient id="paint6_linear" x1="0" y1="0" x2="1" y2="0" gradientUnits="userSpaceOnUse" gradientTransform="matrix(14.2737 0 0 8.10951 -0.652065 0.170268)">
<stop offset="0" stop-color="#E9B760"/>
<stop offset="0.1381" stop-color="#F7F2A8"/>
<stop offset="0.3978" stop-color="#FDDC7E"/>
<stop offset="0.7901" stop-color="#E4B25B"/>
<stop offset="0.989" stop-color="#F6CA6B"/>
</linearGradient>
<linearGradient id="paint7_linear" x1="0" y1="0" x2="1" y2="0" gradientUnits="userSpaceOnUse" gradientTransform="matrix(25.1986 0 0 8.88825 -1.15115 0.186619)">
<stop offset="0" stop-color="#E9B760"/>
<stop offset="0.1381" stop-color="#F7F2A8"/>
<stop offset="0.3978" stop-color="#FDDC7E"/>
<stop offset="0.7901" stop-color="#E4B25B"/>
<stop offset="0.989" stop-color="#F6CA6B"/>
</linearGradient>
<path id="path0_fill" d="M 19.9094 11.0373C 19.1247 11.0672 18.9923 11.0871 18.7814 11.2015C 18.5705 11.316 18.0359 11.8683 15.5445 14.5305L 15.2355 14.8639L 14.8285 14.5952C 14.544 14.4111 14.083 13.9732 13.3425 13.2019C 12.7491 12.5849 11.3513 11.1368 10.2331 9.99234L 8.27632 7.97703L 5.48577 5.14067C 5.20622 4.89187 4.22045 3.91158 3.03851 2.71732C 1.62607 1.28919 0.399988 0.0899543 0.316614 0.0600979C -0.0217837 -0.0643039 -0.01688 -0.0792316 0.0125459 0.866222C 0.0468761 1.96096 0.0910153 2.07043 0.753098 2.71234C 1.02284 2.9711 3.84772 5.81741 7.02572 9.03196C 10.2086 12.2365 13.3425 15.3665 13.9849 15.9686L 15.162 17.0633L 17.315 14.8987C 18.4969 13.7045 19.6838 12.4903 19.9486 12.2017C 20.4145 11.6892 20.8069 11.1617 20.8069 11.0522C 20.802 11.0224 20.439 11.0124 19.9094 11.0373Z"/>
<path id="path1_fill" d="M 8.32755 1.10967L 8.28831 1.51858e-07L 4.14416 1.51858e-07C 1.84893 1.51858e-07 -1.19735e-06 0.0248805 -1.19735e-06 0.0497609C -1.19735e-06 0.184115 1.08386 1.35349 1.33888 1.49282C 1.46149 1.56249 1.94211 1.57244 4.0804 1.57244L 6.67969 1.57244L 6.71402 4.33914C 6.76307 8.64842 6.78759 18.1179 6.75816 19.3669L 6.7974 20.8L 6.8023 20.805L 6.8023 20.999L 6.8023 21.9047C 6.8023 22.5167 6.82682 22.9994 6.85134 22.9994C 6.94453 22.9994 7.49381 22.5416 7.67037 22.3177C 7.91068 22.0092 8.10685 21.5763 8.22456 21.1035C 8.30793 20.7751 8.31774 20.5164 8.29812 19.3719C 8.25889 17.1774 8.26869 11.6589 8.32264 6.77742C 8.35207 4.26947 8.35697 1.72172 8.32755 1.10967Z"/>
<path id="path2_fill" d="M 8.32754 1.10966L 8.2883 1.51858e-07L 4.14415 1.51858e-07C 1.84893 1.51858e-07 -1.19734e-06 0.0248805 -1.19734e-06 0.0497609C -1.19734e-06 0.184115 1.08386 1.35349 1.33888 1.49282C 1.46149 1.56249 1.94211 1.57244 4.08039 1.57244L 6.67968 1.57244L 6.71401 4.33914C 6.76306 8.64842 6.78758 18.1179 6.75815 19.3669L 6.79739 20.8L 6.80229 20.805L 6.80229 20.999L 6.80229 21.9047C 6.80229 22.5167 6.82681 22.9994 6.85134 22.9994C 6.94452 22.9994 7.4938 22.5416 7.67036 22.3177C 7.91067 22.0092 8.10684 21.5763 8.22454 21.1035C 8.30792 20.7751 8.31773 20.5164 8.29811 19.3719C 8.25887 17.1774 8.26868 11.6589 8.32263 6.77741C 8.35206 4.26947 8.35696 1.72172 8.32754 1.10966Z"/>
<path id="path3_fill" d="M 11.7409 1.01344C 11.02 0.371529 10.4364 -0.066366 10.3972 0.00827515C 10.353 0.0829163 10.4707 1.33689 10.5541 1.67029C 10.711 2.27737 10.8827 2.52617 11.7949 3.41689C 12.2706 3.87966 12.9621 4.57134 13.3446 4.93957L 14.0313 5.62627L 13.8988 5.84024C 13.7174 6.14378 13.1141 6.87029 12.251 7.83067C 11.5742 8.57708 0.505144 19.823 0.470813 19.7932C 0.470813 19.7932 0.470815 19.7733 0.475719 19.7484C 0.333494 20.1813 0.102991 20.6092 0 21.0869L 0.627752 21.082C 1.16232 21.082 1.28984 21.0571 1.48601 20.9576C 1.61842 20.8829 2.1628 20.3505 2.82979 19.624C 3.98721 18.3799 5.66939 16.7229 8.92096 13.6278C 11.0249 11.6274 13.5604 9.05976 14.5119 7.97498C 15.2034 7.18378 16.2774 5.8701 16.2774 5.81038C 16.2774 5.60139 13.0112 2.15296 11.7409 1.01344Z"/>
<path id="path4_fill" d="M 16.3755 0.69012C 16.5079 0.565718 16.8659 0.083038 16.8659 0.0233251C 16.8659 -0.00155533 16.4491 -0.0065308 15.9439 0.00839744C 14.61 0.0382539 14.7816 -0.076196 12.5207 2.29739C 11.6478 3.21299 8.54823 6.39271 5.63506 9.35845C 2.7219 12.3341 0.259929 14.857 0.171651 14.9764L 0 15.1954L 2.11867 17.3053C 3.28099 18.4697 4.60025 19.7883 5.05635 20.2411L 5.87537 21.0572L 5.84595 20.2959C 5.80671 19.43 5.72334 19.0817 5.45851 18.7433C 5.36532 18.614 4.80133 18.0467 4.20791 17.4794C 3.08972 16.3996 2.49139 15.7428 2.31974 15.3994L 2.21675 15.1954L 5.85085 11.4633C 7.84691 9.41319 9.49476 7.73127 9.51438 7.73127C 9.52909 7.7263 9.81845 7.45261 10.1519 7.11424L 16.3118 0.769737C 16.3216 0.739881 16.3461 0.715001 16.3755 0.69012Z"/>
<path id="path5_fill" d="M 12.197 8.6335L 12.9866 9.41972L 12.9621 9.41972L 14.3304 10.7981C 14.4334 10.8877 14.556 11.0071 14.6835 11.1365C 14.8405 11.2957 14.9778 11.44 15.0661 11.5395L 21.5152 17.9437C 21.8536 18.2622 22.1332 18.516 22.1332 18.506C 22.1332 18.4961 22.0743 18.297 21.9959 18.0731C 21.8193 17.5357 21.5398 16.9635 21.1817 16.3813C 20.9807 16.0628 20.8679 15.7941 20.8237 15.5701C 20.7796 15.3661 20.6766 15.1074 20.554 14.9233C 20.4314 14.7391 19.3034 13.5648 17.8566 12.1118C 16.4785 10.7334 13.9135 8.15082 12.148 6.37436C 10.3824 4.59292 8.23925 2.4333 7.3859 1.56746L 5.83123 0L 5.20838 0.587177C 3.639 2.03522 0.382537 5.44383 0.0980867 5.92153L 2.99336e-07 6.10067L 0.931821 6.07579C 1.74103 6.06086 1.89797 6.04096 2.11376 5.93646C 2.29032 5.85187 2.80037 5.37416 3.91855 4.22469C 4.7719 3.3489 5.52226 2.55273 5.59092 2.46316L 5.71353 2.29895L 6.00289 2.55273C 6.54726 3.02546 8.21964 4.64766 9.75469 6.18527L 10.9219 7.35962L 11.6478 8.08613C 11.79 8.23043 11.9862 8.4245 12.197 8.6335Z"/>
<path id="path6_fill" d="M 13.1485 0.0303609C 13.1141 -0.0592085 13.016 0.0303596 12.5698 0.557824C 12.045 1.17486 11.8194 1.53811 11.7409 1.88146C 11.6379 2.29945 11.6134 3.03093 11.6575 4.18041C 11.687 4.86213 11.6968 5.72797 11.6723 6.10118L 11.6379 6.7829L 7.56245 6.81773C 5.32118 6.83266 3.48697 6.84261 3.47225 6.82768C 3.47225 6.82768 3.47225 6.81773 3.48206 6.79783C 3.04558 6.79783 2.60419 6.79783 2.16771 6.79783L 2.1628 6.81773L 1.65275 6.83266C 1.4811 6.83763 1.32907 6.83266 1.23589 6.82768C 1.07895 7.52931 0.642464 8.11648 -1.19734e-06 8.44988C 0.132415 8.42998 0.348206 8.42998 0.779786 8.42998C 0.951437 8.42998 1.11328 8.42998 1.2506 8.43495L 2.2805 8.44988L 7.61149 8.41007C 10.6718 8.38022 13.1779 8.36031 13.1877 8.35534C 13.2564 8.28567 13.3103 6.8874 13.3103 5.25524C 13.3103 3.23993 13.2171 0.224428 13.1485 0.0303609Z"/>
<path id="path7_fill" d="M 22.0805 2.33958L 22.6347 2.32465L 22.4435 2.09078C 22.3307 1.96638 22.2424 1.837 22.2424 1.81212C 22.2424 1.77231 23.2036 1.19508 23.4979 1.04083C 23.4341 0.981114 23.3802 0.926377 23.3262 0.876616L 22.875 0.881592C 22.5415 0.886568 22.0658 0.911448 21.8255 0.936329C 21.5656 0.966185 21.3596 0.966186 21.3351 0.931353C 21.3008 0.901497 20.7417 0.881592 20.0845 0.881592L 18.8829 0.881592L 18.5396 0.423793C 18.3484 0.174989 18.1816 -0.0141021 18.1571 0.000826136C 18.1424 0.0157544 17.9952 0.214798 17.8432 0.433745L 17.5588 0.826855L 8.81927 0.826855L 0.0699702 0.821879L 0.0356402 3.95183C -0.013403 8.21633 -0.0134032 9.2613 0.0454486 9.2613C 0.0797789 9.2613 0.329899 9.04236 0.60454 8.77365C 1.52655 7.87796 1.56579 7.70877 1.5805 4.67834L 1.5805 2.42915L 8.24547 2.3993C 11.8845 2.37939 13.704 2.37939 14.4985 2.3993L 21.6441 2.34953L 22.0805 2.33958Z"/>
<path id="path8_fill" d="M 31.3778 16.227C 32.1821 17.8591 32.4322 18.307 32.8442 18.8394L 33.0747 19.138C 33.0747 18.929 33.0698 18.3518 33.0551 17.8741C 33.0502 17.8591 33.0404 17.8293 33.0306 17.7945C 32.9962 17.6551 32.9423 17.3914 32.8883 17.1078C 32.7657 16.4708 32.7559 16.2419 32.751 14.7441C 32.751 12.9527 32.7461 12.8831 32.5058 11.9575C 32.0007 10.0069 30.804 8.37474 28.7785 6.90679C 28.5431 6.73263 28.3862 6.5933 28.4401 6.5933C 28.6902 6.5933 29.4897 6.85206 29.9899 7.09588C 30.3479 7.27005 30.7108 7.49895 31.1032 7.80249C 30.343 7.04115 27.9693 4.65263 25.7575 2.44325C 25.6545 2.45321 25.4142 2.46316 25.1297 2.46813C 23.9184 2.47311 23.0993 2.81148 22.0449 3.73703C 21.8389 3.91617 21.6575 4.06545 21.6378 4.06545C 21.5937 4.06545 21.9321 3.40364 22.1136 3.12498C 22.5697 2.46316 23.3151 1.90086 24.1538 1.60727C 24.4039 1.5177 24.6491 1.44306 24.7374 1.42813C 24.296 0.990239 23.8742 0.572249 23.4917 0.189091L 23.3004 0.174163C 22.4471 0.104498 21.5152 0.298565 20.6962 0.696651C 19.8478 1.11464 19.4162 1.48287 18.6707 2.45818C 18.5825 2.57263 18.5825 2.56268 18.6315 2.3288C 18.7639 1.72172 19.2494 0.801148 19.7595 0.204019L 19.936 1.51858e-07L 13.2711 0.0298562C 13.3839 0.0348322 13.4427 0.0447844 13.4574 0.0547365C 13.6242 0.149282 14.1048 0.821052 14.2961 1.22411C 14.453 1.53761 14.6933 2.25914 14.6933 2.38852C 14.6933 2.42335 14.4628 2.22431 14.1833 1.95062C 12.815 0.636938 11.6674 0.0746413 10.3285 0.0746413C 9.36724 0.0746413 8.67573 0.263732 7.5036 0.850909L 6.75815 1.22411L 7.47908 1.29876C 8.25887 1.3734 8.55803 1.42813 9.11222 1.60727C 9.93124 1.87101 10.6277 2.34373 11.0887 2.95081C 11.2946 3.21952 11.7704 4.10029 11.7704 4.20976C 11.7704 4.23464 11.5595 4.05053 11.3094 3.81167C 10.3089 2.85129 9.22992 2.41837 7.94009 2.45321C 7.68997 2.46316 7.47418 2.45818 7.36628 2.44823L 1.92249 8.02641C 2.62871 7.44421 3.34965 7.02124 4.02154 6.80727C 4.42369 6.6779 4.96317 6.58335 4.96317 6.63311C 4.96317 6.64804 4.86018 6.71273 4.72286 6.77742C 3.62429 7.33971 1.89797 9.30526 1.19665 10.7931C 0.676795 11.9078 0.583613 12.485 0.53457 15.0078C 0.490431 17.1575 0.480623 17.2222 0.156938 18.3816L 0.0147131 18.8792L 0.0147131 18.9389L -3.06656e-14 19.4067L 0.235407 19.1878C 0.598327 18.8444 1.025 18.1577 1.52034 17.1127C 1.76555 16.6052 2.12357 15.8339 2.32955 15.4109C 2.96711 14.0624 3.47226 13.2861 3.88422 13.0373C 4.02154 12.9577 4.14905 12.903 4.15886 12.9129C 4.17357 12.9229 3.96759 13.316 3.69295 13.7837C 1.99115 16.7146 1.4811 18.0482 1.29964 20.0287C 1.15251 21.6758 1.54976 23.7657 2.28541 25.2237C 2.51591 25.6815 2.9524 26.3185 3.00144 26.2687C 3.01125 26.2588 3.05539 25.9055 3.10443 25.4775C 3.27608 23.9349 3.56544 22.885 4.13434 21.7007C 4.55611 20.8249 5.35551 19.6207 5.66448 19.4017C 5.7969 19.3122 5.9146 19.2475 5.92932 19.2624C 5.93913 19.2773 5.76257 19.6356 5.53207 20.0486C 4.39917 22.0739 4.14905 22.9745 4.203 24.8157C 4.22752 25.6716 4.25204 25.8905 4.39427 26.4528C 4.48254 26.8061 4.61986 27.244 4.69833 27.4182C 4.86018 27.7914 5.21329 28.3288 5.41927 28.5278L 5.56149 28.6622L 5.59092 28.5278C 5.60563 28.4532 5.65958 28.1397 5.70862 27.8312C 5.87047 26.7962 6.16473 25.8656 6.60121 24.9799C 6.80719 24.5719 7.63602 23.4323 7.66544 23.5219C 7.67035 23.5468 7.53303 24.1738 7.34666 24.9202C 6.80229 27.1146 6.66496 28.1994 6.78757 29.319C 6.84152 29.8117 6.97394 30.5083 7.08183 30.8567L 9.66641 33.2999L 9.64188 33.1805C 9.56342 32.8222 9.5487 32.5684 9.57323 31.832C 9.60265 30.9612 9.71545 29.6375 9.75959 29.6773C 9.7694 29.6873 9.84296 30.0356 9.92143 30.4536C 10.3726 32.867 10.8974 34.1657 11.7802 35.0664C 12.0989 35.3948 12.7267 35.8278 12.7561 35.7432C 12.7659 35.7133 12.7267 35.5889 12.6678 35.4745C 12.5403 35.2157 12.3491 34.6086 12.2902 34.3051L 12.251 34.0812L 12.7169 34.524C 13.1681 34.9619 13.7076 35.2903 13.9626 35.2903C 14.1833 35.2903 14.5413 36.2806 14.6247 37.1016C 14.6492 37.3156 14.6786 37.4848 14.708 37.4848C 14.8208 37.4848 15.3113 36.7633 15.4486 36.41C 15.532 36.191 15.6104 36.0218 15.6153 36.0318C 15.6251 36.0417 15.6104 36.3353 15.581 36.6886C 15.5467 37.0369 15.5369 37.3355 15.5467 37.3455C 15.5859 37.3853 16.2676 37.027 16.4785 36.8578L 16.6943 36.6836L 17.0817 37.0021L 17.4692 37.3156L 17.5476 37.1315C 17.5918 37.032 17.6703 36.7931 17.7242 36.609C 17.8223 36.2607 17.9106 36.0965 17.9106 36.2507C 17.9106 36.4846 18.1018 36.9424 18.3176 37.2211C 18.45 37.4002 18.5726 37.5196 18.5874 37.4947C 18.6021 37.4699 18.6805 37.1464 18.759 36.7732C 18.9454 35.9024 19.0042 35.6934 19.1317 35.4396L 19.2347 35.2256L 19.9802 35.2256L 20.7256 35.2256L 20.6128 35.5093C 20.554 35.6685 20.5246 35.7879 20.5442 35.7879C 20.5932 35.7879 20.9709 35.5342 21.1817 35.355C 21.2504 35.2953 21.2994 35.2655 21.4122 35.2456C 22.0547 34.9122 22.4961 34.325 22.6481 33.6234C 22.5893 33.6184 22.55 33.6134 22.55 33.6034C 22.55 33.5786 22.6187 33.3994 22.6923 33.2054C 22.7707 33.0013 22.962 32.3146 23.1288 31.6777C 23.2906 31.0358 23.4573 30.4387 23.5015 30.3541L 23.5701 30.1899L 23.6486 30.374C 23.6878 30.4735 23.7467 30.7024 23.781 30.8766C 23.8595 31.3045 23.8006 32.5336 23.6731 33.1357L 23.58 33.5935C 24.0164 33.5935 24.4578 33.5935 24.8943 33.5935C 24.9188 33.5388 24.9826 33.4193 25.0611 33.2949C 25.1739 33.1208 25.3651 32.7724 25.4975 32.5187L 25.7428 32.0509L 25.7477 32.0509C 25.8506 31.5732 26.0812 31.1453 26.2234 30.7123C 26.2381 30.6128 26.2871 30.3441 26.3509 30.0406C 26.4833 29.4036 26.498 29.2195 26.498 28.1298C 26.498 27.035 26.4833 26.8609 26.3509 26.219C 26.2675 25.8308 26.0812 25.1242 25.9291 24.6366C 25.782 24.1589 25.6398 23.6662 25.6201 23.5418L 25.5858 23.3229L 25.7575 23.5219C 26.6157 24.4923 26.9737 25.2486 27.3906 26.9504C 27.6162 27.8959 27.8516 28.6373 27.9105 28.6373C 27.9546 28.6373 28.7197 26.8907 28.857 26.4727C 29.1169 25.7014 29.2003 24.955 29.1267 24.0444C 29.0041 22.457 28.5627 21.2678 27.5132 19.6605C 27.2239 19.2176 27.0081 18.8544 27.0326 18.8544C 27.1209 18.8544 28.038 19.8247 28.342 20.2377C 29.1807 21.4021 29.6711 22.7656 30.1517 25.373L 30.3332 26.3583L 30.5539 26.0199C 30.858 25.5621 31.2405 24.7759 31.4563 24.1688C 32.1821 22.0739 32.1919 19.7849 31.4808 17.4511C 31.0836 16.1523 30.6863 15.391 29.5093 13.6693C 29.112 13.0921 28.803 12.5994 28.8178 12.5845C 28.8325 12.5696 29.0924 12.8034 29.3965 13.107C 30.1174 13.8285 30.4607 14.3659 31.3778 16.227ZM 24.345 7.6134C 24.3597 7.59847 24.4431 7.65321 24.5265 7.73282C 24.7079 7.91196 24.7668 7.91694 24.8894 7.77761C 24.9433 7.7179 25.0611 7.63828 25.1493 7.60345C 25.3112 7.5288 25.321 7.54373 25.8016 8.02144C 26.0713 8.28517 26.3313 8.50412 26.3803 8.50412C 26.5471 8.50412 26.7629 7.91694 26.7874 7.39445C 26.8168 6.91675 26.6844 6.12555 26.5667 6.05091C 26.449 5.97129 25.8261 5.8668 25.527 5.8668C 25.3602 5.86182 25.0512 5.90163 24.8355 5.94641C 24.3843 6.04593 24.3646 6.04593 24.3646 5.98124C 24.3646 5.93148 25.066 5.63292 25.3308 5.56325C 25.6496 5.48364 26.1645 5.52842 26.4392 5.6578C 27.0375 5.93646 27.3612 6.58335 27.474 7.70794C 27.577 8.70316 27.3514 10.2358 26.9639 11.2111C 26.8658 11.4649 26.753 11.6838 26.7138 11.6938C 26.6353 11.7236 26.3705 11.0618 26.1449 10.2756C 25.9438 9.59885 25.6398 8.84249 25.3995 8.41455L 25.2425 8.14584L 25.164 8.31005C 25.1248 8.40459 25.0414 8.60364 24.9777 8.75789L 24.86 9.03656L 24.5902 8.3399C 24.4333 7.95675 24.3303 7.6333 24.345 7.6134ZM 18.6364 4.83675C 18.6756 4.16995 19.274 3.15981 19.9017 2.68708C 20.0881 2.54775 20.2548 2.44325 20.2646 2.45818C 20.2793 2.46813 20.1665 2.79656 20.0145 3.17971C 19.6516 4.09033 19.5437 4.4934 19.3671 5.63292C 19.2887 6.15043 19.2053 6.61818 19.1857 6.6779C 19.1514 6.75751 19.0925 6.64804 18.9405 6.25493C 18.6707 5.54335 18.607 5.25971 18.6364 4.83675ZM 15.6104 5.31445C 15.6448 5.27962 15.8998 5.44383 16.0911 5.62297L 16.2382 5.7623L 16.2872 5.54833C 16.3216 5.42392 16.4 5.06067 16.4638 4.7223C 16.5374 4.3889 16.6011 4.12019 16.6256 4.12019C 16.6403 4.12019 16.7286 4.43866 16.8169 4.83675C 17.0376 5.85684 16.9836 5.79713 17.425 5.409C 17.6359 5.22986 17.8174 5.09053 17.8223 5.0955C 17.8468 5.11043 16.758 8.03139 16.6992 8.12593C 16.6845 8.16574 16.6502 8.15579 16.6256 8.111C 16.5275 7.92191 15.581 5.34431 15.6104 5.31445ZM 15.1102 10.0915C 15.1985 10.191 15.3162 10.3851 15.3701 10.5194C 15.4486 10.6936 15.5025 10.7533 15.5614 10.7334C 15.6055 10.7185 15.6791 10.6986 15.7232 10.6986C 15.7674 10.6986 15.8557 10.5791 15.9243 10.4398C 15.9832 10.3005 16.0518 10.2059 16.0714 10.2258C 16.096 10.2557 16.248 10.4498 16.4098 10.6687C 16.5717 10.8827 16.7237 11.0867 16.7482 11.1116C 16.7777 11.1414 16.8807 10.9722 16.9886 10.7334C 17.17 10.3154 17.1896 10.3005 17.3171 10.3602C 17.3907 10.395 17.4741 10.4945 17.5035 10.5841C 17.5378 10.6737 17.5869 10.7483 17.6163 10.7483C 17.6457 10.7483 17.9008 10.5045 18.1852 10.2159C 18.6658 9.72823 18.7933 9.61876 18.7933 9.7133C 18.7933 9.73818 18.5825 10.1363 18.3274 10.604C 18.0675 11.0718 17.7634 11.649 17.6506 11.8878C 17.5329 12.1317 17.425 12.3257 17.4005 12.3257C 17.3858 12.3257 17.322 12.2063 17.2681 12.062L 17.1651 11.7933L 17.0964 11.9625C 17.0572 12.057 16.9493 12.3656 16.8463 12.6492C 16.7482 12.9378 16.6551 13.1717 16.6305 13.1717C 16.606 13.1717 16.5079 12.8781 16.4049 12.5248C 16.3019 12.1715 16.2039 11.8779 16.1891 11.8779C 16.1744 11.8779 16.1058 11.9774 16.0322 12.1018C 15.9635 12.2262 15.89 12.3257 15.8606 12.3257C 15.8311 12.3257 15.7429 12.1566 15.6595 11.9426C 15.581 11.7336 15.3015 11.1663 15.0415 10.6787C 14.7816 10.191 14.5805 9.77799 14.6001 9.76306C 14.6541 9.7133 14.9582 9.90737 15.1102 10.0915ZM 13.3201 2.6423C 13.8253 3.12498 14.2029 3.63254 14.4628 4.16995C 14.6443 4.55311 14.6688 4.6377 14.6688 5.04077C 14.6688 5.46373 14.6443 5.54335 14.3942 6.12555C 14.2372 6.47388 14.0999 6.76249 14.0803 6.76249C 14.0509 6.76249 14.0362 6.61818 14.0362 6.43407C 14.0362 5.95636 13.8302 4.64766 13.6732 4.08536C 13.5163 3.53799 13.222 2.83636 13.0259 2.57761C 12.6875 2.12976 12.8101 2.15962 13.3201 2.6423ZM 6.13039 6.35445C 6.22848 5.92153 6.26281 5.85187 6.39032 5.8021C 6.99355 5.56823 7.78315 5.51847 8.24906 5.68268C 8.72478 5.85684 8.6414 5.91655 7.94009 5.92651C 7.59679 5.92651 7.17501 5.96134 7.00827 5.99617C 6.7091 6.06584 6.7042 6.07081 6.63554 6.31464C 6.54236 6.68785 6.54726 7.65818 6.65025 8.16076C 6.6993 8.39464 6.74834 8.60364 6.76796 8.62354C 6.78267 8.63847 7.03279 8.39464 7.32705 8.0712L 7.86162 7.49397L 8.21963 7.64823C 8.42071 7.7378 8.59236 7.81244 8.60217 7.81742C 8.6365 7.84727 8.43052 8.90718 8.38638 8.90718C 8.37167 8.90718 8.32753 8.78775 8.2981 8.64842C 8.25396 8.42947 8.21963 8.37971 8.0676 8.31005C 7.90085 8.24038 7.88614 8.24038 7.85671 8.33493C 7.842 8.38469 7.68016 8.81263 7.5036 9.28038C 7.32705 9.74813 7.10635 10.4149 7.01317 10.7583C 6.91509 11.1066 6.77286 11.5246 6.69439 11.6789C 6.52274 12.0322 6.53745 12.072 6.26771 10.8379C 5.81652 8.80268 5.792 7.83234 6.13039 6.35445ZM 3.60467 11.858C 2.98182 12.4153 2.58457 12.9129 2.22166 13.6245C 1.92249 14.2117 1.77046 14.4008 1.83421 14.1122C 1.84893 14.0425 1.88326 13.8683 1.91759 13.729C 2.15299 12.5745 2.97202 11.1812 3.96759 10.2209C 4.36484 9.8377 5.03183 9.35005 5.15934 9.35005C 5.19858 9.35005 5.23781 9.45455 5.25743 9.58392C 5.27214 9.71828 5.30157 10.0168 5.32609 10.2507L 5.36042 10.6787L 5.17896 10.7533C 4.86999 10.8877 4.07549 11.45 3.60467 11.858ZM 2.93768 21.2279C 2.85431 21.5016 2.76113 21.7206 2.7317 21.7206C 2.6091 21.7206 2.86902 20.0884 3.16328 18.9937C 3.57034 17.481 4.02644 16.8789 5.29666 16.1822C 5.75276 15.9334 5.89989 15.8836 5.89989 15.9732C 5.89989 16.0429 5.73805 16.2668 5.38003 16.6898C 4.53649 17.6949 3.37907 19.8446 2.93768 21.2279ZM 5.56149 18.2921C 5.37023 18.4463 5.20348 18.5458 5.18877 18.521C 5.15444 18.4264 5.41436 17.8293 5.71353 17.3217C 5.88027 17.0331 6.27752 16.4509 6.5914 16.0279C 7.1603 15.2616 7.53793 14.6545 7.48399 14.5998C 7.46927 14.5849 6.83171 14.8237 6.06664 15.1472C 5.29666 15.4607 4.6591 15.7045 4.63948 15.6846C 4.59044 15.6299 4.9975 14.9382 5.3359 14.5053C 5.51245 14.2863 5.80671 13.9728 5.98817 13.8086C 6.32657 13.51 7.14068 12.903 7.2682 12.8532C 7.30743 12.8383 7.43985 12.9079 7.57226 13.0174C 7.88124 13.2762 8.01365 13.3458 8.20982 13.3458C 8.36676 13.3458 8.37167 13.3359 8.4109 12.9975C 8.53351 11.7883 8.94057 11.0369 9.84296 10.3552C 10.2647 10.0417 10.3775 9.97703 10.3775 10.0716C 10.3775 10.1611 10.0489 10.6289 9.75468 10.9722C 9.58303 11.1613 9.40157 11.4002 9.35743 11.4898C 9.21521 11.7684 9.10732 12.3407 9.10732 12.8433C 9.10732 13.4603 9.28387 13.8634 9.63208 14.0425C 10.0489 14.2565 11.4418 14.2216 11.9714 13.9828L 12.1774 13.8932L 11.9273 13.8136C 11.79 13.7738 11.4957 13.7091 11.2799 13.6743C 11.0592 13.6394 10.8778 13.5897 10.8778 13.5698C 10.8778 13.5449 11.1083 13.4852 11.3927 13.4354C 12.2314 13.2811 12.4177 13.3807 13.222 14.3858C 13.4918 14.7242 13.786 15.1969 14.0607 15.7194C 14.2912 16.1623 14.5119 16.5753 14.5609 16.635C 14.6051 16.6947 14.6394 16.7694 14.6394 16.7992C 14.6394 16.854 14.6394 16.854 14.1931 16.6549L 13.8792 16.5106L 13.7321 17.2968C 13.6487 17.7298 13.5604 18.0632 13.5408 18.0383C 13.5163 18.0134 13.4427 17.5755 13.3692 17.0779C 13.2122 15.9782 13.2417 16.008 12.3638 15.9633C 12.0548 15.9483 11.6772 15.8886 11.535 15.8438C 11.2162 15.7443 11.1426 15.7891 11.1426 16.0777C 11.1426 16.1822 11.1279 16.2767 11.1034 16.2767C 10.9415 16.2767 10.3334 15.3263 10.3334 15.0725C 10.3334 15.0278 10.1961 14.9183 10.0293 14.8436C 9.7743 14.7143 9.67131 14.6894 9.40648 14.7143C 8.68554 14.769 8.20002 15.2616 7.88124 16.2568C 7.74392 16.6798 7.47908 16.9535 6.66006 17.5158C 6.24319 17.7845 5.75767 18.1328 5.56149 18.2921ZM 6.55707 22.5416C 6.42465 22.9745 5.83614 24.2882 5.63996 24.5868L 5.51245 24.7858L 5.51245 24.5221C 5.51245 24.1738 5.70372 23.0343 5.85085 22.5416C 5.98326 22.0789 6.28243 21.4071 6.45898 21.1483C 6.57669 20.9891 6.5865 20.9841 6.62573 21.0787C 6.65025 21.1334 6.66987 21.4071 6.66987 21.6708C 6.67477 22.0191 6.64044 22.2729 6.55707 22.5416ZM 17.4005 34.2105C 16.9591 34.8226 16.8071 35.161 16.7335 35.7183C 16.6943 35.9671 16.6502 36.1761 16.6354 36.1761C 16.6207 36.1711 16.4883 35.9074 16.3363 35.5839C 16.1009 35.0764 16.0616 34.937 16.0371 34.5589C 15.9979 33.8771 16.042 33.8423 16.2137 34.3996C 16.3706 34.8923 16.3706 34.9022 16.4344 34.738C 16.5079 34.5688 17.0033 34.0961 17.4594 33.7677C 17.734 33.5636 17.7438 33.5587 17.7438 33.6632C 17.7389 33.703 17.5869 33.9518 17.4005 34.2105ZM 18.2637 31.5881C 18.1214 32.0211 17.783 32.7973 17.7438 32.7973C 17.7193 32.7973 17.6212 32.5933 17.5231 32.3495C 17.4201 32.1007 17.3319 31.9016 17.3171 31.9016C 17.3073 31.9016 17.1504 32.2002 16.9738 32.5585L 16.6452 33.2153L 16.297 32.5834C 16.1107 32.24 15.9341 31.9713 15.9047 31.9812C 15.836 32.026 15.7429 32.3992 15.7429 32.6132C 15.7429 32.7078 15.7183 32.8123 15.6889 32.8272C 15.6595 32.8421 15.635 32.8272 15.635 32.7874C 15.635 32.7326 15.6202 32.7376 15.581 32.7973C 15.5271 32.8869 15.5467 32.9317 15.1936 31.9812C 14.9484 31.3344 14.7228 30.3242 14.8208 30.3242C 14.8257 30.3242 14.9925 30.374 15.1936 30.4387C 15.3946 30.4984 15.5712 30.5531 15.5859 30.5531C 15.6104 30.5531 15.7036 30.3491 15.8017 30.1053C 15.8998 29.8565 16.0028 29.6574 16.0273 29.6574C 16.0567 29.6574 16.0763 29.951 16.0763 30.3043C 16.0763 30.9213 16.0813 30.9512 16.2088 31.0358C 16.3019 31.0955 16.4393 31.1204 16.6698 31.1104C 16.9836 31.0955 16.9885 31.0856 17.0964 30.8666C 17.17 30.7123 17.2141 30.4785 17.2289 30.1202C 17.2387 29.8366 17.2632 29.6027 17.273 29.6027C 17.2779 29.6027 17.3662 29.8565 17.4643 30.165C 17.5673 30.4735 17.6752 30.7273 17.7095 30.7273C 17.7389 30.7273 17.9106 30.6377 18.092 30.5282C 18.2686 30.4138 18.4304 30.3441 18.4451 30.359C 18.4991 30.4038 18.3667 31.2796 18.2637 31.5881ZM 25.8654 21.014C 25.8605 21.0239 25.728 20.9742 25.5613 20.9144C 25.3798 20.8647 25.2278 20.8398 25.2082 20.8597C 25.1837 20.8846 25.1395 21.0438 25.1052 21.223C 25.066 21.3971 24.86 21.8997 24.6442 22.3376C 24.1832 23.288 24.139 23.4871 24.0459 25.1491C 24.0066 25.786 23.9576 26.3433 23.9331 26.3881C 23.8987 26.4429 23.8055 26.2986 23.5996 25.8656C 23.3347 25.3034 23.0895 24.9252 22.9914 24.9252C 22.9669 24.9252 22.9228 25.0595 22.8933 25.2188C 22.4078 27.5525 22.349 28.0054 22.4372 28.8861C 22.4863 29.3788 22.4863 29.6922 22.4372 30.2446C 22.398 30.6427 22.349 31.0159 22.3244 31.0756C 22.2901 31.1701 22.2803 31.1602 22.2215 30.991C 22.1871 30.8865 22.1087 30.583 22.0498 30.3093C 21.9517 29.8415 21.7065 29.2544 21.6182 29.2544C 21.5496 29.2544 21.27 29.5678 21.015 29.9311C 20.8924 30.1003 20.4706 30.5631 20.0783 30.9512C 19.5535 31.4687 19.2838 31.6976 19.0435 31.8121C 18.862 31.8967 18.7051 31.9514 18.6903 31.9365C 18.6756 31.9215 18.7786 31.7723 18.9209 31.608C 19.5241 30.9263 20.0194 30.0505 20.1911 29.3688C 20.3333 28.8165 20.2843 28.0949 20.0783 27.6521C 19.838 27.1445 19.2102 26.5324 18.6119 26.2339C 18.0037 25.9303 17.6114 25.8308 16.8856 25.786C 15.2034 25.6915 13.7615 26.408 13.1975 27.6272C 13.0651 27.9108 13.0553 28.0004 13.0553 28.6373C 13.0602 29.2942 13.07 29.3688 13.2367 29.7918C 13.428 30.2993 13.9234 31.0856 14.35 31.5832C 14.507 31.7673 14.6198 31.9315 14.6051 31.9414C 14.5609 31.9912 13.8743 31.6279 13.5555 31.3742C 13.2122 31.1154 13.0455 30.9164 12.3834 30.0057C 11.9273 29.3887 11.7066 29.115 11.6772 29.1499C 11.6625 29.1598 11.5791 29.3389 11.4859 29.5479C 11.3388 29.8863 11.1524 30.6974 11.1524 31.0258C 11.1524 31.1005 11.1279 31.1602 11.1083 31.1602C 11.0151 31.1602 10.8778 29.4833 10.8778 28.3786C 10.8778 26.9206 10.7355 26.005 10.3873 25.2287L 10.2402 24.8903L 9.83315 25.6965C 9.49966 26.3434 9.41138 26.4727 9.38196 26.3832C 9.35743 26.3135 9.3133 25.8059 9.28387 25.2436C 9.19069 23.5169 9.18578 23.497 8.70516 22.4471C 8.51389 22.0291 8.28829 21.4967 8.21473 21.2678C 8.13626 21.0389 8.04798 20.8448 8.02346 20.8498C 7.98913 20.8547 7.88124 20.8597 7.78315 20.8647C 7.68506 20.8746 7.63602 20.8945 7.67035 20.9095C 7.70468 20.9194 7.73901 20.9592 7.73901 20.9891C 7.73901 21.0488 7.62131 21.0488 7.52322 20.9891C 7.40552 20.9144 7.65564 19.7102 7.92047 19.0733C 7.96951 18.9489 7.98913 18.9788 8.04798 19.3569C 8.08231 19.5858 8.16078 19.9441 8.20982 20.1432C 8.33734 20.6457 8.71987 21.4469 9.03375 21.8699C 9.24954 22.1634 9.75468 22.6163 9.85767 22.6163C 9.87239 22.6163 9.80373 22.3973 9.69583 22.1336C 9.59284 21.8649 9.51437 21.631 9.52909 21.6161C 9.5438 21.6012 10.0391 21.6857 10.6178 21.7952C 11.2113 21.9146 11.6968 21.9793 11.7115 21.9545C 11.8243 21.7803 12.3049 21.213 12.3442 21.213C 12.403 21.213 12.3932 21.3175 12.2755 21.7355C 12.1088 22.3525 11.9616 22.457 11.0788 22.5615C 10.8091 22.5964 10.5737 22.6312 10.5688 22.6411C 10.5541 22.6561 10.6522 23.7956 10.6963 24.0643L 10.7257 24.2434L 11.4467 24.2584L 12.1725 24.2733L 11.6134 24.6565L 11.0543 25.0396L 11.1671 25.2536C 11.2211 25.373 11.3388 25.5472 11.4172 25.6467C 11.584 25.8457 11.7556 25.8656 12.2951 25.7612C 12.4668 25.7213 12.6237 25.7114 12.6433 25.7313C 12.6629 25.7512 12.5207 25.9303 12.3344 26.1244L 11.9861 26.4827L 12.1137 26.5673C 12.1872 26.6121 12.3736 26.7265 12.5305 26.8211L 12.815 26.9902L 13.0308 26.8957C 13.1485 26.841 13.4378 26.6369 13.6732 26.4478C 14.3206 25.9204 14.659 25.7412 15.5222 25.4576C 15.9537 25.3133 16.3461 25.1541 16.3853 25.1093C 16.503 24.97 16.4736 23.5368 16.3461 23.0392C 16.2284 22.5765 15.9439 21.8848 15.8655 21.8848C 15.8311 21.8848 15.8262 21.9296 15.8507 21.9793C 15.8753 22.0341 15.8998 22.1137 15.9194 22.1485C 15.9685 22.2729 15.6889 22.2331 15.0366 22.0191C 13.7909 21.6111 13.5604 21.3822 13.4722 20.5164C 13.4133 19.9242 13.4231 19.9192 14.0509 20.3123C 14.5119 20.591 14.6247 20.6408 14.7129 20.591C 14.9189 20.4766 15.2671 20.5213 15.7576 20.7303C 16.4098 21.004 16.8856 21.014 17.5182 20.7552C 18.1705 20.4915 18.4353 20.4716 18.8571 20.6955C 19.0435 20.7901 19.2298 20.8697 19.2642 20.8697C 19.3034 20.8647 19.4309 20.6607 19.5486 20.4069C 19.6663 20.1531 19.7742 19.974 19.8036 20.0038C 19.8281 20.0337 19.8772 20.1332 19.9164 20.2278C 19.9753 20.392 19.9655 20.4517 19.8036 20.8398C 19.6026 21.3324 19.3868 21.6161 19.0974 21.7604C 18.862 21.8848 18.1754 22.0888 17.6604 22.1833C 17.3171 22.2431 17.2877 22.263 17.17 22.4819C 16.9346 22.9248 16.812 24.0693 16.915 24.955C 16.9493 25.2287 16.9591 25.2486 17.1455 25.2834C 18.146 25.4725 19.014 25.8856 19.6859 26.4827C 19.9557 26.7315 20.2352 26.9604 20.299 26.9952C 20.4608 27.0798 20.6079 27.0101 21.0248 26.6568L 21.373 26.3533L 21.0542 26.0547C 20.8826 25.8955 20.7502 25.7462 20.7649 25.7263C 20.7796 25.7114 20.9414 25.7213 21.118 25.7562C 21.6035 25.8507 21.7703 25.8358 21.8978 25.6865C 22.0204 25.5472 22.2999 25.0645 22.2999 24.9899C 22.2999 24.96 22.1675 24.8704 22.0106 24.7908C 21.8487 24.7112 21.5937 24.5569 21.4417 24.4425L 21.167 24.2385L 21.8095 24.2385C 22.707 24.2385 22.7119 24.2335 22.7315 23.3726L 22.756 22.7208L 22.6138 22.666C 22.5353 22.6362 22.2313 22.5665 21.9468 22.5018C 21.6526 22.4471 21.373 22.3575 21.3093 22.2978C 21.2063 22.2033 20.9365 21.218 21.0003 21.1583C 21.0395 21.1185 21.015 21.0886 21.3583 21.6161C 21.5937 21.9793 21.6624 22.044 21.7654 22.0191C 21.9027 21.9843 23.8693 21.5962 23.8889 21.5962C 23.8987 21.5962 23.7761 21.85 23.629 22.1634C 23.2955 22.8302 23.3544 22.8302 24.0164 22.1634C 24.551 21.626 24.6785 21.3971 24.9286 20.5363C 25.1199 19.8496 25.4338 19.0634 25.5073 19.0634C 25.5368 19.0634 25.8899 20.9742 25.8654 21.014ZM 28.1361 18.5458C 28.1213 18.5558 27.9301 18.4015 27.7192 18.1925C 27.5034 17.9835 27.062 17.6551 26.7334 17.4511C 25.4191 16.64 25.4632 16.6748 25.4191 16.3215C 25.3357 15.6249 24.9532 15.1074 24.3352 14.8237C 23.5849 14.4854 23.2857 14.6048 22.8786 15.386C 22.7413 15.6547 22.5746 15.9334 22.5157 15.9981L 22.3931 16.1175L 22.2166 15.9583C 22.0547 15.8239 22.0057 15.814 21.8095 15.8438C 21.6869 15.8687 21.2406 15.8936 20.8139 15.9035L 20.039 15.9284L 19.9115 16.8689C 19.7448 18.098 19.7301 18.1129 19.5976 17.2222C 19.5486 16.8938 19.4996 16.6052 19.4848 16.5654C 19.4701 16.5156 19.3671 16.5305 19.1317 16.6201C 18.9503 16.6898 18.7835 16.7246 18.7688 16.7047C 18.7443 16.6798 18.8179 16.5504 18.9307 16.4161C 19.1808 16.1076 19.2936 15.8239 19.2936 15.5353C 19.2936 15.3164 19.3426 15.2467 19.99 14.4903C 20.7649 13.5847 20.9758 13.4006 21.2063 13.4006C 21.4711 13.4006 22.3882 13.5349 22.3882 13.5747C 22.3882 13.5996 22.1185 13.6792 21.7801 13.7638C 21.4466 13.8484 21.1719 13.938 21.1719 13.9629C 21.1719 14.0773 21.7899 14.1619 22.5844 14.152C 23.2612 14.152 23.4671 14.1271 23.7173 14.0375L 24.0213 13.933L 24.1145 13.5698C 24.2469 13.0522 24.242 12.4601 24.1047 12.0471C 23.9772 11.6639 23.938 11.5992 23.4966 10.9573C 23.0944 10.3801 22.9228 10.0865 22.9865 10.0865C 23.016 10.0865 23.1925 10.186 23.3789 10.3104C 24.1439 10.818 24.6197 11.5594 24.8207 12.5596C 24.8796 12.8532 24.9335 13.1767 24.9335 13.2762C 24.9335 13.3757 24.9581 13.4603 24.9777 13.4603C 25.0071 13.4603 25.1346 13.3757 25.267 13.2762C 25.9046 12.7835 26.0517 12.7835 26.6353 13.2463C 27.1895 13.6942 27.7437 14.2664 28.1115 14.774C 28.4548 15.2417 28.7295 15.7095 28.6608 15.7095C 28.5235 15.7095 26.4441 14.8436 25.8408 14.5351C 25.6496 14.4406 25.4926 14.3709 25.4926 14.3908C 25.4926 14.4107 25.8261 14.8586 26.2283 15.391C 27.0767 16.5007 27.3808 16.9336 27.6947 17.481C 27.9203 17.8741 28.1802 18.5011 28.1361 18.5458ZM 29.9261 18.2124C 30.2694 19.1778 30.5931 20.9294 30.5637 21.6161L 30.549 21.9744L 30.446 21.6957C 29.3719 18.8444 28.6952 17.5108 27.7045 16.3514C 27.2337 15.7941 27.2435 15.7642 27.8026 16.0827C 29.0826 16.8042 29.6172 17.3416 29.9261 18.2124ZM 27.984 10.6588C 27.9252 10.6239 27.9203 10.4995 27.9791 9.92727C 28.0135 9.54909 28.0576 9.24057 28.0723 9.24057C 28.087 9.24057 28.2881 9.3799 28.5186 9.55407C 29.1218 10.0168 30.1027 11.0369 30.5048 11.644C 31.1228 12.5596 31.5102 13.6046 31.5102 14.3261L 31.5053 14.6098L 31.3288 14.1321C 31.0836 13.4852 30.7206 12.9328 30.1125 12.2909C 29.4602 11.6042 29.0581 11.2957 27.984 10.6588Z"/>
<path id="path9_fill" d="M 0 0.44785L 0.245213 0L 0.39234 0.44785L 0.245213 0.796178L 0 0.44785Z"/>
<path id="path10_fill" d="M 11.352 25C 14.568 25 16.08 22.888 16.08 20.656C 16.08 18.592 14.76 17.008 13.032 16.744C 14.592 16.408 15.768 15.064 15.768 13.072C 15.768 11.2 14.328 8.992 11.016 8.992L 1.296 8.992L 1.296 25L 11.352 25ZM 9.888 14.896L 6.144 14.896L 6.144 13.024L 9.888 13.024C 10.392 13.024 10.848 13.384 10.848 13.936C 10.848 14.512 10.392 14.896 9.888 14.896ZM 10.032 20.968L 6.144 20.968L 6.144 18.928L 10.032 18.928C 10.728 18.928 11.16 19.384 11.16 19.96C 11.16 20.56 10.728 20.968 10.032 20.968ZM 22.8784 25L 22.8784 8.992L 18.0304 8.992L 18.0304 25L 22.8784 25ZM 33.4041 25.288C 36.5481 25.288 38.9481 24.016 40.7241 22.048L 40.7241 15.496L 32.9241 15.496L 32.9241 19.72L 35.9001 19.72L 35.9001 20.296C 35.3961 20.68 34.3161 21.016 33.4041 21.016C 31.0761 21.016 29.5161 19.24 29.5161 17.008C 29.5161 14.776 31.0761 13 33.4041 13C 34.8441 13 35.9001 14.008 36.3561 14.992L 40.4361 12.904C 39.4281 10.84 37.2201 8.728 33.4041 8.728C 28.5561 8.728 24.5961 11.872 24.5961 17.008C 24.5961 22.12 28.5561 25.288 33.4041 25.288ZM 53.7941 25L 53.7941 20.776L 47.7221 20.776L 47.7221 8.992L 42.8741 8.992L 42.8741 25L 53.7941 25ZM 60.5893 25L 60.5893 8.992L 55.7413 8.992L 55.7413 25L 60.5893 25ZM 71.067 25.288C 76.011 25.288 79.827 21.928 79.827 17.008C 79.827 12.088 76.011 8.728 71.067 8.728C 66.123 8.728 62.307 12.088 62.307 17.008C 62.307 21.928 66.123 25.288 71.067 25.288ZM 71.067 21.016C 68.739 21.016 67.227 19.24 67.227 17.008C 67.227 14.776 68.739 13 71.067 13C 73.395 13 74.907 14.776 74.907 17.008C 74.907 19.24 73.395 21.016 71.067 21.016ZM 96.954 25L 96.954 8.992L 92.106 8.992L 92.106 16.576L 86.538 8.992L 81.546 8.992L 81.546 25L 86.394 25L 86.394 16.888L 92.298 25L 96.954 25ZM 105.762 25.288C 110.058 25.288 112.674 23.248 112.674 19.72C 112.674 13.768 103.77 15.064 103.77 13.552C 103.77 13.144 104.034 12.832 104.994 12.832C 106.506 12.832 108.306 13.36 109.698 14.416L 112.29 10.984C 110.466 9.496 108.114 8.752 105.498 8.752C 101.106 8.752 98.85 11.344 98.85 14.056C 98.85 20.368 107.778 18.808 107.778 20.344C 107.778 20.968 106.914 21.208 106.002 21.208C 103.842 21.208 102.042 20.296 100.842 19.144L 98.322 22.744C 100.026 24.28 102.354 25.288 105.762 25.288Z"/>
</defs>
</svg>
