<svg width="77" height="44" viewBox="0 0 77 44" version="1.1" xmlns="http://www.w3.org/2000/svg" xmlns:xlink="http://www.w3.org/1999/xlink">
<title>Vector</title>
<desc>Created using Figma</desc>
<g id="Canvas" transform="translate(-1358 -9827)">
<g id="Vector">
<use xlink:href="#path0_fill" transform="translate(1358 9827)"/>
<use xlink:href="#path0_fill" transform="translate(1358 9827)" fill="url(#paint1_linear)"/>
</g>
</g>
<defs>
<linearGradient id="paint1_linear" x1="0" y1="0" x2="1" y2="0" gradientUnits="userSpaceOnUse" gradientTransform="matrix(58.0091 33.7053 -58.9842 32.8316 39.5984 -12.4158)">
<stop offset="0" stop-color="#E9B760"/>
<stop offset="0.138122" stop-color="#F7F2A8"/>
<stop offset="0.39779" stop-color="#FDDC7E"/>
<stop offset="0.790055" stop-color="#E4B25B"/>
<stop offset="0.98895" stop-color="#F6CA6B"/>
</linearGradient>
<path id="path0_fill" fill-rule="evenodd" d="M 37.5416 43.7919L 42.1484 43.7919C 42.1484 43.7919 43.5348 43.6373 44.2473 42.8743C 44.9212 42.1644 44.9212 40.8461 44.9212 40.8461C 44.9212 40.8461 44.8249 34.6455 47.7133 33.7327C 50.5534 32.8297 54.1638 39.7209 58.0149 42.3673C 60.9514 44.3955 63.1658 43.9609 63.1658 43.9609L 73.4675 43.816C 73.4675 43.816 78.859 43.478 76.3076 39.2283C 76.1151 38.8903 74.8635 36.0894 68.7017 30.3427C 62.2511 24.3545 63.1176 25.3204 70.868 14.9377C 75.5856 8.61152 77.5111 4.7482 76.8853 3.10629C 76.3558 1.56096 72.8417 1.94729 72.8417 1.94729L 61.2884 2.04388C 61.2884 2.04388 60.4219 1.94729 59.7961 2.33362C 59.1703 2.71996 58.7852 3.5892 58.7852 3.5892C 58.7852 3.5892 56.9559 8.51493 54.5008 12.668C 49.297 21.4522 47.2271 21.9351 46.4087 21.3556C 44.4687 20.1001 44.9645 16.2705 44.9645 13.5324C 44.9645 5.03312 46.2643 1.45955 42.4613 0.54201C 41.2097 0.252262 40.2758 0.0590962 37.0554 0.0108047C 32.9154 -0.0374868 29.4254 0.0397797 27.4469 1.01044C 26.1471 1.66237 25.1362 3.10629 25.7139 3.18356C 26.4841 3.28014 28.2171 3.65681 29.1317 4.91239C 30.3352 6.53981 30.2871 10.1762 30.2871 10.1762C 30.2871 10.1762 30.961 20.2063 28.6985 21.4522C 27.1099 22.2925 24.9918 20.5492 20.3705 12.5811C 18.0117 8.52459 16.2306 3.98519 16.2306 3.98519C 16.2306 3.98519 15.8936 3.16424 15.2678 2.68132C 14.5457 2.15012 13.4867 1.95695 13.4867 1.95695L 2.46289 2.05353C 2.46289 2.05353 0.826172 2.10183 0.248508 2.8262C -0.281018 3.45399 0.200369 4.80615 0.200369 4.80615C 0.200369 4.80615 8.8172 25.0403 18.5894 35.2298C 27.5431 44.5742 37.7004 43.9705 37.7004 43.9705L 37.5416 43.7919Z"/>
</defs>
</svg>
